<?xml version="1.0" standalone="no"?>
<!DOCTYPE svg PUBLIC "-//W3C//DTD SVG 1.1//EN" "http://www.w3.org/Graphics/SVG/1.1/DTD/svg11.dtd" >
<svg xmlns="http://www.w3.org/2000/svg">
<metadata>
This is a custom SVG webfont generated by Font Squirrel.
Copyright   : Copyright 2003 2009 B Jackowski and J M Nowacki on behalf of TeX users groups This work is released under the GUST Font License   see httptugorgfontslicensesGUSTFONTLICENSEtxt for details
</metadata>
<defs>
<font id="webfont3qWWxG32" horiz-adv-x="1024" >
<font-face units-per-em="2048" ascent="1536" descent="-512" />
<missing-glyph horiz-adv-x="497" />
<glyph unicode="IJ" horiz-adv-x="1673" d="M45 0v66h135q25 141 25 286v729q0 145 -25 287h-135v66h627v-66h-135q-25 -141 -25 -287v-729q0 -145 25 -286h135v-66h-627zM739 199v108h308v-135q0 -41 2 -65.5t15 -47t39.5 -22.5t40 22.5t15.5 47t2 65.5v909q0 145 -24 287h-136v66h627v-66h-135q-25 -141 -25 -287 v-774q0 -158 -99 -247t-265 -89q-156 0 -226.5 44.5t-138.5 183.5z" />
<glyph unicode="ij" horiz-adv-x="1163" d="M45 0v66h98q25 141 25 286v197q0 145 -25 287h-98v65q197 0 393 25q-25 -188 -24 -377v-197q0 -145 24 -286h99v-66h-492zM168 1161v103l72 71h102l72 -71v-103l-72 -71h-102zM436 -199h123q0 -164 76 -163q115 0 115 229v682q0 145 -25 287h-98v65h491v-65h-98 q-25 -141 -25 -287v-549q0 -176 -114.5 -302t-282.5 -126q-55 0 -99 31.5t-63 83.5v114zM750 1161v103l71 71h103l71 -71v-103l-71 -71h-103z" />
<glyph unicode="fk" horiz-adv-x="1757" d="M45 0v66h123q25 141 25 286v484h-148v65h148v131q0 66 10 129.5t38.5 136t90 116.5t151.5 44q63 0 197.5 -10t204.5 -8q98 0 196 18q-25 -188 -24 -377v-544q47 0 94 24.5t75.5 51t73.5 73.5q80 88 80 150h-98v65h381v-65h-49q-51 0 -93 -22.5t-68 -49.5t-67 -78 q-84 -102 -149 -151q285 -18 311 -228q2 -23 5 -64.5t7.5 -67t12.5 -54.5t26.5 -42t47.5 -13h65v-66h-221q-68 0 -113 54.5t-61 133.5q-8 45 -12 95q-20 188 -125 188h-123v-119q0 -145 24 -286h99v-66h-492v66h98q25 141 25 286v729q0 74 -6 144q-16 168 -322 168 q-72 0 -71 -138q0 -74 14 -178q12 -115 12 -176h160v-65h-160v-484q0 -145 25 -286h135v-66h-553z" />
<glyph unicode="&#xfb00;" horiz-adv-x="1286" d="M45 0v66h123q25 141 25 286v484h-148v65h148v131q0 66 10 129.5t38.5 136t90 116.5t151.5 44t135.5 -14t118.5 -66v-123h-205v21v21v21q0 13 -1 20.5t-4 17.5t-6 15t-8 11.5t-12 8.5t-18 2q-72 0 -71 -138q0 -74 14 -178q12 -115 12 -176h398v131q0 66 10 129.5t38.5 136 t90 116.5t152 44t135.5 -14t118 -66v-123h-204v21v21v21q0 13 -1 20.5t-4.5 17.5t-6.5 15t-8 11.5t-12 8.5t-18 2q-72 0 -71 -138q0 -74 14 -178q12 -115 12 -176h160v-65h-160v-484q0 -145 25 -286h135v-66h-553v66h123q25 141 25 286v484h-398v-484q0 -145 25 -286h135 v-66h-553z" />
<glyph unicode="&#xfb01;" horiz-adv-x="1224" d="M45 0v66h123q25 141 25 286v484h-148v65h148v131q0 117 28 211q25 78 92.5 128t148.5 68.5t179 18.5q195 0 344 -123l72 -71v-103l-72 -71h-102l-72 71v103q-16 57 -63.5 93t-106.5 36q-94 0 -161.5 -35t-67.5 -103q0 -74 14 -178q12 -115 12 -176h250q197 0 393 25 q-25 -188 -24 -377v-197q0 -145 24 -286h99v-66h-492v66h98q25 141 25 286v197q0 145 -25 287h-348v-484q0 -145 25 -286h135v-66h-553z" />
<glyph unicode="&#xfb02;" horiz-adv-x="1224" d="M45 0v66h123q25 141 25 286v484h-148v65h148v131q0 66 10 129.5t38.5 136t90 116.5t151.5 44q68 0 202 -9t200 -9q98 0 196 18q-25 -188 -24 -377v-729q0 -145 24 -286h99v-66h-492v66h98q25 141 25 286v729q0 74 -6 144q-16 168 -322 168q-72 0 -71 -138q0 -74 14 -178 q12 -115 12 -176h160v-65h-160v-484q0 -145 25 -286h135v-66h-553z" />
<glyph unicode="&#xfb04;" horiz-adv-x="1867" d="M45 0v66h123q25 141 25 286v484h-148v65h148v131q0 66 10 129.5t38.5 136t90 116.5t151.5 44t135.5 -14t118.5 -66v-123h-205v21v21v21q0 13 -1 20.5t-4 17.5t-6 15t-8 11.5t-12 8.5t-18 2q-72 0 -71 -138q0 -74 14 -178q12 -115 12 -176h398v131q0 66 10 129.5t38.5 136 t90 116.5t151.5 44q68 0 202 -9t200 -9q98 0 196 18q-25 -188 -24 -377v-729q0 -145 24 -286h99v-66h-492v66h99q25 141 24 286v729q0 74 -6 144q-16 168 -322 168q-72 0 -71 -138q0 -74 14 -178q12 -115 12 -176h160v-65h-160v-484q0 -145 25 -286h135v-66h-553v66h123 q25 141 25 286v484h-398v-484q0 -145 25 -286h135v-66h-553z" />
<glyph unicode=" "  horiz-adv-x="497" />
<glyph unicode="&#x09;" horiz-adv-x="497" />
<glyph unicode="&#xa0;" horiz-adv-x="497" />
<glyph unicode="!" horiz-adv-x="475" d="M90 1434h295q-35 -176 -49 -353l-66 -704h-65l-66 704q-14 177 -49 353zM115 72v102l71 72h103l71 -72v-102l-71 -72h-103z" />
<glyph unicode="&#x22;" horiz-adv-x="704" d="M70 1264v114l98 56l98 -56v-114l-65 -484h-66zM438 1264v114l99 56l98 -56v-114l-66 -484h-65z" />
<glyph unicode="#" horiz-adv-x="1306" d="M90 391v127h260l99 328h-359v127h397l101 327h131l-98 -327h241l101 327h133l-101 -327h222v-127h-261l-98 -328h359v-127h-398l-100 -328h-131l98 328h-242l-100 -328h-133l100 328h-221zM481 518h244l100 328h-243z" />
<glyph unicode="$" horiz-adv-x="1058" d="M45 63v259h59q0 -123 106.5 -200t258.5 -87v522q-385 152 -385 401q0 145 112.5 245t272.5 112v119h66v-117q199 -6 378 -92v-258h-59q0 119 -94 200.5t-225 89.5v-464l138 -53q54 -22 125.5 -58.5t113.5 -74.5t72 -92t30 -116q0 -178 -141.5 -297.5t-337.5 -128.5v-137 h-66v137q-219 10 -424 90zM258 1059q0 -150 211 -242v438q-90 -12 -150.5 -65t-60.5 -131zM535 33q111 8 188.5 75.5t77.5 167.5q0 90 -73 149.5t-193 106.5v-499z" />
<glyph unicode="%" horiz-adv-x="1564" d="M45 1096q0 166 97.5 264t263 98t262 -98t96.5 -264t-96.5 -264.5t-262 -98.5t-263 98.5t-97.5 264.5zM193 0l1024 1434h155l-1024 -1434h-155zM252 1095.5q0 -67.5 5 -114.5t19.5 -92t47 -67.5t82 -22.5t81 22.5t46 67.5t19.5 92t5 114.5t-5 114.5t-19.5 92.5t-46 68 t-81 22.5t-82 -22.5t-47 -68t-19.5 -92.5t-5 -114.5zM801 338q0 166 97 264t263 98t262.5 -98t96.5 -264t-96.5 -264.5t-262.5 -98.5t-263 98.5t-97 264.5zM1008 338q0 -68 5 -115t19.5 -92t47 -67.5t81.5 -22.5t81 22.5t46.5 67.5t19.5 92t5 115t-5 115t-19.5 92 t-46.5 67.5t-81 22.5t-81.5 -22.5t-47 -67.5t-19.5 -92t-5 -115z" />
<glyph unicode="&#x26;" horiz-adv-x="1572" d="M45 354q0 121 98.5 215.5t268.5 188.5q-88 150 -88 387q0 129 92 221t223 92q119 0 202 -93t83 -220q0 -104 -69 -179t-191 -147l331 -483q49 63 76 110q80 127 115 242q27 76 35 148h-181v65h488v-65h-101q-53 -47 -102 -107l-205 -326q-29 -51 -86 -122 q76 -109 141.5 -174.5t133.5 -65.5q74 0 113.5 72.5t39.5 173.5h66q0 -127 -59.5 -219.5t-159.5 -92.5q-102 0 -170 6.5t-148 37t-125 87.5q-162 -131 -329 -131q-199 0 -345.5 105.5t-146.5 273.5zM352 354q0 -129 46 -221t139 -92q147 0 290 119l-368 526 q-107 -125 -107 -332zM451 1145q0 -12 176 -271q231 133 231 271q0 100 -62.5 174t-156.5 74q-84 0 -136 -74t-52 -174z" />
<glyph unicode="'" horiz-adv-x="335" d="M70 1264v114l98 56l98 -56v-114l-65 -484h-66z" />
<glyph unicode="(" horiz-adv-x="593" d="M45 512q0 291 113.5 558t324.5 466l45 -47q-238 -463 -237.5 -977t237.5 -977l-45 -47q-211 199 -324.5 466t-113.5 558z" />
<glyph unicode=")" horiz-adv-x="593" d="M45 -465q238 463 238 977t-238 977l45 47q211 -199 324.5 -466t113.5 -558t-113.5 -558t-324.5 -466z" />
<glyph unicode="*" horiz-adv-x="1228" d="M133 1065l55 98h115l238 -65v-66l-238 -65h-115zM315 745l58 99l176 174l57 -33l-61 -240l-58 -98h-112zM315 1384l60 99h112l58 -99l61 -239l-57 -33l-176 174zM623 985l57 33l176 -174l57 -99l-57 -98h-115l-57 98zM623 1145l61 239l57 99h115l57 -99l-57 -98 l-176 -174zM688 1032v66l238 65h114l56 -98l-56 -98h-114z" />
<glyph unicode="+" horiz-adv-x="1140" d="M90 449v126h416l2 418h127v-418h416v-126h-416v-416h-127v416h-418z" />
<glyph unicode="," horiz-adv-x="425" d="M90 72v102l72 72h102l72 -72v-102q0 -113 -57.5 -211.5t-155.5 -155.5l-33 57q123 88 152 238h-80z" />
<glyph unicode="-" horiz-adv-x="610" d="M45 352v160h520v-160h-520z" />
<glyph unicode="." horiz-adv-x="425" d="M90 72v102l72 72h102l72 -72v-102l-72 -72h-102z" />
<glyph unicode="/" horiz-adv-x="548" d="M45 -328l330 1762h129l-330 -1762h-129z" />
<glyph unicode="0" horiz-adv-x="1060" d="M70 682q0 184 46 340t150.5 261.5t251.5 105.5q152 0 261.5 -104.5t160.5 -261.5t51 -341t-51 -341t-160.5 -261.5t-261.5 -104.5q-147 0 -251.5 105.5t-150.5 261.5t-46 340zM328 570q0 -38 2 -108.5t7 -110.5t14 -96t23.5 -89t34 -64.5t47 -46t62.5 -14.5q39 0 71 14.5 t53.5 46t37.5 63.5t26.5 88t15.5 96t8 110.5t3 109.5v113v113q0 39 -3 109.5t-8 110.5t-15.5 96t-26.5 88t-37.5 63.5t-53.5 46t-71 14.5q-35 0 -62.5 -14.5t-47 -46t-34 -64.5t-23.5 -89t-14 -96t-7 -111t-2 -108v-112v-112z" />
<glyph unicode="1" horiz-adv-x="1060" d="M219 0v66h176q25 141 25 286v660q0 41 -4 114q-84 -18 -168 -18v66q111 0 206 55t148 151l88 9q-25 -188 -24 -377v-660q0 -145 24 -286h176v-66h-647z" />
<glyph unicode="2" horiz-adv-x="1060" d="M133 0v131l414 424q55 57 83.5 144t34 155t5.5 176q0 121 -44 207t-132 86q-86 0 -131.5 -63.5t-45.5 -167.5q0 -63 25 -123h-184q-25 59 -25 123q0 129 107.5 213t253.5 84q176 0 305 -101.5t129 -257.5q0 -274 -312 -543l-280 -241h399q61 0 107.5 43t56.5 104h66 l-66 -393h-766z" />
<glyph unicode="3" horiz-adv-x="1060" d="M84 301h246q0 -141 41 -200.5t159 -59.5q109 0 149 89t40 245q0 100 -13.5 167.5t-57.5 116t-118 48.5h-188v65h156q88 0 121.5 74t33.5 203q0 274 -155 274q-70 0 -113 -62.5t-43 -146.5h-221q0 125 111.5 200t265.5 75q186 0 299.5 -88.5t113.5 -251.5 q0 -106 -64.5 -190.5t-166.5 -113.5q131 -29 214 -133t83 -237q0 -188 -122 -294t-325 -106q-180 0 -313 89.5t-133 236.5z" />
<glyph unicode="4" horiz-adv-x="1060" d="M45 387v98l647 879h123q-25 -141 -24 -287v-559h237v-131h-237v-35q0 -145 24 -286h135v-66h-565v66h135q25 141 25 286v35h-500zM150 518h395v557z" />
<glyph unicode="5" horiz-adv-x="1060" d="M94 301h221q0 -133 49.5 -196.5t165.5 -63.5q59 0 97.5 27.5t54.5 84t21.5 110.5t5.5 138t-5.5 139.5t-21.5 112t-54 84t-98 27.5q-80 0 -165.5 -43t-133.5 -107h-65l49 627q4 35 26.5 58.5t55.5 23.5h375q123 0 123 66h65l-24 -189q-10 -68 -35 -95.5t-88 -27.5h-445 l-28 -360q137 113 290 112q201 0 319 -115.5t118 -312t-118 -311.5t-319 -115q-197 0 -316.5 81t-119.5 245z" />
<glyph unicode="6" horiz-adv-x="1060" d="M63 545q0 233 74 421.5t224.5 305.5t355.5 117q98 0 182 -50l-33 -57q-70 41 -149 41q-111 0 -187.5 -45t-117.5 -132t-60.5 -187.5t-25.5 -237.5q74 104 204 104q213 0 340 -112.5t127 -311.5q0 -201 -127 -313.5t-340 -112.5q-127 0 -237 70q-115 78 -172.5 211 t-57.5 289zM322 401q0 -109 15 -183.5t63.5 -125.5t130 -51t130 51t63.5 126t15 183q0 106 -15 181t-64.5 126.5t-129 51.5t-129 -51.5t-64.5 -126.5t-15 -181z" />
<glyph unicode="7" horiz-adv-x="1060" d="M84 1024l25 340h868v-66l-455 -839q-35 -59 -28.5 -131t53.5 -119l35 -35v-102l-72 -72h-102l-72 72v51q0 137 123 371l321 624h-547q-35 0 -57 -27.5t-26 -66.5h-66z" />
<glyph unicode="8" horiz-adv-x="1060" d="M74 387q0 150 75.5 249t210.5 138q-205 74 -204 295q0 152 103 236t271 84t271.5 -84t103.5 -236q0 -221 -205 -295q135 -39 211 -138t76 -249q0 -195 -125 -303.5t-331.5 -108.5t-331.5 108.5t-125 303.5zM332 387q0 -162 43 -254t155.5 -92t155.5 92t43 254 q0 344 -198.5 344t-198.5 -344zM401 1069q0 -59 4.5 -99t16.5 -79t38.5 -58.5t69.5 -19.5t70 19.5t39 58.5t16 79t4 99t-4 98t-16 78t-39 58.5t-70 19.5t-69.5 -19.5t-38.5 -58.5t-16.5 -78t-4.5 -98z" />
<glyph unicode="9" horiz-adv-x="1060" d="M63 963q0 201 127 313.5t340 112.5q127 0 238 -70q115 -78 172 -211t57 -289q0 -233 -73.5 -421.5t-224 -305.5t-355.5 -117q-98 0 -182 50l33 57q70 -41 149 -41q111 0 187.5 45t117.5 132t60.5 187.5t25.5 237.5q-74 -104 -205 -104q-213 0 -340 112.5t-127 311.5z M322 963q0 -106 15 -181t64.5 -126.5t129 -51.5t129 51.5t64.5 126t15 181.5q0 109 -15 183.5t-63.5 125.5t-130 51t-130 -51t-63.5 -125.5t-15 -183.5z" />
<glyph unicode=":" horiz-adv-x="425" d="M90 72v102l72 72h102l72 -72v-102l-72 -72h-102zM90 727v102l72 72h102l72 -72v-102l-72 -72h-102z" />
<glyph unicode=";" horiz-adv-x="425" d="M90 72v102l72 72h102l72 -72v-102q0 -113 -57.5 -211.5t-155.5 -155.5l-33 57q123 88 152 238h-80zM90 727v102l72 72h102l72 -72v-102l-72 -72h-102z" />
<glyph unicode="&#x3c;" horiz-adv-x="1112" d="M90 459v106l932 639v-155l-784 -537l784 -537v-155z" />
<glyph unicode="=" horiz-adv-x="1140" d="M90 258v127h961v-127h-961zM90 639v127h961v-127h-961z" />
<glyph unicode="&#x3e;" horiz-adv-x="1112" d="M90 -25l784 537l-784 537v155l932 -639v-106l-932 -639v155z" />
<glyph unicode="?" horiz-adv-x="942" d="M45 1075q0 102 18 152q37 102 138.5 154.5t226.5 52.5q193 0 331 -73t138 -214q0 -90 -68.5 -166t-149.5 -124t-149.5 -124t-68.5 -166v-190h-66v190q0 164 123 326l44 56q36 46 49.5 65.5t28.5 58.5t15 74q0 92 -66.5 156.5t-160.5 64.5q-92 0 -145.5 -87t-53.5 -206 h-184zM305 72v102l72 72h102l72 -72v-102l-72 -72h-102z" />
<glyph unicode="@" horiz-adv-x="1523" d="M45 717q0 297 210 507t507 210t507 -210t210 -507q0 -174 -107.5 -300t-267.5 -126q-152 0 -195 102q-66 -102 -168 -102q-172 0 -295.5 111.5t-123.5 273.5q0 174 129 320.5t290 146.5q109 0 179 -80l-11 57h217q-23 -129 -22 -252v-374q0 -117 35 -117 q121 0 197.5 101.5t76.5 238.5q0 270 -190.5 460.5t-460.5 190.5t-460.5 -190.5t-190.5 -461t190.5 -460.5t460.5 -190q211 0 385 124l39 -51q-188 -139 -424 -139q-297 0 -507 210t-210 507zM549 676q0 -168 45 -248t154 -80q84 0 122.5 85t38.5 208v291q0 63 -41 108 t-102 45q-68 0 -120 -75.5t-74.5 -166.5t-22.5 -167z" />
<glyph unicode="A" horiz-adv-x="1329" d="M14 0v66h109q68 131 119 286l264 795q51 152 80 315h102q39 -166 92 -315l293 -795q51 -137 131 -286h109v-66h-561v66h108q-23 123 -80 286l-53 142h-369l-47 -142q-51 -154 -69 -286h106v-66h-334zM381 559h321l-170 461z" />
<glyph unicode="B" horiz-adv-x="1286" d="M45 0v66h135q25 141 25 286v729q0 145 -25 287h-135v66h653q201 0 325 -88.5t124 -258.5q0 -246 -250 -319q160 -33 252 -127t92 -250q0 -193 -139 -292t-369 -99h-688zM512 352q0 -145 25 -286h106q145 0 228 88t83 237.5t-83 237.5t-228 88h-131v-365zM512 782h127 q119 0 184.5 80t65.5 213t-65.5 213t-184.5 80h-102q-25 -141 -25 -287v-299z" />
<glyph unicode="C" horiz-adv-x="1253" d="M45 717q0 342 195.5 543.5t531.5 201.5q229 0 436 -100v-287h-65q0 137 -109.5 229.5t-261.5 92.5q-104 0 -185 -58.5t-127 -158t-68.5 -216t-22.5 -247.5t22.5 -248t68.5 -216t127 -157.5t185 -58.5q152 0 261.5 92t109.5 229h65v-286q-207 -100 -436 -101 q-336 0 -531.5 202t-195.5 544z" />
<glyph unicode="D" horiz-adv-x="1581" d="M45 0v66h135q25 141 25 286v729q0 145 -25 287h-135v66h746q342 0 543.5 -191.5t201.5 -525.5t-201.5 -525.5t-543.5 -191.5h-746zM512 352q0 -145 25 -286h188q219 0 353 193.5t134 457.5t-134 457.5t-353 193.5h-188q-25 -141 -25 -287v-729z" />
<glyph unicode="E" horiz-adv-x="1142" d="M45 0v66h135q25 141 25 286v729q0 145 -25 287h-135v66h948v-359h-65q0 119 -61.5 206t-159.5 87h-170q-25 -141 -25 -287v-299h215q41 0 69.5 23.5t28.5 60.5v52h66v-336h-66v51q0 37 -28.5 60.5t-69.5 23.5h-215v-365q0 -145 25 -286h274q98 0 159.5 87t61.5 205h66 v-358h-1053z" />
<glyph unicode="F" horiz-adv-x="1081" d="M45 0v66h135q25 141 25 286v729q0 145 -25 287h-135v66h991v-359h-65q0 119 -61.5 206t-159.5 87h-213q-25 -141 -25 -287v-299h246q39 0 68.5 23.5t29.5 60.5v52h66v-336h-66v51q0 37 -29.5 60.5t-68.5 23.5h-246v-365q0 -145 25 -286h135v-66h-627z" />
<glyph unicode="G" horiz-adv-x="1538" d="M45 717q0 348 218 546.5t583 198.5q233 0 446 -100v-287h-65q0 137 -114 229.5t-267 92.5q-147 0 -259 -99.5t-165 -252t-53 -328.5t53 -328.5t164.5 -252t259.5 -99.5q111 0 203 57v142q0 145 -25 286h-135v66h627v-66h-136q-25 -141 -24 -286v-123q-205 -141 -510 -142 q-365 0 -583 199t-218 547z" />
<glyph unicode="H" horiz-adv-x="1613" d="M45 0v66h135q25 141 25 286v729q0 145 -25 287h-135v66h627v-66h-135q-25 -141 -25 -287v-299h590v299q0 145 -25 287h-135v66h627v-66h-135q-25 -141 -25 -287v-729q0 -145 25 -286h135v-66h-627v66h135q25 141 25 286v365h-590v-365q0 -145 25 -286h135v-66h-627z" />
<glyph unicode="I" horiz-adv-x="716" d="M45 0v66h135q25 141 25 286v729q0 145 -25 287h-135v66h627v-66h-135q-25 -141 -25 -287v-729q0 -145 25 -286h135v-66h-627z" />
<glyph unicode="J" horiz-adv-x="956" d="M23 199v108h307v-135q0 -41 2 -65.5t15 -47t40 -22.5t40 22.5t15 47t2 65.5v909q0 145 -24 287h-135v66h626v-66h-135q-25 -141 -24 -287v-774q0 -158 -99.5 -247t-265.5 -89q-156 0 -226 44.5t-138 183.5z" />
<glyph unicode="K" horiz-adv-x="1386" d="M45 0v66h135q25 141 25 286v729q0 145 -25 287h-135v66h627v-66h-135q-25 -141 -25 -287v-299h51q98 0 181 50.5t130 136.5q33 57 68 207q16 74 51 192h-90v66h371v-66h-68q-119 0 -186 -217q-41 -141 -88 -217q-61 -98 -158 -158q182 -18 305 -99t135 -224l17 -195 q4 -45 9 -74.5t15.5 -63.5t32 -51.5t51.5 -17.5h33v-65h-205q-143 0 -202.5 52t-71.5 191l-21 244q-12 135 -52 189.5t-154 54.5h-154v-365q0 -145 25 -286h135v-66h-627z" />
<glyph unicode="L" horiz-adv-x="1142" d="M45 0v66h135q25 141 25 286v729q0 145 -25 287h-135v66h627v-66h-135q-25 -141 -25 -287v-729q0 -145 25 -286h274q98 0 159.5 87t61.5 205h66v-358h-1053z" />
<glyph unicode="M" horiz-adv-x="1646" d="M45 0v66h135q25 141 25 286v729q0 145 -25 287h-135v66h510q23 -137 72 -287l204 -596l205 596q49 143 74 287h492v-66h-136q-25 -141 -24 -287v-729q0 -145 24 -286h136v-66h-627v66h135q25 141 25 286v729q0 68 -7 136l-319 -930q-49 -143 -74 -287h-65 q-25 143 -74 287l-320 938q-6 -74 -6 -144v-729q0 -145 25 -286h135v-66h-385z" />
<glyph unicode="N" horiz-adv-x="1382" d="M45 0v66h135q25 141 25 286v729q0 145 -25 287h-135v66h541q57 -139 143 -287l406 -690v624q0 145 -25 287h-135v66h385v-66h-135q-25 -141 -25 -287v-1081h-153l-762 1298q-14 -100 -15 -217v-729q0 -145 25 -286h135v-66h-385z" />
<glyph unicode="O" horiz-adv-x="1548" d="M45 717q0 342 196.5 543.5t532.5 201.5t532.5 -201.5t196.5 -543.5t-196.5 -544t-532.5 -202t-532.5 202t-196.5 544zM369 717q0 -131 23.5 -248t69.5 -216t127 -157.5t185.5 -58.5t185 58.5t127 157.5t70 216t23.5 248t-23.5 247.5t-70 216t-127 158t-185 58.5 t-185.5 -58.5t-127 -158t-69.5 -216t-23.5 -247.5z" />
<glyph unicode="P" horiz-adv-x="1228" d="M45 0v66h135q25 141 25 286v729q0 145 -25 287h-135v66h627q231 0 371.5 -107.5t140.5 -308.5t-140.5 -308.5t-371.5 -107.5h-160v-250q0 -145 25 -286h135v-66h-627zM512 668h131q127 0 188.5 96t61.5 254t-61.5 254t-188.5 96h-106q-25 -141 -25 -287v-413z" />
<glyph unicode="Q" horiz-adv-x="1548" d="M45 717q0 342 196.5 543.5t532.5 201.5t532.5 -201.5t196.5 -543.5q0 -297 -149.5 -490.5t-415.5 -240.5q82 -27 135 -78q12 -10 58.5 -61.5t80 -72t76.5 -20.5q70 0 111 53l39 -53q-88 -66 -201 -65h-201q-66 0 -112.5 46t-96 126t-90.5 110q-322 12 -507 213t-185 533z M369 717q0 -131 23.5 -248t69.5 -216t127 -157.5t185.5 -58.5t185 58.5t127 157.5t70 216t23.5 248t-23.5 247.5t-70 216t-127 158t-185 58.5t-185.5 -58.5t-127 -158t-69.5 -216t-23.5 -247.5z" />
<glyph unicode="R" horiz-adv-x="1308" d="M45 0v66h135q25 141 25 286v729q0 145 -25 287h-135v66h627q231 0 371.5 -89.5t140.5 -275.5q0 -270 -324 -340q240 -74 256 -264l19 -215q16 -199 127 -199h32v-65h-204q-127 0 -188.5 56t-72.5 183l-20 238q-10 125 -63.5 182t-167.5 57h-66v-350q0 -145 25 -286h135 v-66h-627zM512 768h131q119 0 184.5 83t65.5 218t-65.5 217t-184.5 82h-106q-25 -141 -25 -287v-313z" />
<glyph unicode="S" horiz-adv-x="1148" d="M45 72v286h66q0 -147 134 -234t318 -87q129 0 225.5 76.5t96.5 193.5q0 59 -30 105.5t-84 79t-110.5 55t-125.5 47.5l-21 6q-184 61 -305 183t-121 282q0 176 151.5 286.5t356.5 110.5q217 0 414 -100v-287h-66q0 135 -103.5 228.5t-244.5 93.5q-127 0 -220 -59.5 t-93 -159.5q0 -106 90 -171t239 -116q84 -29 148.5 -55.5t135.5 -67.5t117 -86t76.5 -106.5t30.5 -133.5q0 -203 -166 -337t-391 -134q-268 1 -518 101z" />
<glyph unicode="T" horiz-adv-x="1355" d="M45 1075v359h1266v-359h-66q0 119 -61.5 206t-159.5 87h-168q-25 -141 -25 -287v-729q0 -145 25 -286h135v-66h-626v66h135q25 141 24 286v729q0 145 -24 287h-168q-98 0 -159.5 -87t-61.5 -206h-66z" />
<glyph unicode="U" horiz-adv-x="1363" d="M23 1368v66h626v-66h-135q-25 -141 -25 -287v-729q0 -127 78 -219t193 -92q180 0 268 72.5t88 238.5v729q0 145 -24 287h-136v66h385v-66h-135q-25 -141 -24 -287v-729q0 -211 -123 -294t-377 -83q-225 0 -362.5 95.5t-137.5 281.5v729q0 145 -24 287h-135z" />
<glyph unicode="V" horiz-adv-x="1349" d="M14 1368v66h590v-66h-108q25 -143 73 -287l232 -682l233 682q49 150 72 287h-107v66h334v-66h-108q-72 -141 -121 -287l-250 -729q-70 -213 -104 -381h-152q-35 168 -104 381l-250 729q-49 145 -121 287h-109z" />
<glyph unicode="W" horiz-adv-x="2127" d="M14 1368v66h531v-66h-78q25 -143 74 -287l235 -686l236 686l16 52q-49 127 -104 235h-80v66h532v-66h-80q27 -143 74 -287l236 -686l235 686q49 143 74 287h-78v66h277v-66h-80q-70 -135 -123 -287l-250 -729q-61 -178 -107 -381h-151q-45 203 -107 381l-233 678 l-234 -678q-70 -213 -104 -381h-152q-45 203 -106 381l-252 729q-49 150 -123 287h-78z" />
<glyph unicode="X" horiz-adv-x="1363" d="M23 0v66h135q125 152 213 286l182 279l-227 450q-78 156 -168 287h-135v66h663v-66h-135q45 -137 119 -287l78 -153l100 153q92 141 164 287h-135v66h397v-66h-135q-125 -152 -213 -287l-144 -221l256 -508q78 -156 168 -286h135v-66h-663v66h135q-45 137 -119 286 l-106 211l-139 -211q-92 -141 -164 -286h135v-66h-397z" />
<glyph unicode="Y" horiz-adv-x="1349" d="M14 1368v66h705v-66h-135q2 -111 57 -209q86 -158 133 -319l25 -99q23 96 69 209q47 109 121 224q86 125 86 194h-149v66h407v-66h-100q-195 -195 -305 -444q-100 -231 -101 -447v-125q0 -145 25 -286h135v-66h-627v66h136q25 141 24 286v125q0 262 -149 535 q-109 199 -267 356h-90z" />
<glyph unicode="Z" horiz-adv-x="1236" d="M45 0v88q182 86 264 270l373 842q41 90 119 168h-412q-98 0 -159.5 -87t-61.5 -206h-66v359h1057v-88q-129 -117 -196 -271l-373 -842q-39 -88 -117 -167h432q98 0 159.5 87t61.5 205h66v-358h-1147z" />
<glyph unicode="[" horiz-adv-x="458" d="M45 -512v2048h369v-66h-205v-1916h205v-66h-369z" />
<glyph unicode="\" horiz-adv-x="548" d="M45 1434h129l330 -1680h-129z" />
<glyph unicode="]" horiz-adv-x="458" d="M45 -446h205v1916h-205v66h369v-2048h-369v66z" />
<glyph unicode="^" horiz-adv-x="1036" d="M72 717l374 717h144l375 -717h-144l-303 579l-303 -579h-143z" />
<glyph unicode="_" horiz-adv-x="1036" d="M0 -119h1036v-127h-1036v127z" />
<glyph unicode="`" d="M256 1315v61h221q25 -195 164 -329h-117z" />
<glyph unicode="a" horiz-adv-x="1009" d="M45 268.5q0 139.5 94 216t250 76.5q131 0 229 -86v221q0 74 -34.5 119t-98.5 45q-82 0 -132 -43t-50 -121h-197q0 115 112 172.5t267 57.5q170 0 274.5 -75t104.5 -220v-488q0 -47 30 -62t93 -15v-66h-147q-143 0 -199 80q-115 -104 -252 -105q-156 0 -250 77t-94 216.5z M291 268q0 -92 38 -159.5t109 -67.5q51 0 103.5 31.5t76.5 77.5v260q-68 86 -180 86q-72 0 -109.5 -68t-37.5 -160z" />
<glyph unicode="b" horiz-adv-x="1165" d="M45 0v66h98q25 141 25 286v729q0 145 -25 287h-98v66q197 0 393 24q-25 -188 -24 -377v-254q98 98 237 99q211 0 333 -129t122 -346.5t-122 -346.5t-333 -129q-143 0 -237 105l12 -105q-191 25 -381 25zM414 254q0 -88 62.5 -150.5t150.5 -62.5q70 0 114.5 31.5t67 92 t31 127t8.5 159.5q0 410 -246 409q-123 0 -188 -102v-504z" />
<glyph unicode="c" horiz-adv-x="989" d="M59 450.5q0 221.5 132.5 348.5t355.5 127q180 0 348 -66v-190h-123q0 82 -66.5 136t-158.5 54t-144.5 -59.5t-69 -142.5t-16.5 -207q0 -92 9.5 -159t33 -127.5t70.5 -92t117 -31.5q135 0 233.5 59.5t98.5 165.5h65v-143q-174 -147 -397 -147.5t-355.5 126.5t-132.5 348.5 z" />
<glyph unicode="d" horiz-adv-x="1165" d="M59 450.5q0 217.5 122 346.5t333 129q139 0 238 -99v254q0 145 -25 287h-98v66q197 0 393 24q-25 -188 -25 -377v-729q0 -145 25 -286h98v-66q-190 0 -381 -25l13 105q-94 -104 -238 -105q-211 0 -333 129t-122 346.5zM317 451q0 -410 246 -410q80 0 134.5 63.5 t54.5 149.5v504q-80 102 -213 102q-70 0 -115 -31.5t-67.5 -92t-31 -127t-8.5 -158.5z" />
<glyph unicode="e" horiz-adv-x="989" d="M59 450.5q0 217.5 118 346.5t325 129q182 0 312 -126t130 -306q-184 25 -369 24h-258v-67q0 -170 55.5 -289t174.5 -119q121 0 199.5 40t148.5 140l49 -43q-102 -121 -192 -163t-250 -42q-207 0 -325 129t-118 346.5zM319 584h367q0 276 -184 276q-100 0 -138.5 -71.5 t-44.5 -204.5z" />
<glyph unicode="f" horiz-adv-x="643" d="M45 0v66h123q25 141 25 286v484h-148v65h148v131q0 66 10 129.5t38.5 136t90 116.5t151.5 44t135.5 -14t118.5 -66v-123h-205v21v21v21q0 13 -1 20.5t-4 17.5t-6 15t-8 11.5t-12 8.5t-18 2q-72 0 -71 -138q0 -74 14 -178q12 -115 12 -176h160v-65h-160v-484 q0 -145 25 -286h135v-66h-553z" />
<glyph unicode="g" horiz-adv-x="1046" d="M59 -123h293v-65h-73q-25 -37 -25 -86q0 -127 276 -127q111 0 193 50t82 138q0 98 -75 143t-200 45q-229 0 -350 122t-121 354q0 227 103.5 351t310.5 124q92 0 166 -25h362v-108h-32q-78 59 -178 59h-52q150 -104 150 -311q0 -180 -113.5 -282.5t-302.5 -102.5 q-66 0 -121 36.5t-78 100.5q0 -131 61.5 -191.5t194.5 -60.5q106 0 182 -9t147 -35t106.5 -78t35.5 -132q0 -70 -40.5 -122t-110.5 -79.5t-148.5 -40t-171.5 -12.5q-258 0 -364.5 60.5t-106.5 259.5v24zM305 540.5q0 -153.5 34 -236.5t134 -83t135 84t35 235.5t-35 235.5 t-135 84t-134 -83t-34 -236.5z" />
<glyph unicode="h" horiz-adv-x="1187" d="M45 0v66h98q25 141 25 286v729q0 145 -25 287h-98v66q197 0 393 24q-25 -188 -24 -377v-309q115 154 303 154t303 -154v-420q0 -145 24 -286h99v-66h-492v66h99q25 141 24 286v330q0 63 -25.5 108.5t-72.5 45.5q-86 0 -156.5 -48.5t-105.5 -125.5v-310q0 -145 24 -286h99 v-66h-492z" />
<glyph unicode="i" horiz-adv-x="581" d="M45 0v66h98q25 141 25 286v197q0 145 -25 287h-98v65q197 0 393 25q-25 -188 -24 -377v-197q0 -145 24 -286h99v-66h-492zM168 1161v103l72 71h102l72 -71v-103l-72 -71h-102z" />
<glyph unicode="j" horiz-adv-x="483" d="M-145 -199h122q0 -164 76 -163q115 0 115 229v682q0 145 -25 287h-98v65h492v-65h-99q-25 -141 -24 -287v-549q0 -176 -115 -302t-283 -126q-55 0 -99 31.5t-62 83.5v114zM168 1161v103l72 71h102l72 -71v-103l-72 -71h-102z" />
<glyph unicode="k" horiz-adv-x="1114" d="M45 0v66h98q25 141 25 286v729q0 145 -25 287h-98v66q197 0 393 24q-25 -188 -24 -377v-544q47 0 94 24.5t75.5 51t73.5 73.5q80 88 80 150h-98v65h381v-65h-49q-51 0 -93 -22.5t-68 -49.5t-67 -78q-84 -102 -149 -151q285 -18 311 -228q2 -23 5 -64.5t7.5 -67 t12.5 -54.5t26.5 -42t47.5 -13h65v-66h-221q-68 0 -113 54.5t-61 133.5q-8 45 -12 95q-20 188 -125 188h-123v-119q0 -145 24 -286h99v-66h-492z" />
<glyph unicode="l" horiz-adv-x="581" d="M45 0v66h98q25 141 25 286v729q0 145 -25 287h-98v66q197 0 393 24q-25 -188 -24 -377v-729q0 -145 24 -286h99v-66h-492z" />
<glyph unicode="m" horiz-adv-x="1794" d="M45 0v66h98q25 141 25 286v197q0 145 -25 287h-98v65q197 0 393 25l-24 -154q115 154 303 154t303 -154q115 154 303 154t303 -154v-420q0 -145 25 -286h98v-66h-492v66h99q25 141 24 286v330q0 63 -25.5 108.5t-72.5 45.5q-86 0 -156.5 -48.5t-105.5 -125.5v-310 q0 -145 24 -286h99v-66h-492v66h99q25 141 24 286v330q0 63 -25.5 108.5t-72.5 45.5q-86 0 -156.5 -48.5t-105.5 -125.5v-310q0 -145 24 -286h99v-66h-492z" />
<glyph unicode="n" horiz-adv-x="1187" d="M45 0v66h98q25 141 25 286v197q0 145 -25 287h-98v65q197 0 393 25l-24 -154q115 154 303 154t303 -154v-420q0 -145 24 -286h99v-66h-492v66h99q25 141 24 286v330q0 63 -25.5 108.5t-72.5 45.5q-86 0 -156.5 -48.5t-105.5 -125.5v-310q0 -145 24 -286h99v-66h-492z" />
<glyph unicode="o" horiz-adv-x="1079" d="M59 450.5q0 221.5 132.5 348.5t355.5 127t355 -127t132 -348.5t-132 -348.5t-355 -127t-355.5 127t-132.5 348.5zM317 451q0 -92 9.5 -159t33 -127.5t70.5 -92t117 -31.5q92 0 144 59.5t68.5 142.5t16.5 208q0 92 -9 158.5t-32.5 127t-71 92t-116.5 31.5 q-92 0 -144.5 -59.5t-69 -142t-16.5 -207.5z" />
<glyph unicode="p" horiz-adv-x="1165" d="M45 -391h98q25 141 25 287v653q0 145 -25 287h-98v65q197 0 393 25l-10 -90q90 90 223 90q211 0 333 -129t122 -346.5t-122 -346.5t-333 -129q-139 0 -237 99v-178q0 -145 24 -287h99v-66h-492v66zM414 143q66 -102 188 -102q246 0 246 410q0 92 -8.5 158.5t-31 127 t-67.5 92t-114 31.5q-88 0 -150.5 -62.5t-62.5 -150.5v-504z" />
<glyph unicode="q" horiz-adv-x="1165" d="M59 450.5q0 217.5 122 346.5t333 129q133 0 223 -90l-10 90q197 -25 393 -25v-65h-98q-25 -141 -25 -287v-653q0 -145 25 -287h98v-66h-491v66h98q25 141 25 287v178q-98 -98 -238 -99q-211 0 -333 129t-122 346.5zM317 451q0 -92 8.5 -159t31 -127.5t67.5 -92t115 -31.5 q133 0 213 102v504q0 86 -54.5 149.5t-134.5 63.5q-246 1 -246 -409z" />
<glyph unicode="r" horiz-adv-x="866" d="M45 0v66h98q25 141 25 286v197q0 145 -25 287h-98v65q197 0 393 25q-8 -55 -16 -166q27 66 92.5 116t128.5 50q78 0 133 -54.5t55 -132.5v-63h-221q0 37 -1 57.5t-5 49t-14 42t-29 13.5q-147 0 -147 -338v-148q0 -145 24 -286h148v-66h-541z" />
<glyph unicode="s" horiz-adv-x="841" d="M45 41v254h66q0 -109 90 -181.5t213 -72.5q106 0 182 38t76 116q0 25 -8.5 44t-27 32.5t-34.5 22.5t-48 16l-50 11l-58 9q-39 6 -53 8q-135 23 -230 103.5t-95 195.5q0 125 102 207t244 82q160 0 303 -66v-190h-66q0 84 -70.5 137t-166.5 53q-86 0 -149.5 -39t-63.5 -106 q0 -35 18.5 -59.5t59 -39t70.5 -20.5t85 -14q158 -27 265.5 -106t107.5 -204q0 -133 -117 -215t-276 -82q-189 0 -369 66z" />
<glyph unicode="t" horiz-adv-x="602" d="M45 836v65h98v123q29 0 99.5 48t81.5 75h65v-246h168v-65h-168v-607q0 -37 2 -59.5t7 -50t20.5 -40.5t38.5 -13q18 0 39.5 15t27.5 34h33v-66q-90 -74 -205 -74q-94 0 -151.5 42t-57.5 122v697h-98z" />
<glyph unicode="u" horiz-adv-x="1157" d="M14 836v65q197 0 394 25q-25 -188 -25 -377v-330q0 -63 25.5 -108t72.5 -45q86 0 157 48t105 126v309q0 145 -24 287h-98v65q197 0 393 25q-25 -188 -25 -377v-197q0 -145 25 -286h98v-66q-197 0 -393 -25l24 154q-115 -154 -303 -154t-303 154v420q0 145 -24 287h-99z " />
<glyph unicode="v" horiz-adv-x="968" d="M14 836v65h506v-65h-98q23 -137 72 -287l84 -246l84 246q49 143 73 287h-98v65h315v-65h-98q-70 -135 -123 -287l-65 -197q-55 -156 -97 -352h-172q-41 197 -96 352l-65 197q-53 152 -123 287h-99z" />
<glyph unicode="w" horiz-adv-x="1626" d="M45 836v65q197 0 393 25q-25 -188 -24 -377v-330q0 -61 25.5 -107t72.5 -46q86 0 157.5 48t106.5 126v309q0 145 -24 287h-99v65q197 0 394 25q-25 -188 -25 -377v-309q0 -82 32.5 -140.5t94.5 -58.5q150 0 215 154q46 107 46 236q0 57 -9 118q-20 156 -117 287h-98v65 h395v-65h-49q-37 -98 -38 -200q0 -43 7 -87q8 -55 8 -107q0 -159 -75 -291q-100 -175 -285 -176q-66 0 -127 25h-246v129q-115 -154 -305 -154q-188 0 -303 154v420q0 145 -25 287h-98z" />
<glyph unicode="x" horiz-adv-x="1028" d="M45 0v66h119q94 104 158 200l86 125l-93 158q-76 131 -192 287h-78v65h492v-65h-80q47 -115 104 -220l12 19q63 94 111 201h-98v65h323v-65h-98q-92 -102 -160 -201l-55 -82l4 -4l113 -197q76 -131 192 -286h78v-66h-491v66h79q-57 139 -129 262l-41 -62 q-63 -94 -110 -200h119v-66h-365z" />
<glyph unicode="y" horiz-adv-x="1091" d="M45 836v65q197 0 393 25q-25 -188 -24 -377v-330q0 -63 22.5 -108t67.5 -45q86 0 156.5 48t101.5 128v307q0 145 -25 287h-98v65q197 0 393 25q-25 -188 -24 -377v-369q0 -276 -184.5 -474t-448.5 -198q-129 0 -223.5 59.5t-94.5 162.5q0 168 248 282q-84 41 -137 117 v420q0 145 -25 287h-98zM205 -270q0 -66 50 -111t120 -45q141 0 262 68q39 20 64.5 55t38 66.5t18.5 87t7 87.5v25q0 29 -1 73q-2 67 -2 93q-109 -154 -297 -154q-39 0 -86 11q-78 -31 -126 -100.5t-48 -155.5z" />
<glyph unicode="z" horiz-adv-x="892" d="M45 0v82q102 39 145 133l281 578q8 20 27 43h-154q-123 0 -172 -49.5t-49 -172.5h-66v287h758v-82q-82 -47 -123 -133l-280 -577q-8 -20 -27 -43h176q123 0 172 49t49 172h66v-287h-803z" />
<glyph unicode="{" horiz-adv-x="692" d="M45 479v66q88 0 145.5 72.5t57.5 173.5v434q0 137 118.5 224t280.5 87v-66q-98 0 -166.5 -72.5t-68.5 -172.5v-434q0 -92 -55.5 -166t-147.5 -113q92 -39 147.5 -112.5t55.5 -166.5v-434q0 -100 68.5 -172.5t166.5 -72.5v-66q-162 0 -280.5 87t-118.5 224v434 q0 100 -57.5 173t-145.5 73z" />
<glyph unicode="|" horiz-adv-x="1060" d="M467 -449v1922h127v-1922h-127z" />
<glyph unicode="}" horiz-adv-x="692" d="M45 -446q100 0 170 71.5t70 173.5v434q0 92 55 166t145 113q-90 39 -145 112.5t-55 166.5v434q0 102 -70 173.5t-170 71.5v66q164 0 284 -87t120 -224v-434q0 -98 56 -172t142 -74v-66q-86 0 -142 -73.5t-56 -172.5v-434q0 -137 -120 -224t-284 -87v66z" />
<glyph unicode="~" horiz-adv-x="827" d="M45 344l75 88q24 27 71 76t81.5 70.5t61.5 21.5q45 0 114.5 -57.5t114.5 -57.5q47 0 85 30t83 85l51 -43l-74 -88q-24 -27 -71 -76t-82 -70.5t-61 -21.5q-45 0 -115 57.5t-115 57.5q-47 0 -85 -30t-83 -85z" />
<glyph unicode="&#xa1;" horiz-adv-x="475" d="M90 -532q35 176 49 352l66 704h65l66 -704q14 -176 49 -352h-295zM115 727v102l71 72h103l71 -72v-102l-71 -72h-103z" />
<glyph unicode="&#xa2;" horiz-adv-x="989" d="M59 451q0 221 132.5 348t355.5 127q59 0 115 -6l47 145h69l-51 -156q84 -18 168 -49v-190h-123q0 88 -76 143l-239 -754q37 -18 90 -18q135 0 233.5 59.5t98.5 165.5h65v-143q-174 -147 -397 -148q-53 0 -115 11l-47 -150h-70l54 164q-145 45 -227.5 163t-82.5 288z M317 451q0 -260 82 -351l240 744q-45 16 -92 16q-92 0 -144.5 -59.5t-69 -142t-16.5 -207.5z" />
<glyph unicode="&#xa3;" horiz-adv-x="1286" d="M45 116.5q0 65.5 58.5 107.5t138.5 42q90 0 221 -45v12q0 72 -19.5 142.5t-62.5 172t-55 136.5h-248v66h225q-23 90 -22 151q0 217 139 375t342 158q158 0 274.5 -85t116.5 -221v-102l-72 -72h-102l-72 72v102l72 72q0 74 -64.5 121t-152.5 47q-236 0 -236 -467 q0 -63 19 -151h272v-66h-254q8 -29 43 -135.5t50.5 -176t15.5 -139.5q0 -49 -19 -88q131 -47 230 -47q121 0 207 46t86 137h65q0 -174 -102.5 -301t-255.5 -127q-63 0 -129 32.5t-98.5 59t-106.5 92.5q-121 -70 -307 -70q-80 0 -138.5 42t-58.5 107.5zM111 117 q0 -41 38.5 -62.5t92.5 -21.5q129 0 192 100q-100 68 -192 68q-53 0 -92 -21.5t-39 -62.5z" />
<glyph unicode="&#xa4;" horiz-adv-x="1204" d="M219 512q0 137 84 240l-53 55l90 90l59 -59q92 57 203 57q137 0 240 -84l86 86l90 -90l-90 -92q57 -92 57 -203t-57 -203l90 -92l-90 -90l-86 86q-102 -84 -240 -84q-111 0 -203 57l-59 -59l-90 90l53 55q-84 103 -84 240zM346 512q0 -106 75 -181t181.5 -75t181 75 t74.5 181t-74.5 181t-181 75t-181.5 -75t-75 -181z" />
<glyph unicode="&#xa5;" horiz-adv-x="1363" d="M23 1368v66h704v-66h-135q2 -111 57 -209q82 -154 123 -287h74l31 78q47 109 120 224q86 125 86 194h-149v66h407v-66h-100q-195 -195 -305 -444l-21 -52h162v-65h-184q-47 -137 -55 -262h239v-66h-241v-2v-125q0 -145 24 -286h135v-66h-626v66h135q25 141 24 286v125v2 h-241v66h239q-8 125 -55 262h-184v65h157q-27 68 -65 140q-109 199 -266 356h-90zM791 807l16 -66l16 66h-32z" />
<glyph unicode="&#xa6;" horiz-adv-x="307" d="M90 0v532h127v-532h-127zM90 901v533h127v-533h-127z" />
<glyph unicode="&#xa7;" horiz-adv-x="942" d="M45 819q0 201 127 373t299 172q129 0 203 -25.5t174 -107.5v-133h-133q0 86 -73 143t-171 57q-86 0 -166 -59q-39 -39 -39 -92q0 -55 23.5 -101.5t68.5 -82t89.5 -63.5t105.5 -62.5t98 -61.5q123 -90 184.5 -234.5t61.5 -310.5q0 -201 -127 -373.5t-299 -172.5 q-129 0 -202.5 26.5t-174.5 106.5v133h133q0 -86 73 -143.5t171 -57.5q86 0 166 60q39 39 39 92q0 68 -41 125t-91 90t-131 80t-122 77q-123 90 -184.5 234.5t-61.5 310.5zM133 901q0 -250 277 -467l77 -59q59 -45 84 -65.5t69 -63.5t63.5 -75t37 -78t17.5 -93q0 -20 -4 -57 q55 100 55 204q0 254 -277 467l-77 60q-59 45 -84 65.5t-69 63.5t-63.5 74.5t-37 77.5t-17.5 94q0 20 4 57q-55 -101 -55 -205z" />
<glyph unicode="&#xa8;" d="M170 1167v90l66 66h90l65 -66v-90l-65 -65h-90zM584 1167v90l65 66h90l66 -66v-90l-66 -65h-90z" />
<glyph unicode="&#xa9;" horiz-adv-x="1523" d="M45 717q0 297 210 507t507 210t507 -210t210 -507t-210 -507t-507 -210t-507 210t-210 507zM111 716.5q0 -270.5 190.5 -460.5t460.5 -190t460.5 190t190.5 460.5t-190.5 461t-460.5 190.5t-460.5 -190.5t-190.5 -461zM330 717q0 211 120.5 337t329.5 126q139 0 271 -64 v-178h-41q0 86 -68 143.5t-162 57.5q-125 0 -187.5 -124t-62.5 -298t62.5 -298t187.5 -124q94 0 162 57.5t68 141.5h41v-177q-131 -63 -271 -63q-209 0 -329.5 126t-120.5 337z" />
<glyph unicode="&#xaa;" horiz-adv-x="655" d="M45 737v66h565v-66h-565zM45 1063q0 84 56.5 129t150.5 45q76 0 137 -51v133q0 98 -80 98q-49 0 -78.5 -25.5t-29.5 -72.5h-119q0 70 66.5 103.5t160.5 33.5q102 0 165 -44t63 -132v-293q0 -29 17 -38t56 -9v-39h-88q-84 0 -119 47q-68 -61 -151 -61q-94 0 -150.5 46 t-56.5 130zM193 1063q0 -57 22.5 -97t65.5 -40q31 0 62.5 19.5t45.5 45.5v156q-41 51 -108 51q-43 0 -65.5 -40t-22.5 -95z" />
<glyph unicode="&#xab;" horiz-adv-x="698" d="M23 451l321 450l53 -39l-131 -411l131 -412l-53 -39zM279 451l321 450l53 -39l-131 -411l131 -412l-53 -39z" />
<glyph unicode="&#xac;" horiz-adv-x="1257" d="M90 705v126h1077v-575h-127v449h-950z" />
<glyph unicode="&#xad;" horiz-adv-x="610" d="M45 352v160h520v-160h-520z" />
<glyph unicode="&#xae;" horiz-adv-x="1523" d="M45 717q0 297 210 507t507 210t507 -210t210 -507t-210 -507t-507 -210t-507 210t-210 507zM111 716.5q0 -270.5 190.5 -460.5t460.5 -190t460.5 190t190.5 460.5t-190.5 461t-460.5 190.5t-460.5 -190.5t-190.5 -461zM399 305v39h78q14 74 15 166v422q0 92 -15 166h-78 v39h365q133 0 215 -52.5t82 -158.5q0 -158 -189 -197q139 -43 148 -154l12 -124q8 -115 74 -115h18v-39h-118q-74 0 -110 32.5t-42 106.5l-12 137q-6 72 -37 106t-96 34h-39v-203q0 -72 14 -166h80v-39h-365zM670 752h75q70 0 108 47t38 127q0 78 -38 125t-108 47h-61 q-14 -94 -14 -166v-180z" />
<glyph unicode="&#xaf;" d="M272 1180v65h482v-65h-482z" />
<glyph unicode="&#xb0;" horiz-adv-x="745" d="M90 969v233l166 166h233l166 -166v-233l-166 -166h-233zM156 995l127 -127h180l127 127v181l-127 127h-180l-127 -127v-181z" />
<glyph unicode="&#xb1;" horiz-adv-x="1140" d="M90 0h961v-127h-961v127zM90 449v126h416l2 418h127v-418h416v-126h-416v-334h-129l2 334h-418z" />
<glyph unicode="&#xb2;" horiz-adv-x="700" d="M66 811v88l284 246q86 72 86 278q0 72 -31.5 124t-89 52t-90 -35.5t-32.5 -97.5q0 -41 16 -86h-129q-14 41 -14 86q0 80 74.5 129.5t174.5 49.5q121 0 210 -60.5t89 -161.5q0 -178 -221 -329l-166 -113h252q43 0 74 28.5t39 71.5h43l-43 -270h-526z" />
<glyph unicode="&#xb3;" horiz-adv-x="700" d="M41 991h170q0 -82 30.5 -116.5t108.5 -34.5q131 0 131 198q0 197 -131 197h-131v45h109q109 0 108.5 159.5t-108.5 159.5q-47 0 -80 -33.5t-33 -80.5h-152q0 80 78 120t187 40q129 0 207.5 -50.5t78.5 -154.5q0 -66 -42 -117t-107 -63q82 -10 137 -74t55 -148 q0 -119 -85 -180t-222 -61q-127 0 -218 50t-91 144z" />
<glyph unicode="&#xb4;" d="M383 1047q139 135 164 329h221v-61l-268 -268h-117z" />
<glyph unicode="&#xb5;" horiz-adv-x="1089" d="M90 -418v1319h246v-600q0 -74 31.5 -126t89.5 -52q84 0 149 53q-6 25 -6 49v676h246v-676q0 -127 53 -127q78 0 92 19l53 -37q-72 -104 -145 -105q-137 0 -229 88q-88 -104 -213 -104t-226 72q35 -248 129 -473z" />
<glyph unicode="&#xb6;" horiz-adv-x="950" d="M45 1075.5q0 145.5 91 252t226 106.5h543v-66h-135q-25 -141 -25 -287v-729q0 -145 25 -286h135v-66h-702v66h135q25 141 24 286v365q-135 0 -226 106.5t-91 252zM489 66h129v1302h-129v-1302z" />
<glyph unicode="&#xb7;" horiz-adv-x="425" d="M90 461v102l72 72h102l72 -72v-102l-72 -72h-102z" />
<glyph unicode="&#xb8;" d="M291 -385l31 57q86 -49 190 -49q29 0 44 25.5t15 60.5q0 86 -47 86q-25 0 -47 -12l-63 20l65 209h70l-45 -141q49 12 102 12q57 0 93 -48t36 -114q0 -76 -66.5 -119.5t-156.5 -43.5q-117 0 -221 57z" />
<glyph unicode="&#xb9;" horiz-adv-x="700" d="M127 811v45h106q14 78 15 172v385q0 47 -2 70q-49 -12 -101 -13v46q152 0 230 122l57 7q-14 -137 -14 -232v-385q0 -76 14 -172h107v-45h-412z" />
<glyph unicode="&#xba;" horiz-adv-x="675" d="M45 737v66h586v-66h-586zM45 1171.5q0 131.5 79 208t214 76.5t214 -76.5t79 -208t-79 -208t-214 -76.5t-214 76.5t-79 208zM201 1171.5q0 -114.5 28.5 -180t108.5 -65.5t108.5 65.5t28.5 180t-28.5 180t-108.5 65.5t-108.5 -65.5t-28.5 -180z" />
<glyph unicode="&#xbb;" horiz-adv-x="698" d="M45 39l131 412l-131 411l53 39l322 -450l-322 -451zM301 39l131 412l-131 411l53 39l322 -450l-322 -451z" />
<glyph unicode="&#xbc;" horiz-adv-x="1591" d="M27 614v45h106q14 78 14 172v386q0 47 -2 69q-49 -12 -100 -12v45q152 0 229 123l58 6q-14 -137 -15 -231v-386q0 -76 15 -172h106v-45h-411zM342 -25l805 1508h115l-805 -1508h-115zM868 231v68l459 520h84q-14 -80 -14 -172v-325h149v-91h-149v-14q0 -94 14 -172h82 v-45h-363v45h82q14 78 15 172v14h-359zM946 322h281v327z" />
<glyph unicode="&#xbd;" horiz-adv-x="1591" d="M27 614v45h106q14 78 14 172v386q0 47 -2 69q-49 -12 -100 -12v45q152 0 229 123l58 6q-14 -137 -15 -231v-386q0 -76 15 -172h106v-45h-411zM262 -25l805 1508h115l-805 -1508h-115zM977 0v88l285 246q86 72 86 278q0 72 -33 124t-90 52q-55 0 -88 -35.5t-33 -97.5 q0 -45 14 -86h-127q-14 41 -14 86q0 80 73.5 129.5t174.5 49.5q121 0 210 -60.5t89 -161.5q0 -180 -219 -329l-166 -113h250q43 0 74.5 28.5t37.5 71.5h45l-45 -270h-524z" />
<glyph unicode="&#xbe;" horiz-adv-x="1591" d="M45 795h170q0 -82 30.5 -117t108.5 -35q131 0 131 199q0 197 -131 196h-131v45h109q109 0 108.5 160t-108.5 160q-47 0 -80 -34t-33 -81h-151q0 80 77.5 120t186.5 40q129 0 207.5 -50t78.5 -155q0 -66 -41.5 -117t-107.5 -63q82 -10 137.5 -73.5t55.5 -147.5 q0 -119 -85 -180.5t-223 -61.5q-127 0 -218 50.5t-91 144.5zM422 -25l803 1508h116l-804 -1508h-115zM868 231v68l459 520h84q-14 -80 -14 -172v-325h149v-91h-149v-14q0 -94 14 -172h82v-45h-363v45h82q14 78 15 172v14h-359zM946 322h281v327z" />
<glyph unicode="&#xbf;" horiz-adv-x="1032" d="M90 -246q0 90 68.5 166t149.5 124t149.5 124t68.5 166v190h66v-190q0 -164 -123 -326l-44 -56q-36 -46 -49.5 -65.5t-28.5 -58.5t-15 -74q0 -92 66.5 -156.5t160.5 -64.5q92 0 145.5 87t53.5 206h184q0 -102 -18 -152q-37 -102 -138.5 -154t-226.5 -52q-193 0 -331 72.5 t-138 213.5zM436 727v102l72 72h102l72 -72v-102l-72 -72h-102z" />
<glyph unicode="&#xc0;" horiz-adv-x="1329" d="M14 0v66h109q68 131 119 286l264 795q51 152 80 315h102q39 -166 92 -315l293 -795q51 -137 131 -286h109v-66h-561v66h108q-23 123 -80 286l-53 142h-369l-47 -142q-51 -154 -69 -286h106v-66h-334zM381 559h321l-170 461zM381 1778v65h231q27 -174 154 -280h-133z" />
<glyph unicode="&#xc1;" horiz-adv-x="1329" d="M14 0v66h109q68 131 119 286l264 795q51 152 80 315h102q39 -166 92 -315l293 -795q51 -137 131 -286h109v-66h-561v66h108q-23 123 -80 286l-53 142h-369l-47 -142q-51 -154 -69 -286h106v-66h-334zM381 559h321l-170 461zM508 1563q127 106 154 280h231v-65l-252 -215 h-133z" />
<glyph unicode="&#xc2;" horiz-adv-x="1329" d="M14 0v66h109q68 131 119 286l264 795q51 152 80 315h102q39 -166 92 -315l293 -795q51 -137 131 -286h109v-66h-561v66h108q-23 123 -80 286l-53 142h-369l-47 -142q-51 -154 -69 -286h106v-66h-334zM360 1565l154 278h246l153 -278h-211l-133 241l-133 -241h-76z M381 559h321l-170 461z" />
<glyph unicode="&#xc3;" horiz-adv-x="1329" d="M14 0v66h109q68 131 119 286l264 795q51 152 80 315h102q39 -166 92 -315l293 -795q51 -137 131 -286h109v-66h-561v66h108q-23 123 -80 286l-53 142h-369l-47 -142q-51 -154 -69 -286h106v-66h-334zM379 1624q168 199 213 199q29 0 74 -37t73 -37q51 0 109 74l47 -41 q-168 -199 -213 -199q-29 0 -74 37t-73 37q-51 0 -109 -74zM381 559h321l-170 461z" />
<glyph unicode="&#xc4;" horiz-adv-x="1329" d="M14 0v66h109q68 131 119 286l264 795q51 152 80 315h102q39 -166 92 -315l293 -795q51 -137 131 -286h109v-66h-561v66h108q-23 123 -80 286l-53 142h-369l-47 -142q-51 -154 -69 -286h106v-66h-334zM319 1659v90l66 66h90l66 -66v-90l-66 -66h-90zM381 559h321l-170 461 zM733 1659v90l66 66h90l65 -66v-90l-65 -66h-90z" />
<glyph unicode="&#xc5;" horiz-adv-x="1329" d="M14 0v66h109q68 131 119 286l264 795q51 152 80 315h102q39 -166 92 -315l293 -795q51 -137 131 -286h109v-66h-561v66h108q-23 123 -80 286l-53 142h-369l-47 -142q-51 -154 -69 -286h106v-66h-334zM381 559h321l-170 461zM449 1626v156l110 110h156l110 -110v-156 l-110 -110h-156zM514 1653l72 -72h102l72 72v102l-72 72h-102l-72 -72v-102z" />
<glyph unicode="&#xc6;" horiz-adv-x="1978" d="M14 0v66h136q94 147 161 286l379 795q51 106 92 221h-114v66h1161v-359h-66q0 119 -61.5 206t-159.5 87h-170q-25 -141 -24 -287v-299h215q39 0 68.5 23.5t29.5 60.5v52h65v-336h-65v51q0 37 -29.5 60.5t-68.5 23.5h-215v-365q0 -145 24 -286h275q98 0 159.5 87t61.5 205 h65v-358h-1052v66h135q25 141 24 286v191h-565l-92 -191q-70 -150 -113 -286h136v-66h-392zM506 608h534v473q0 145 -24 287h-84q-111 -98 -168 -221z" />
<glyph unicode="&#xc7;" horiz-adv-x="1253" d="M45 717q0 342 195.5 543.5t531.5 201.5q229 0 436 -100v-287h-65q0 137 -109.5 229.5t-261.5 92.5q-104 0 -185 -58.5t-127 -158t-68.5 -216t-22.5 -247.5t22.5 -248t68.5 -216t127 -157.5t185 -58.5q152 0 261.5 92t109.5 229h65v-286q-190 -94 -411 -101l-33 -100 q49 12 102 12q57 0 93 -48t36 -114q0 -76 -66.5 -119.5t-156.5 -43.5q-117 0 -221 57l31 57q86 -49 190 -49q27 0 43 25.5t16 60.5q0 86 -47 86q-27 0 -47 -12l-63 20l53 168q-317 14 -499.5 215t-182.5 531z" />
<glyph unicode="&#xc8;" horiz-adv-x="1142" d="M45 0v66h135q25 141 25 286v729q0 145 -25 287h-135v66h948v-359h-65q0 119 -61.5 206t-159.5 87h-170q-25 -141 -25 -287v-299h215q41 0 69.5 23.5t28.5 60.5v52h66v-336h-66v51q0 37 -28.5 60.5t-69.5 23.5h-215v-365q0 -145 25 -286h274q98 0 159.5 87t61.5 205h66 v-358h-1053zM297 1778v65h231q27 -174 154 -280h-133z" />
<glyph unicode="&#xc9;" horiz-adv-x="1142" d="M45 0v66h135q25 141 25 286v729q0 145 -25 287h-135v66h948v-359h-65q0 119 -61.5 206t-159.5 87h-170q-25 -141 -25 -287v-299h215q41 0 69.5 23.5t28.5 60.5v52h66v-336h-66v51q0 37 -28.5 60.5t-69.5 23.5h-215v-365q0 -145 25 -286h274q98 0 159.5 87t61.5 205h66 v-358h-1053zM424 1563q127 106 154 280h231v-65l-252 -215h-133z" />
<glyph unicode="&#xca;" horiz-adv-x="1142" d="M45 0v66h135q25 141 25 286v729q0 145 -25 287h-135v66h948v-359h-65q0 119 -61.5 206t-159.5 87h-170q-25 -141 -25 -287v-299h215q41 0 69.5 23.5t28.5 60.5v52h66v-336h-66v51q0 37 -28.5 60.5t-69.5 23.5h-215v-365q0 -145 25 -286h274q98 0 159.5 87t61.5 205h66 v-358h-1053zM276 1565l154 278h246l153 -278h-211l-133 241l-133 -241h-76z" />
<glyph unicode="&#xcb;" horiz-adv-x="1142" d="M45 0v66h135q25 141 25 286v729q0 145 -25 287h-135v66h948v-359h-65q0 119 -61.5 206t-159.5 87h-170q-25 -141 -25 -287v-299h215q41 0 69.5 23.5t28.5 60.5v52h66v-336h-66v51q0 37 -28.5 60.5t-69.5 23.5h-215v-365q0 -145 25 -286h274q98 0 159.5 87t61.5 205h66 v-358h-1053zM236 1659v90l65 66h90l66 -66v-90l-66 -66h-90zM649 1659v90l66 66h90l65 -66v-90l-65 -66h-90z" />
<glyph unicode="&#xcc;" horiz-adv-x="716" d="M45 0v66h135q25 141 25 286v729q0 145 -25 287h-135v66h627v-66h-135q-25 -141 -25 -287v-729q0 -145 25 -286h135v-66h-627zM102 1778v65h232q27 -174 153 -280h-133z" />
<glyph unicode="&#xcd;" horiz-adv-x="716" d="M45 0v66h135q25 141 25 286v729q0 145 -25 287h-135v66h627v-66h-135q-25 -141 -25 -287v-729q0 -145 25 -286h135v-66h-627zM229 1563q127 106 154 280h231v-65l-252 -215h-133z" />
<glyph unicode="&#xce;" horiz-adv-x="716" d="M45 0v66h135q25 141 25 286v729q0 145 -25 287h-135v66h627v-66h-135q-25 -141 -25 -287v-729q0 -145 25 -286h135v-66h-627zM82 1565l154 278h245l154 -278h-211l-133 241l-133 -241h-76z" />
<glyph unicode="&#xcf;" horiz-adv-x="716" d="M41 1659v90l65 66h91l65 -66v-90l-65 -66h-91zM45 0v66h135q25 141 25 286v729q0 145 -25 287h-135v66h627v-66h-135q-25 -141 -25 -287v-729q0 -145 25 -286h135v-66h-627zM455 1659v90l65 66h90l66 -66v-90l-66 -66h-90z" />
<glyph unicode="&#xd0;" horiz-adv-x="1581" d="M45 0v66h135q25 141 25 286v332h-160v66h160v331q0 145 -25 287h-135v66h746q342 0 543.5 -191.5t201.5 -525.5t-201.5 -525.5t-543.5 -191.5h-746zM512 352q0 -145 25 -286h188q219 0 353 193.5t134 457.5t-134 457.5t-353 193.5h-188q-25 -141 -25 -287v-331h160v-66 h-160v-332z" />
<glyph unicode="&#xd1;" horiz-adv-x="1382" d="M45 0v66h135q25 141 25 286v729q0 145 -25 287h-135v66h541q57 -139 143 -287l406 -690v624q0 145 -25 287h-135v66h385v-66h-135q-25 -141 -25 -287v-1081h-153l-762 1298q-14 -100 -15 -217v-729q0 -145 25 -286h135v-66h-385zM444 1624q168 199 213 199q29 0 74 -37 t74 -37q51 0 108 74l48 -41q-168 -199 -213 -199q-29 0 -74 37t-74 37q-51 0 -108 -74z" />
<glyph unicode="&#xd2;" horiz-adv-x="1548" d="M45 717q0 342 196.5 543.5t532.5 201.5t532.5 -201.5t196.5 -543.5t-196.5 -544t-532.5 -202t-532.5 202t-196.5 544zM369 717q0 -131 23.5 -248t69.5 -216t127 -157.5t185.5 -58.5t185 58.5t127 157.5t70 216t23.5 248t-23.5 247.5t-70 216t-127 158t-185 58.5 t-185.5 -58.5t-127 -158t-69.5 -216t-23.5 -247.5zM518 1778v65h232q27 -174 153 -280h-133z" />
<glyph unicode="&#xd3;" horiz-adv-x="1548" d="M45 717q0 342 196.5 543.5t532.5 201.5t532.5 -201.5t196.5 -543.5t-196.5 -544t-532.5 -202t-532.5 202t-196.5 544zM369 717q0 -131 23.5 -248t69.5 -216t127 -157.5t185.5 -58.5t185 58.5t127 157.5t70 216t23.5 248t-23.5 247.5t-70 216t-127 158t-185 58.5 t-185.5 -58.5t-127 -158t-69.5 -216t-23.5 -247.5zM645 1563q127 106 154 280h231v-65l-252 -215h-133z" />
<glyph unicode="&#xd4;" horiz-adv-x="1548" d="M45 717q0 342 196.5 543.5t532.5 201.5t532.5 -201.5t196.5 -543.5t-196.5 -544t-532.5 -202t-532.5 202t-196.5 544zM369 717q0 -131 23.5 -248t69.5 -216t127 -157.5t185.5 -58.5t185 58.5t127 157.5t70 216t23.5 248t-23.5 247.5t-70 216t-127 158t-185 58.5 t-185.5 -58.5t-127 -158t-69.5 -216t-23.5 -247.5zM498 1565l153 278h246l154 -278h-211l-133 241l-134 -241h-75z" />
<glyph unicode="&#xd5;" horiz-adv-x="1548" d="M45 717q0 342 196.5 543.5t532.5 201.5t532.5 -201.5t196.5 -543.5t-196.5 -544t-532.5 -202t-532.5 202t-196.5 544zM369 717q0 -131 23.5 -248t69.5 -216t127 -157.5t185.5 -58.5t185 58.5t127 157.5t70 216t23.5 248t-23.5 247.5t-70 216t-127 158t-185 58.5 t-185.5 -58.5t-127 -158t-69.5 -216t-23.5 -247.5zM516 1624q168 199 213 199q29 0 74 -37t74 -37q51 0 108 74l47 -41q-168 -199 -213 -199q-29 0 -74 37t-73 37q-51 0 -109 -74z" />
<glyph unicode="&#xd6;" horiz-adv-x="1548" d="M45 717q0 342 196.5 543.5t532.5 201.5t532.5 -201.5t196.5 -543.5t-196.5 -544t-532.5 -202t-532.5 202t-196.5 544zM369 717q0 -131 23.5 -248t69.5 -216t127 -157.5t185.5 -58.5t185 58.5t127 157.5t70 216t23.5 248t-23.5 247.5t-70 216t-127 158t-185 58.5 t-185.5 -58.5t-127 -158t-69.5 -216t-23.5 -247.5zM457 1659v90l65 66h90l66 -66v-90l-66 -66h-90zM870 1659v90l66 66h90l66 -66v-90l-66 -66h-90z" />
<glyph unicode="&#xd7;" horiz-adv-x="1140" d="M90 121l391 391l-391 391l90 90l391 -391l390 391l90 -90l-392 -391l392 -391l-90 -90l-390 391l-391 -391z" />
<glyph unicode="&#xd8;" horiz-adv-x="1548" d="M23 0q0 170 110 322q-88 170 -88 395q0 342 196.5 543.5t532.5 201.5q358 0 557 -227q41 92 41 199h154q0 -172 -113 -322q90 -168 90 -395q0 -342 -196.5 -544t-532.5 -202q-362 0 -557 230q-41 -94 -41 -201h-153zM369 717q0 -80 10 -172q123 84 366 198 q258 119 406 252q-41 182 -135 292t-242 110q-104 0 -185 -58.5t-127 -158t-69.5 -216t-23.5 -247.5zM397 442q39 -182 133.5 -293.5t243.5 -111.5q104 0 185 58.5t127.5 157.5t70 216t23.5 248q0 92 -13 178q-127 -84 -393 -211q-242 -117 -377 -242z" />
<glyph unicode="&#xd9;" horiz-adv-x="1363" d="M23 1368v66h626v-66h-135q-25 -141 -25 -287v-729q0 -127 78 -219t193 -92q180 0 268 72.5t88 238.5v729q0 145 -24 287h-136v66h385v-66h-135q-25 -141 -24 -287v-729q0 -211 -123 -294t-377 -83q-225 0 -362.5 95.5t-137.5 281.5v729q0 145 -24 287h-135zM492 1778v65 h231q27 -174 154 -280h-134z" />
<glyph unicode="&#xda;" horiz-adv-x="1363" d="M23 1368v66h626v-66h-135q-25 -141 -25 -287v-729q0 -127 78 -219t193 -92q180 0 268 72.5t88 238.5v729q0 145 -24 287h-136v66h385v-66h-135q-25 -141 -24 -287v-729q0 -211 -123 -294t-377 -83q-225 0 -362.5 95.5t-137.5 281.5v729q0 145 -24 287h-135zM618 1563 q127 106 154 280h232v-65l-252 -215h-134z" />
<glyph unicode="&#xdb;" horiz-adv-x="1363" d="M23 1368v66h626v-66h-135q-25 -141 -25 -287v-729q0 -127 78 -219t193 -92q180 0 268 72.5t88 238.5v729q0 145 -24 287h-136v66h385v-66h-135q-25 -141 -24 -287v-729q0 -211 -123 -294t-377 -83q-225 0 -362.5 95.5t-137.5 281.5v729q0 145 -24 287h-135zM471 1565 l154 278h245l154 -278h-211l-133 241l-133 -241h-76z" />
<glyph unicode="&#xdc;" horiz-adv-x="1363" d="M23 1368v66h626v-66h-135q-25 -141 -25 -287v-729q0 -127 78 -219t193 -92q180 0 268 72.5t88 238.5v729q0 145 -24 287h-136v66h385v-66h-135q-25 -141 -24 -287v-729q0 -211 -123 -294t-377 -83q-225 0 -362.5 95.5t-137.5 281.5v729q0 145 -24 287h-135zM430 1659v90 l66 66h90l65 -66v-90l-65 -66h-90zM844 1659v90l65 66h90l66 -66v-90l-66 -66h-90z" />
<glyph unicode="&#xdd;" horiz-adv-x="1349" d="M14 1368v66h705v-66h-135q2 -111 57 -209q86 -158 133 -319l25 -99q23 96 69 209q47 109 121 224q86 125 86 194h-149v66h407v-66h-100q-195 -195 -305 -444q-100 -231 -101 -447v-125q0 -145 25 -286h135v-66h-627v66h136q25 141 24 286v125q0 262 -149 535 q-109 199 -267 356h-90zM545 1563q127 106 153 280h232v-65l-252 -215h-133z" />
<glyph unicode="&#xde;" horiz-adv-x="1228" d="M45 0v66h135q25 141 25 286v729q0 145 -25 287h-135v66h627v-66h-135q-25 -141 -25 -287h217q205 0 330 -94t125 -270t-125 -270.5t-330 -94.5h-217q0 -145 25 -286h135v-66h-627zM512 418h160q121 0 187.5 82t66.5 217t-66.5 217t-187.5 82h-160v-598z" />
<glyph unicode="&#xdf;" horiz-adv-x="1208" d="M45 0v66h98q25 141 25 286v484h-123v65h123v131q0 178 128 302t308 124q158 0 268.5 -52t110.5 -161q0 -76 -98.5 -191.5t-98.5 -191.5q0 -37 20.5 -69.5t41 -51t64.5 -50.5t59 -44q193 -154 192 -317q0 -145 -101 -250t-245 -105q-166 0 -264 131v254h65 q0 -131 50.5 -225t148.5 -94q70 0 118 54.5t48 129.5q0 29 -8 53.5t-32.5 51t-37 39t-51.5 42t-45 35.5q-178 145 -178 326q0 84 71.5 235.5t71.5 237.5q0 63 -50 105.5t-120 42.5q-109 0 -161 -107.5t-42 -253.5l13 -196v-484q0 -145 24 -286h90v-66h-483z" />
<glyph unicode="&#xe0;" horiz-adv-x="1009" d="M45 268.5q0 139.5 94 216t250 76.5q131 0 229 -86v221q0 74 -34.5 119t-98.5 45q-82 0 -132 -43t-50 -121h-197q0 115 112 172.5t267 57.5q170 0 274.5 -75t104.5 -220v-488q0 -47 30 -62t93 -15v-66h-147q-143 0 -199 80q-115 -104 -252 -105q-156 0 -250 77t-94 216.5z M229 1315v61h222q25 -195 163 -329h-116zM291 268q0 -92 38 -159.5t109 -67.5q51 0 103.5 31.5t76.5 77.5v260q-68 86 -180 86q-72 0 -109.5 -68t-37.5 -160z" />
<glyph unicode="&#xe1;" horiz-adv-x="1009" d="M45 268.5q0 139.5 94 216t250 76.5q131 0 229 -86v221q0 74 -34.5 119t-98.5 45q-82 0 -132 -43t-50 -121h-197q0 115 112 172.5t267 57.5q170 0 274.5 -75t104.5 -220v-488q0 -47 30 -62t93 -15v-66h-147q-143 0 -199 80q-115 -104 -252 -105q-156 0 -250 77t-94 216.5z M291 268q0 -92 38 -159.5t109 -67.5q51 0 103.5 31.5t76.5 77.5v260q-68 86 -180 86q-72 0 -109.5 -68t-37.5 -160zM356 1047q139 135 164 329h221v-61l-268 -268h-117z" />
<glyph unicode="&#xe2;" horiz-adv-x="1009" d="M45 268.5q0 139.5 94 216t250 76.5q131 0 229 -86v221q0 74 -34.5 119t-98.5 45q-82 0 -132 -43t-50 -121h-197q0 115 112 172.5t267 57.5q170 0 274.5 -75t104.5 -220v-488q0 -47 30 -62t93 -15v-66h-147q-143 0 -199 80q-115 -104 -252 -105q-156 0 -250 77t-94 216.5z M209 1049l153 327h246l154 -327h-203l-139 294l-139 -294h-72zM291 268q0 -92 38 -159.5t109 -67.5q51 0 103.5 31.5t76.5 77.5v260q-68 86 -180 86q-72 0 -109.5 -68t-37.5 -160z" />
<glyph unicode="&#xe3;" horiz-adv-x="1009" d="M45 268.5q0 139.5 94 216t250 76.5q131 0 229 -86v221q0 74 -34.5 119t-98.5 45q-82 0 -132 -43t-50 -121h-197q0 115 112 172.5t267 57.5q170 0 274.5 -75t104.5 -220v-488q0 -47 30 -62t93 -15v-66h-147q-143 0 -199 80q-115 -104 -252 -105q-156 0 -250 77t-94 216.5z M227 1133q168 199 213 198q29 0 74 -37t74 -37q51 0 108 74l47 -41q-168 -199 -213 -198q-29 0 -73.5 36.5t-73.5 36.5q-51 0 -109 -73zM291 268q0 -92 38 -159.5t109 -67.5q51 0 103.5 31.5t76.5 77.5v260q-68 86 -180 86q-72 0 -109.5 -68t-37.5 -160z" />
<glyph unicode="&#xe4;" horiz-adv-x="1009" d="M45 268.5q0 139.5 94 216t250 76.5q131 0 229 -86v221q0 74 -34.5 119t-98.5 45q-82 0 -132 -43t-50 -121h-197q0 115 112 172.5t267 57.5q170 0 274.5 -75t104.5 -220v-488q0 -47 30 -62t93 -15v-66h-147q-143 0 -199 80q-115 -104 -252 -105q-156 0 -250 77t-94 216.5z M168 1167v90l65 66h91l65 -66v-90l-65 -65h-91zM291 268q0 -92 38 -159.5t109 -67.5q51 0 103.5 31.5t76.5 77.5v260q-68 86 -180 86q-72 0 -109.5 -68t-37.5 -160zM582 1167v90l65 66h90l66 -66v-90l-66 -65h-90z" />
<glyph unicode="&#xe5;" horiz-adv-x="1009" d="M45 268.5q0 139.5 94 216t250 76.5q131 0 229 -86v221q0 74 -34.5 119t-98.5 45q-82 0 -132 -43t-50 -121h-197q0 115 112 172.5t267 57.5q170 0 274.5 -75t104.5 -220v-488q0 -47 30 -62t93 -15v-66h-147q-143 0 -199 80q-115 -104 -252 -105q-156 0 -250 77t-94 216.5z M291 268q0 -92 38 -159.5t109 -67.5q51 0 103.5 31.5t76.5 77.5v260q-68 86 -180 86q-72 0 -109.5 -68t-37.5 -160zM297 1135v155l111 111h155l111 -111v-155l-111 -111h-155zM362 1161l72 -71h103l71 71v103l-71 71h-103l-72 -71v-103z" />
<glyph unicode="&#xe6;" horiz-adv-x="1511" d="M45 268.5q0 139.5 94 216t250 76.5q131 0 229 -86v221q0 74 -34.5 119t-98.5 45q-82 0 -132 -43t-50 -121h-197q0 115 112 172.5t267 57.5q174 0 277 -76q106 76 262 76q182 0 312 -126t130 -306q-184 25 -368 24h-258v-67q0 -170 55 -289t174 -119q121 0 200 40t148 140 l49 -43q-102 -121 -192 -163t-250 -42q-207 0 -326 131q-127 -131 -309 -131q-156 0 -250 77t-94 216.5zM291 268q0 -92 38 -159.5t109 -67.5q51 0 103.5 31.5t76.5 77.5v260q-68 86 -180 86q-72 0 -109.5 -68t-37.5 -160zM842 584h366q0 276 -184 276q-100 0 -138 -71.5 t-44 -204.5z" />
<glyph unicode="&#xe7;" horiz-adv-x="978" d="M59 451q0 221 132.5 348t355.5 127q180 0 348 -66v-190h-123q0 82 -66.5 136t-158.5 54t-144.5 -59.5t-69 -142.5t-16.5 -207q0 -92 9.5 -159t33 -127.5t70.5 -92t117 -31.5q135 0 233.5 59.5t98.5 165.5h65v-143q-160 -137 -375 -148l-32 -104q49 12 102 12q57 0 93 -48 t36 -114q0 -76 -66.5 -119.5t-156.5 -43.5q-117 0 -221 57l30 57q86 -49 191 -49q29 0 44 25.5t15 60.5q0 86 -47 86q-25 0 -47 -12l-64 20l56 174q-205 12 -324 139.5t-119 334.5z" />
<glyph unicode="&#xe8;" horiz-adv-x="989" d="M59 450.5q0 217.5 118 346.5t325 129q182 0 312 -126t130 -306q-184 25 -369 24h-258v-67q0 -170 55.5 -289t174.5 -119q121 0 199.5 40t148.5 140l49 -43q-102 -121 -192 -163t-250 -42q-207 0 -325 129t-118 346.5zM246 1315v61h221q25 -195 164 -329h-117zM319 584 h367q0 276 -184 276q-100 0 -138.5 -71.5t-44.5 -204.5z" />
<glyph unicode="&#xe9;" horiz-adv-x="989" d="M59 450.5q0 217.5 118 346.5t325 129q182 0 312 -126t130 -306q-184 25 -369 24h-258v-67q0 -170 55.5 -289t174.5 -119q121 0 199.5 40t148.5 140l49 -43q-102 -121 -192 -163t-250 -42q-207 0 -325 129t-118 346.5zM319 584h367q0 276 -184 276q-100 0 -138.5 -71.5 t-44.5 -204.5zM373 1047q139 135 164 329h221v-61l-269 -268h-116z" />
<glyph unicode="&#xea;" horiz-adv-x="989" d="M59 450.5q0 217.5 118 346.5t325 129q182 0 312 -126t130 -306q-184 25 -369 24h-258v-67q0 -170 55.5 -289t174.5 -119q121 0 199.5 40t148.5 140l49 -43q-102 -121 -192 -163t-250 -42q-207 0 -325 129t-118 346.5zM225 1049l154 327h246l153 -327h-203l-139 294 l-139 -294h-72zM319 584h367q0 276 -184 276q-100 0 -138.5 -71.5t-44.5 -204.5z" />
<glyph unicode="&#xeb;" horiz-adv-x="989" d="M59 450.5q0 217.5 118 346.5t325 129q182 0 312 -126t130 -306q-184 25 -369 24h-258v-67q0 -170 55.5 -289t174.5 -119q121 0 199.5 40t148.5 140l49 -43q-102 -121 -192 -163t-250 -42q-207 0 -325 129t-118 346.5zM184 1167v90l66 66h90l66 -66v-90l-66 -65h-90z M319 584h367q0 276 -184 276q-100 0 -138.5 -71.5t-44.5 -204.5zM598 1167v90l66 66h90l65 -66v-90l-65 -65h-90z" />
<glyph unicode="&#xec;" horiz-adv-x="581" d="M35 1315v61h221q25 -195 164 -329h-117zM45 0v66h98q25 141 25 286v197q0 145 -25 287h-98v65q197 0 393 25q-25 -188 -24 -377v-197q0 -145 24 -286h99v-66h-492z" />
<glyph unicode="&#xed;" horiz-adv-x="581" d="M45 0v66h98q25 141 25 286v197q0 145 -25 287h-98v65q197 0 393 25q-25 -188 -24 -377v-197q0 -145 24 -286h99v-66h-492zM162 1047q139 135 164 329h221v-61l-268 -268h-117z" />
<glyph unicode="&#xee;" horiz-adv-x="581" d="M14 1049l154 327h246l153 -327h-202l-140 294l-139 -294h-72zM45 0v66h98q25 141 25 286v197q0 145 -25 287h-98v65q197 0 393 25q-25 -188 -24 -377v-197q0 -145 24 -286h99v-66h-492z" />
<glyph unicode="&#xef;" horiz-adv-x="581" d="M-27 1167v90l66 66h90l66 -66v-90l-66 -65h-90zM45 0v66h98q25 141 25 286v197q0 145 -25 287h-98v65q197 0 393 25q-25 -188 -24 -377v-197q0 -145 24 -286h99v-66h-492zM387 1167v90l66 66h90l65 -66v-90l-65 -65h-90z" />
<glyph unicode="&#xf0;" horiz-adv-x="1064" d="M45 450.5q0 221.5 132 348.5t355 127q76 0 148 -17q-55 150 -152 260l-196 -122l-35 57l186 115q-162 150 -372 149v66q262 0 481 -148l246 152l34 -58l-223 -137q172 -137 271.5 -346t99.5 -446q0 -221 -132 -348.5t-355.5 -127.5t-355.5 127t-132 348.5zM303 451 q0 -92 9.5 -159t33 -127.5t70.5 -92t116 -31.5q92 0 144.5 59.5t69 142.5t16.5 208q0 92 -9.5 158.5t-33 127t-70.5 92t-117 31.5q-92 0 -144 -59.5t-68.5 -142t-16.5 -207.5z" />
<glyph unicode="&#xf1;" horiz-adv-x="1187" d="M45 0v66h98q25 141 25 286v197q0 145 -25 287h-98v65q197 0 393 25l-24 -154q115 154 303 154t303 -154v-420q0 -145 24 -286h99v-66h-492v66h99q25 141 24 286v330q0 63 -25.5 108.5t-72.5 45.5q-86 0 -156.5 -48.5t-105.5 -125.5v-310q0 -145 24 -286h99v-66h-492z M336 1133q168 199 213 198q29 0 74 -37t73 -37q51 0 109 74l47 -41q-168 -199 -213 -198q-29 0 -74 36.5t-73 36.5q-51 0 -109 -73z" />
<glyph unicode="&#xf2;" horiz-adv-x="1079" d="M59 450.5q0 221.5 132.5 348.5t355.5 127t355 -127t132 -348.5t-132 -348.5t-355 -127t-355.5 127t-132.5 348.5zM291 1315v61h221q25 -195 164 -329h-117zM317 451q0 -92 9.5 -159t33 -127.5t70.5 -92t117 -31.5q92 0 144 59.5t68.5 142.5t16.5 208q0 92 -9 158.5 t-32.5 127t-71 92t-116.5 31.5q-92 0 -144.5 -59.5t-69 -142t-16.5 -207.5z" />
<glyph unicode="&#xf3;" horiz-adv-x="1079" d="M59 450.5q0 221.5 132.5 348.5t355.5 127t355 -127t132 -348.5t-132 -348.5t-355 -127t-355.5 127t-132.5 348.5zM317 451q0 -92 9.5 -159t33 -127.5t70.5 -92t117 -31.5q92 0 144 59.5t68.5 142.5t16.5 208q0 92 -9 158.5t-32.5 127t-71 92t-116.5 31.5 q-92 0 -144.5 -59.5t-69 -142t-16.5 -207.5zM418 1047q139 135 164 329h221v-61l-268 -268h-117z" />
<glyph unicode="&#xf4;" horiz-adv-x="1079" d="M59 450.5q0 221.5 132.5 348.5t355.5 127t355 -127t132 -348.5t-132 -348.5t-355 -127t-355.5 127t-132.5 348.5zM270 1049l154 327h246l153 -327h-202l-140 294l-139 -294h-72zM317 451q0 -92 9.5 -159t33 -127.5t70.5 -92t117 -31.5q92 0 144 59.5t68.5 142.5t16.5 208 q0 92 -9 158.5t-32.5 127t-71 92t-116.5 31.5q-92 0 -144.5 -59.5t-69 -142t-16.5 -207.5z" />
<glyph unicode="&#xf5;" horiz-adv-x="1079" d="M59 450.5q0 221.5 132.5 348.5t355.5 127t355 -127t132 -348.5t-132 -348.5t-355 -127t-355.5 127t-132.5 348.5zM289 1133q168 199 213 198q29 0 74 -37t73 -37q51 0 109 74l47 -41q-168 -199 -213 -198q-29 0 -74 36.5t-74 36.5q-51 0 -108 -73zM317 451 q0 -92 9.5 -159t33 -127.5t70.5 -92t117 -31.5q92 0 144 59.5t68.5 142.5t16.5 208q0 92 -9 158.5t-32.5 127t-71 92t-116.5 31.5q-92 0 -144.5 -59.5t-69 -142t-16.5 -207.5z" />
<glyph unicode="&#xf6;" horiz-adv-x="1079" d="M59 450.5q0 221.5 132.5 348.5t355.5 127t355 -127t132 -348.5t-132 -348.5t-355 -127t-355.5 127t-132.5 348.5zM229 1167v90l66 66h90l66 -66v-90l-66 -65h-90zM317 451q0 -92 9.5 -159t33 -127.5t70.5 -92t117 -31.5q92 0 144 59.5t68.5 142.5t16.5 208q0 92 -9 158.5 t-32.5 127t-71 92t-116.5 31.5q-92 0 -144.5 -59.5t-69 -142t-16.5 -207.5zM643 1167v90l66 66h90l65 -66v-90l-65 -65h-90z" />
<glyph unicode="&#xf7;" horiz-adv-x="1140" d="M90 449v126h961v-126h-961zM416 72v102l71 72h103l72 -72v-102l-72 -72h-103zM416 850v102l71 72h103l72 -72v-102l-72 -72h-103z" />
<glyph unicode="&#xf8;" horiz-adv-x="1064" d="M45 -25q0 113 68 209q-68 117 -68 267q0 221 132 348t355 127q215 0 345 -117q20 61 20 117h123q0 -109 -68 -207q68 -117 68 -268q0 -221 -132 -348.5t-356 -127.5q-215 0 -344 117q-20 -61 -20 -117h-123zM303 451q0 -59 2 -89q98 63 197 113q154 80 248 162 q-41 223 -218 223q-92 0 -144 -59.5t-68.5 -142t-16.5 -207.5zM315 270q39 -229 217 -229q92 0 144.5 59.5t69 142.5t16.5 208q0 66 -2 96q-53 -35 -228 -129q-129 -68 -217 -148z" />
<glyph unicode="&#xf9;" horiz-adv-x="1157" d="M14 836v65q197 0 394 25q-25 -188 -25 -377v-330q0 -63 25.5 -108t72.5 -45q86 0 157 48t105 126v309q0 145 -24 287h-98v65q197 0 393 25q-25 -188 -25 -377v-197q0 -145 25 -286h98v-66q-197 0 -393 -25l24 154q-115 -154 -303 -154t-303 154v420q0 145 -24 287h-99z M307 1315v61h221q25 -195 164 -329h-117z" />
<glyph unicode="&#xfa;" horiz-adv-x="1157" d="M14 836v65q197 0 394 25q-25 -188 -25 -377v-330q0 -63 25.5 -108t72.5 -45q86 0 157 48t105 126v309q0 145 -24 287h-98v65q197 0 393 25q-25 -188 -25 -377v-197q0 -145 25 -286h98v-66q-197 0 -393 -25l24 154q-115 -154 -303 -154t-303 154v420q0 145 -24 287h-99z M434 1047q139 135 164 329h221v-61l-268 -268h-117z" />
<glyph unicode="&#xfb;" horiz-adv-x="1157" d="M14 836v65q197 0 394 25q-25 -188 -25 -377v-330q0 -63 25.5 -108t72.5 -45q86 0 157 48t105 126v309q0 145 -24 287h-98v65q197 0 393 25q-25 -188 -25 -377v-197q0 -145 25 -286h98v-66q-197 0 -393 -25l24 154q-115 -154 -303 -154t-303 154v420q0 145 -24 287h-99z M287 1049l153 327h246l154 -327h-203l-139 294l-140 -294h-71z" />
<glyph unicode="&#xfc;" horiz-adv-x="1157" d="M14 836v65q197 0 394 25q-25 -188 -25 -377v-330q0 -63 25.5 -108t72.5 -45q86 0 157 48t105 126v309q0 145 -24 287h-98v65q197 0 393 25q-25 -188 -25 -377v-197q0 -145 25 -286h98v-66q-197 0 -393 -25l24 154q-115 -154 -303 -154t-303 154v420q0 145 -24 287h-99z M246 1167v90l65 66h90l66 -66v-90l-66 -65h-90zM659 1167v90l66 66h90l66 -66v-90l-66 -65h-90z" />
<glyph unicode="&#xfd;" horiz-adv-x="1091" d="M45 836v65q197 0 393 25q-25 -188 -24 -377v-330q0 -63 22.5 -108t67.5 -45q86 0 156.5 48t101.5 128v307q0 145 -25 287h-98v65q197 0 393 25q-25 -188 -24 -377v-369q0 -276 -184.5 -474t-448.5 -198q-129 0 -223.5 59.5t-94.5 162.5q0 168 248 282q-84 41 -137 117 v420q0 145 -25 287h-98zM205 -270q0 -66 50 -111t120 -45q141 0 262 68q39 20 64.5 55t38 66.5t18.5 87t7 87t-1 98t-2 93.5q-109 -154 -297 -154q-39 0 -86 11q-78 -31 -126 -100.5t-48 -155.5zM459 1047q139 135 164 329h221v-61l-269 -268h-116z" />
<glyph unicode="&#xfe;" horiz-adv-x="1150" d="M45 -377h98q25 141 25 287v1171q0 145 -25 287h-98v66q197 0 393 24q-25 -188 -24 -377v-254q98 98 237 99q211 0 333 -129t122 -346.5t-122 -346.5t-333 -129q-147 0 -237 105v-170q0 -145 24 -287h99v-65h-492v65zM414 254q0 -88 62.5 -150.5t150.5 -62.5 q70 0 114.5 31.5t67 92t31 127t8.5 159.5q0 410 -246 409q-123 0 -188 -102v-504z" />
<glyph unicode="&#xff;" horiz-adv-x="1091" d="M45 836v65q197 0 393 25q-25 -188 -24 -377v-330q0 -63 22.5 -108t67.5 -45q86 0 156.5 48t101.5 128v307q0 145 -25 287h-98v65q197 0 393 25q-25 -188 -24 -377v-369q0 -276 -184.5 -474t-448.5 -198q-129 0 -223.5 59.5t-94.5 162.5q0 168 248 282q-84 41 -137 117 v420q0 145 -25 287h-98zM205 -270q0 -66 50 -111t120 -45q141 0 262 68q39 20 64.5 55t38 66.5t18.5 87t7 87t-1 98t-2 93.5q-109 -154 -297 -154q-39 0 -86 11q-78 -31 -126 -100.5t-48 -155.5zM270 1167v90l66 66h90l66 -66v-90l-66 -65h-90zM684 1167v90l66 66h90l65 -66 v-90l-65 -65h-90z" />
<glyph unicode="&#x100;" horiz-adv-x="1329" d="M14 0v66h109q68 131 119 286l264 795q51 152 80 315h102q39 -166 92 -315l293 -795q51 -137 131 -286h109v-66h-561v66h108q-23 123 -80 286l-53 142h-369l-47 -142q-51 -154 -69 -286h106v-66h-334zM381 559h321l-170 461zM395 1671v66h482v-66h-482z" />
<glyph unicode="&#x101;" horiz-adv-x="1009" d="M45 268.5q0 139.5 94 216t250 76.5q131 0 229 -86v221q0 74 -34.5 119t-98.5 45q-82 0 -132 -43t-50 -121h-197q0 115 112 172.5t267 57.5q170 0 274.5 -75t104.5 -220v-488q0 -47 30 -62t93 -15v-66h-147q-143 0 -199 80q-115 -104 -252 -105q-156 0 -250 77t-94 216.5z M244 1180v65h481v-65h-481zM291 268q0 -92 38 -159.5t109 -67.5q51 0 103.5 31.5t76.5 77.5v260q-68 86 -180 86q-72 0 -109.5 -68t-37.5 -160z" />
<glyph unicode="&#x102;" horiz-adv-x="1329" d="M14 0v66h109q68 131 119 286l264 795q51 152 80 315h102q39 -166 92 -315l293 -795q51 -137 131 -286h109v-66h-561v66h108q-23 123 -80 286l-53 142h-369l-47 -142q-51 -154 -69 -286h106v-66h-334zM381 559h321l-170 461zM426 1835h82q0 -53 36 -83t93 -30t93 30t36 83 h82q0 -119 -54.5 -191.5t-156.5 -72.5t-156.5 72.5t-54.5 191.5z" />
<glyph unicode="&#x103;" horiz-adv-x="1009" d="M45 268.5q0 139.5 94 216t250 76.5q131 0 229 -86v221q0 74 -34.5 119t-98.5 45q-82 0 -132 -43t-50 -121h-197q0 115 112 172.5t267 57.5q170 0 274.5 -75t104.5 -220v-488q0 -47 30 -62t93 -15v-66h-147q-143 0 -199 80q-115 -104 -252 -105q-156 0 -250 77t-94 216.5z M274 1360h82q0 -57 35 -92t94.5 -35t94 35t34.5 92h82q0 -135 -51 -216t-159.5 -81t-160 81t-51.5 216zM291 268q0 -92 38 -159.5t109 -67.5q51 0 103.5 31.5t76.5 77.5v260q-68 86 -180 86q-72 0 -109.5 -68t-37.5 -160z" />
<glyph unicode="&#x104;" horiz-adv-x="1329" d="M14 0v66h109q68 131 119 286l264 795q51 152 80 315h102q39 -166 92 -315l293 -795q51 -137 131 -286h109v-66q-156 0 -228 -70q-63 -63 -63 -129q0 -63 35 -110t90 -47t98 32l39 -53q-90 -66 -205 -65q-98 0 -169.5 50t-71.5 132q0 80 73.5 147.5t178.5 112.5h-338v66 h108q-23 123 -80 286l-53 142h-369l-47 -142q-51 -154 -69 -286h106v-66h-334zM381 559h321l-170 461z" />
<glyph unicode="&#x105;" horiz-adv-x="1009" d="M45 268.5q0 139.5 94 216t250 76.5q131 0 229 -86v221q0 74 -34.5 119t-98.5 45q-82 0 -132 -43t-50 -121h-197q0 115 112 172.5t267 57.5q170 0 274.5 -75t104.5 -220v-488q0 -47 30 -62t93 -15v-66q-127 0 -199 -70q-63 -63 -63 -129q0 -63 35 -110t90 -47t98 32 l39 -53q-90 -66 -205 -65q-98 0 -169.5 50t-71.5 132t75.5 150.5t182.5 111.5q-113 14 -158 78q-115 -104 -252 -105q-156 0 -250 77t-94 216.5zM291 268q0 -92 38 -159.5t109 -67.5q51 0 103.5 31.5t76.5 77.5v260q-68 86 -180 86q-72 0 -109.5 -68t-37.5 -160z" />
<glyph unicode="&#x106;" horiz-adv-x="1253" d="M45 717q0 342 195.5 543.5t531.5 201.5q229 0 436 -100v-287h-65q0 137 -109.5 229.5t-261.5 92.5q-104 0 -185 -58.5t-127 -158t-68.5 -216t-22.5 -247.5t22.5 -248t68.5 -216t127 -157.5t185 -58.5q152 0 261.5 92t109.5 229h65v-286q-207 -100 -436 -101 q-336 0 -531.5 202t-195.5 544zM643 1563q127 106 154 280h231v-65l-252 -215h-133z" />
<glyph unicode="&#x107;" horiz-adv-x="989" d="M59 450.5q0 221.5 132.5 348.5t355.5 127q180 0 348 -66v-190h-123q0 82 -66.5 136t-158.5 54t-144.5 -59.5t-69 -142.5t-16.5 -207q0 -92 9.5 -159t33 -127.5t70.5 -92t117 -31.5q135 0 233.5 59.5t98.5 165.5h65v-143q-174 -147 -397 -147.5t-355.5 126.5t-132.5 348.5 zM418 1047q139 135 164 329h221v-61l-268 -268h-117z" />
<glyph unicode="&#x108;" horiz-adv-x="1253" d="M45 717q0 342 195.5 543.5t531.5 201.5q229 0 436 -100v-287h-65q0 137 -109.5 229.5t-261.5 92.5q-104 0 -185 -58.5t-127 -158t-68.5 -216t-22.5 -247.5t22.5 -248t68.5 -216t127 -157.5t185 -58.5q152 0 261.5 92t109.5 229h65v-286q-207 -100 -436 -101 q-336 0 -531.5 202t-195.5 544zM496 1565l153 278h246l154 -278h-211l-133 241l-134 -241h-75z" />
<glyph unicode="&#x109;" horiz-adv-x="989" d="M59 450.5q0 221.5 132.5 348.5t355.5 127q180 0 348 -66v-190h-123q0 82 -66.5 136t-158.5 54t-144.5 -59.5t-69 -142.5t-16.5 -207q0 -92 9.5 -159t33 -127.5t70.5 -92t117 -31.5q135 0 233.5 59.5t98.5 165.5h65v-143q-174 -147 -397 -147.5t-355.5 126.5t-132.5 348.5 zM270 1049l154 327h246l153 -327h-202l-140 294l-139 -294h-72z" />
<glyph unicode="&#x10a;" horiz-adv-x="1253" d="M45 717q0 342 195.5 543.5t531.5 201.5q229 0 436 -100v-287h-65q0 137 -109.5 229.5t-261.5 92.5q-104 0 -185 -58.5t-127 -158t-68.5 -216t-22.5 -247.5t22.5 -248t68.5 -216t127 -157.5t185 -58.5q152 0 261.5 92t109.5 229h65v-286q-207 -100 -436 -101 q-336 0 -531.5 202t-195.5 544zM649 1653v102l72 72h102l72 -72v-102l-72 -72h-102z" />
<glyph unicode="&#x10b;" horiz-adv-x="989" d="M59 450.5q0 221.5 132.5 348.5t355.5 127q180 0 348 -66v-190h-123q0 82 -66.5 136t-158.5 54t-144.5 -59.5t-69 -142.5t-16.5 -207q0 -92 9.5 -159t33 -127.5t70.5 -92t117 -31.5q135 0 233.5 59.5t98.5 165.5h65v-143q-174 -147 -397 -147.5t-355.5 126.5t-132.5 348.5 zM424 1161v103l72 71h102l72 -71v-103l-72 -71h-102z" />
<glyph unicode="&#x10c;" horiz-adv-x="1253" d="M45 717q0 342 195.5 543.5t531.5 201.5q229 0 436 -100v-287h-65q0 137 -109.5 229.5t-261.5 92.5q-104 0 -185 -58.5t-127 -158t-68.5 -216t-22.5 -247.5t22.5 -248t68.5 -216t127 -157.5t185 -58.5q152 0 261.5 92t109.5 229h65v-286q-207 -100 -436 -101 q-336 0 -531.5 202t-195.5 544zM496 1843h211l133 -244l133 244h76l-154 -278h-246z" />
<glyph unicode="&#x10d;" horiz-adv-x="989" d="M59 450.5q0 221.5 132.5 348.5t355.5 127q180 0 348 -66v-190h-123q0 82 -66.5 136t-158.5 54t-144.5 -59.5t-69 -142.5t-16.5 -207q0 -92 9.5 -159t33 -127.5t70.5 -92t117 -31.5q135 0 233.5 59.5t98.5 165.5h65v-143q-174 -147 -397 -147.5t-355.5 126.5t-132.5 348.5 zM270 1376h203l139 -297l140 297h71l-153 -327h-246z" />
<glyph unicode="&#x10e;" horiz-adv-x="1581" d="M45 0v66h135q25 141 25 286v729q0 145 -25 287h-135v66h746q342 0 543.5 -191.5t201.5 -525.5t-201.5 -525.5t-543.5 -191.5h-746zM449 1843h210l134 -244l133 244h75l-153 -278h-246zM512 352q0 -145 25 -286h188q219 0 353 193.5t134 457.5t-134 457.5t-353 193.5h-188 q-25 -141 -25 -287v-729z" />
<glyph unicode="&#x10f;" horiz-adv-x="1273" d="M45 450.5q0 217.5 122 346.5t333 129q139 0 237 -99v254q0 145 -24 287h-99v66q197 0 394 24q-25 -188 -25 -377v-729q0 -145 25 -286h98v-66q-190 0 -381 -25l12 105q-94 -104 -237 -105q-211 0 -333 129t-122 346.5zM303 451q0 -410 246 -410q80 0 134 63.5t54 149.5 v504q-80 102 -213 102q-70 0 -114.5 -31.5t-67.5 -92t-31 -127t-8 -158.5zM1053 1278v90l65 66h90l66 -66v-90q0 -152 -96 -274l-52 40q45 70 62 168h-70z" />
<glyph unicode="&#x110;" horiz-adv-x="1581" d="M45 0v66h135q25 141 25 286v332h-160v66h160v331q0 145 -25 287h-135v66h746q342 0 543.5 -191.5t201.5 -525.5t-201.5 -525.5t-543.5 -191.5h-746zM512 352q0 -145 25 -286h188q219 0 353 193.5t134 457.5t-134 457.5t-353 193.5h-188q-25 -141 -25 -287v-331h160v-66 h-160v-332z" />
<glyph unicode="&#x111;" horiz-adv-x="1165" d="M59 450.5q0 217.5 122 346.5t333 129q139 0 238 -99v254v21h-213v65h211q-8 119 -23 201h-98v66q197 0 393 24q-20 -154 -23 -291h121v-65h-123v-21v-729q0 -145 25 -286h98v-66q-190 0 -381 -25l13 105q-94 -104 -238 -105q-211 0 -333 129t-122 346.5zM317 451 q0 -410 246 -410q80 0 134.5 63.5t54.5 149.5v504q-80 102 -213 102q-70 0 -115 -31.5t-67.5 -92t-31 -127t-8.5 -158.5z" />
<glyph unicode="&#x112;" horiz-adv-x="1142" d="M45 0v66h135q25 141 25 286v729q0 145 -25 287h-135v66h948v-359h-65q0 119 -61.5 206t-159.5 87h-170q-25 -141 -25 -287v-299h215q41 0 69.5 23.5t28.5 60.5v52h66v-336h-66v51q0 37 -28.5 60.5t-69.5 23.5h-215v-365q0 -145 25 -286h274q98 0 159.5 87t61.5 205h66 v-358h-1053zM311 1671v66h482v-66h-482z" />
<glyph unicode="&#x113;" horiz-adv-x="989" d="M59 450.5q0 217.5 118 346.5t325 129q182 0 312 -126t130 -306q-184 25 -369 24h-258v-67q0 -170 55.5 -289t174.5 -119q121 0 199.5 40t148.5 140l49 -43q-102 -121 -192 -163t-250 -42q-207 0 -325 129t-118 346.5zM260 1180v65h481v-65h-481zM319 584h367 q0 276 -184 276q-100 0 -138.5 -71.5t-44.5 -204.5z" />
<glyph unicode="&#x114;" horiz-adv-x="1142" d="M45 0v66h135q25 141 25 286v729q0 145 -25 287h-135v66h948v-359h-65q0 119 -61.5 206t-159.5 87h-170q-25 -141 -25 -287v-299h215q41 0 69.5 23.5t28.5 60.5v52h66v-336h-66v51q0 37 -28.5 60.5t-69.5 23.5h-215v-365q0 -145 25 -286h274q98 0 159.5 87t61.5 205h66 v-358h-1053zM342 1835h82q0 -53 36 -83t93 -30t93 30t36 83h82q0 -119 -54.5 -191.5t-156.5 -72.5t-156.5 72.5t-54.5 191.5z" />
<glyph unicode="&#x115;" horiz-adv-x="989" d="M59 450.5q0 217.5 118 346.5t325 129q182 0 312 -126t130 -306q-184 25 -369 24h-258v-67q0 -170 55.5 -289t174.5 -119q121 0 199.5 40t148.5 140l49 -43q-102 -121 -192 -163t-250 -42q-207 0 -325 129t-118 346.5zM291 1360h82q0 -57 34.5 -92t94 -35t94.5 35t35 92 h82q0 -135 -51.5 -216t-160 -81t-159.5 81t-51 216zM319 584h367q0 276 -184 276q-100 0 -138.5 -71.5t-44.5 -204.5z" />
<glyph unicode="&#x116;" horiz-adv-x="1142" d="M45 0v66h135q25 141 25 286v729q0 145 -25 287h-135v66h948v-359h-65q0 119 -61.5 206t-159.5 87h-170q-25 -141 -25 -287v-299h215q41 0 69.5 23.5t28.5 60.5v52h66v-336h-66v51q0 37 -28.5 60.5t-69.5 23.5h-215v-365q0 -145 25 -286h274q98 0 159.5 87t61.5 205h66 v-358h-1053zM430 1653v102l72 72h102l72 -72v-102l-72 -72h-102z" />
<glyph unicode="&#x117;" horiz-adv-x="989" d="M59 450.5q0 217.5 118 346.5t325 129q182 0 312 -126t130 -306q-184 25 -369 24h-258v-67q0 -170 55.5 -289t174.5 -119q121 0 199.5 40t148.5 140l49 -43q-102 -121 -192 -163t-250 -42q-207 0 -325 129t-118 346.5zM319 584h367q0 276 -184 276q-100 0 -138.5 -71.5 t-44.5 -204.5zM379 1161v103l72 71h102l72 -71v-103l-72 -71h-102z" />
<glyph unicode="&#x118;" horiz-adv-x="1142" d="M45 0v66h135q25 141 25 286v729q0 145 -25 287h-135v66h948v-359h-65q0 119 -61.5 206t-159.5 87h-170q-25 -141 -25 -287v-299h215q41 0 69.5 23.5t28.5 60.5v52h66v-336h-66v51q0 37 -28.5 60.5t-69.5 23.5h-215v-365q0 -145 25 -286h274q98 0 159.5 87t61.5 205h66 v-358h-54q-100 0 -174 -70q-63 -63 -63 -129q0 -63 35 -110t90 -47t98 32l39 -53q-90 -66 -205 -65q-98 0 -169.5 50t-71.5 132q0 80 73.5 147.5t177.5 112.5h-829z" />
<glyph unicode="&#x119;" horiz-adv-x="989" d="M59 450.5q0 217.5 118 346.5t325 129q182 0 312 -126t130 -306q-184 25 -369 24h-258v-67q0 -170 55.5 -289t174.5 -119q121 0 199.5 40t148.5 140l49 -43q-84 -100 -153 -141q-133 -84 -158 -109q-63 -59 -64 -129q0 -63 35 -110t90.5 -47t98.5 32l38 -53 q-90 -66 -204 -65q-98 0 -170 50t-72 132q0 133 205 240q-27 -4 -88 -5q-207 0 -325 129t-118 346.5zM319 584h367q0 276 -184 276q-100 0 -138.5 -71.5t-44.5 -204.5z" />
<glyph unicode="&#x11a;" horiz-adv-x="1142" d="M45 0v66h135q25 141 25 286v729q0 145 -25 287h-135v66h948v-359h-65q0 119 -61.5 206t-159.5 87h-170q-25 -141 -25 -287v-299h215q41 0 69.5 23.5t28.5 60.5v52h66v-336h-66v51q0 37 -28.5 60.5t-69.5 23.5h-215v-365q0 -145 25 -286h274q98 0 159.5 87t61.5 205h66 v-358h-1053zM276 1843h211l134 -244l133 244h75l-153 -278h-246z" />
<glyph unicode="&#x11b;" horiz-adv-x="989" d="M59 450.5q0 217.5 118 346.5t325 129q182 0 312 -126t130 -306q-184 25 -369 24h-258v-67q0 -170 55.5 -289t174.5 -119q121 0 199.5 40t148.5 140l49 -43q-102 -121 -192 -163t-250 -42q-207 0 -325 129t-118 346.5zM225 1376h203l139 -297l140 297h71l-153 -327h-246z M319 584h367q0 276 -184 276q-100 0 -138.5 -71.5t-44.5 -204.5z" />
<glyph unicode="&#x11c;" horiz-adv-x="1538" d="M45 717q0 348 218 546.5t583 198.5q233 0 446 -100v-287h-65q0 137 -114 229.5t-267 92.5q-147 0 -259 -99.5t-165 -252t-53 -328.5t53 -328.5t164.5 -252t259.5 -99.5q111 0 203 57v142q0 145 -25 286h-135v66h627v-66h-136q-25 -141 -24 -286v-123q-205 -141 -510 -142 q-365 0 -583 199t-218 547zM569 1565l154 278h246l153 -278h-211l-133 241l-133 -241h-76z" />
<glyph unicode="&#x11d;" horiz-adv-x="1046" d="M59 -123h293v-65h-73q-25 -37 -25 -86q0 -127 276 -127q111 0 193 50t82 138q0 98 -75 143t-200 45q-229 0 -350 122t-121 354q0 227 103.5 351t310.5 124q92 0 166 -25h362v-108h-32q-78 59 -178 59h-52q150 -104 150 -311q0 -180 -113.5 -282.5t-302.5 -102.5 q-66 0 -121 36.5t-78 100.5q0 -131 61.5 -191.5t194.5 -60.5q106 0 182 -9t147 -35t106.5 -78t35.5 -132q0 -70 -40.5 -122t-110.5 -79.5t-148.5 -40t-171.5 -12.5q-258 0 -364.5 60.5t-106.5 259.5v24zM197 1049l153 327h246l154 -327h-203l-139 294l-140 -294h-71z M305 540.5q0 -153.5 34 -236.5t134 -83t135 84t35 235.5t-35 235.5t-135 84t-134 -83t-34 -236.5z" />
<glyph unicode="&#x11e;" horiz-adv-x="1538" d="M45 717q0 348 218 546.5t583 198.5q233 0 446 -100v-287h-65q0 137 -114 229.5t-267 92.5q-147 0 -259 -99.5t-165 -252t-53 -328.5t53 -328.5t164.5 -252t259.5 -99.5q111 0 203 57v142q0 145 -25 286h-135v66h627v-66h-136q-25 -141 -24 -286v-123q-205 -141 -510 -142 q-365 0 -583 199t-218 547zM635 1835h82q0 -53 35.5 -83t93 -30t93.5 30t36 83h82q0 -119 -54.5 -191.5t-157 -72.5t-156.5 72.5t-54 191.5z" />
<glyph unicode="&#x11f;" horiz-adv-x="1046" d="M59 -123h293v-65h-73q-25 -37 -25 -86q0 -127 276 -127q111 0 193 50t82 138q0 98 -75 143t-200 45q-229 0 -350 122t-121 354q0 227 103.5 351t310.5 124q92 0 166 -25h362v-108h-32q-78 59 -178 59h-52q150 -104 150 -311q0 -180 -113.5 -282.5t-302.5 -102.5 q-66 0 -121 36.5t-78 100.5q0 -131 61.5 -191.5t194.5 -60.5q106 0 182 -9t147 -35t106.5 -78t35.5 -132q0 -70 -40.5 -122t-110.5 -79.5t-148.5 -40t-171.5 -12.5q-258 0 -364.5 60.5t-106.5 259.5v24zM262 1360h82q0 -57 35 -92t94 -35t94 35t35 92h82q0 -135 -51 -216 t-159.5 -81t-160 81t-51.5 216zM305 540.5q0 -153.5 34 -236.5t134 -83t135 84t35 235.5t-35 235.5t-135 84t-134 -83t-34 -236.5z" />
<glyph unicode="&#x120;" horiz-adv-x="1538" d="M45 717q0 348 218 546.5t583 198.5q233 0 446 -100v-287h-65q0 137 -114 229.5t-267 92.5q-147 0 -259 -99.5t-165 -252t-53 -328.5t53 -328.5t164.5 -252t259.5 -99.5q111 0 203 57v142q0 145 -25 286h-135v66h627v-66h-136q-25 -141 -24 -286v-123q-205 -141 -510 -142 q-365 0 -583 199t-218 547zM723 1653v102l72 72h102l72 -72v-102l-72 -72h-102z" />
<glyph unicode="&#x121;" horiz-adv-x="1046" d="M59 -123h293v-65h-73q-25 -37 -25 -86q0 -127 276 -127q111 0 193 50t82 138q0 98 -75 143t-200 45q-229 0 -350 122t-121 354q0 227 103.5 351t310.5 124q92 0 166 -25h362v-108h-32q-78 59 -178 59h-52q150 -104 150 -311q0 -180 -113.5 -282.5t-302.5 -102.5 q-66 0 -121 36.5t-78 100.5q0 -131 61.5 -191.5t194.5 -60.5q106 0 182 -9t147 -35t106.5 -78t35.5 -132q0 -70 -40.5 -122t-110.5 -79.5t-148.5 -40t-171.5 -12.5q-258 0 -364.5 60.5t-106.5 259.5v24zM305 540.5q0 -153.5 34 -236.5t134 -83t135 84t35 235.5t-35 235.5 t-135 84t-134 -83t-34 -236.5zM350 1161v103l72 71h102l72 -71v-103l-72 -71h-102z" />
<glyph unicode="&#x122;" horiz-adv-x="1538" d="M45 717q0 348 218 546.5t583 198.5q233 0 446 -100v-287h-65q0 137 -114 229.5t-267 92.5q-147 0 -259 -99.5t-165 -252t-53 -328.5t53 -328.5t164.5 -252t259.5 -99.5q111 0 203 57v142q0 145 -25 286h-135v66h627v-66h-136q-25 -141 -24 -286v-123q-205 -141 -510 -142 q-365 0 -583 199t-218 547zM735 -229l66 65h90l65 -65v-90q0 -152 -96 -275l-51 41q45 70 61 168h-69l-66 66v90z" />
<glyph unicode="&#x123;" horiz-adv-x="1032" d="M45 -123h293v-65h-74q-25 -37 -24 -86q0 -127 276 -127q111 0 193 50t82 138q0 98 -75 143t-200 45q-229 0 -350 122t-121 354q0 227 103.5 351t310.5 124q92 0 166 -25h362v-108h-33q-78 59 -178 59h-51q150 -104 149 -311q0 -180 -113.5 -282.5t-301.5 -102.5 q-66 0 -121 36.5t-78 100.5q0 -131 61.5 -191.5t194.5 -60.5q106 0 182 -9t146.5 -35t106.5 -78t36 -132q0 -70 -41 -122t-110.5 -79.5t-148.5 -40t-171 -12.5q-258 0 -364.5 60.5t-106.5 259.5v24zM291 540.5q0 -153.5 33.5 -236.5t134 -83t135.5 84t35 235.5t-35 235.5 t-135.5 84t-134 -83t-33.5 -236.5zM348 1085v91q0 152 96 274l52 -41q-45 -70 -62 -168h70l65 -65v-91l-65 -65h-90z" />
<glyph unicode="&#x124;" horiz-adv-x="1613" d="M45 0v66h135q25 141 25 286v729q0 145 -25 287h-135v66h627v-66h-135q-25 -141 -25 -287v-299h590v299q0 145 -25 287h-135v66h627v-66h-135q-25 -141 -25 -287v-729q0 -145 25 -286h135v-66h-627v66h135q25 141 25 286v365h-590v-365q0 -145 25 -286h135v-66h-627z M530 1565l154 278h246l153 -278h-211l-133 241l-133 -241h-76z" />
<glyph unicode="&#x125;" horiz-adv-x="1187" d="M45 0v66h98q25 141 25 286v729q0 145 -25 287h-98v66q197 0 393 24q-25 -188 -24 -377v-309q115 154 303 154t303 -154v-420q0 -145 24 -286h99v-66h-492v66h99q25 141 24 286v330q0 63 -25.5 108.5t-72.5 45.5q-86 0 -156.5 -48.5t-105.5 -125.5v-310q0 -145 24 -286h99 v-66h-492zM272 1565l154 278h246l153 -278h-211l-133 241l-133 -241h-76z" />
<glyph unicode="&#x126;" horiz-adv-x="1613" d="M45 0v66h135q25 141 25 286v666h-160v65h160q0 143 -25 285h-135v66h627v-66h-135q-25 -141 -25 -285h590q0 143 -25 285h-135v66h627v-66h-135q-25 -141 -25 -285h160v-65h-160v-666q0 -145 25 -286h135v-66h-627v66h135q25 141 25 286v365h-590v-365q0 -145 25 -286 h135v-66h-627zM512 782h590v236h-590v-236z" />
<glyph unicode="&#x127;" horiz-adv-x="1187" d="M45 0v66h98q25 141 25 286v697h-123v65h123q-2 127 -25 254h-98v66q197 0 393 24q-20 -172 -24 -344h245v-65h-245v-277q115 154 303 154t303 -154v-420q0 -145 24 -286h99v-66h-492v66h99q25 141 24 286v330q0 63 -25.5 108.5t-72.5 45.5q-86 0 -156.5 -48.5 t-105.5 -125.5v-310q0 -145 24 -286h99v-66h-492z" />
<glyph unicode="&#x128;" horiz-adv-x="716" d="M45 0v66h135q25 141 25 286v729q0 145 -25 287h-135v66h627v-66h-135q-25 -141 -25 -287v-729q0 -145 25 -286h135v-66h-627zM100 1624q168 199 213 199q29 0 74 -37t74 -37q51 0 108 74l47 -41q-168 -199 -213 -199q-29 0 -73.5 37t-73.5 37q-51 0 -109 -74z" />
<glyph unicode="&#x129;" horiz-adv-x="581" d="M33 1133q168 199 213 198q29 0 74 -37t73 -37q51 0 109 74l47 -41q-168 -199 -213 -198q-29 0 -74 36.5t-74 36.5q-51 0 -108 -73zM45 0v66h98q25 141 25 286v197q0 145 -25 287h-98v65q197 0 393 25q-25 -188 -24 -377v-197q0 -145 24 -286h99v-66h-492z" />
<glyph unicode="&#x12a;" horiz-adv-x="716" d="M45 0v66h135q25 141 25 286v729q0 145 -25 287h-135v66h627v-66h-135q-25 -141 -25 -287v-729q0 -145 25 -286h135v-66h-627zM117 1671v66h481v-66h-481z" />
<glyph unicode="&#x12b;" horiz-adv-x="581" d="M45 0v66h98q25 141 25 286v197q0 145 -25 287h-98v65q197 0 393 25q-25 -188 -24 -377v-197q0 -145 24 -286h99v-66h-492zM49 1180v65h481v-65h-481z" />
<glyph unicode="&#x12c;" horiz-adv-x="716" d="M45 0v66h135q25 141 25 286v729q0 145 -25 287h-135v66h627v-66h-135q-25 -141 -25 -287v-729q0 -145 25 -286h135v-66h-627zM147 1835h82q0 -53 36 -83t93.5 -30t93 30t35.5 83h82q0 -119 -54 -191.5t-156.5 -72.5t-157 72.5t-54.5 191.5z" />
<glyph unicode="&#x12d;" horiz-adv-x="581" d="M45 0v66h98q25 141 25 286v197q0 145 -25 287h-98v65q197 0 393 25q-25 -188 -24 -377v-197q0 -145 24 -286h99v-66h-492zM80 1360h82q0 -57 34.5 -92t94 -35t94.5 35t35 92h82q0 -135 -51.5 -216t-160 -81t-159.5 81t-51 216z" />
<glyph unicode="&#x12e;" horiz-adv-x="716" d="M45 0v66h135q25 141 25 286v729q0 145 -25 287h-135v66h627v-66h-135q-25 -141 -25 -287v-729q0 -145 25 -286h135v-66q-156 0 -228 -70q-63 -63 -63 -129q0 -63 35 -110t90 -47t98 32l39 -53q-90 -66 -205 -65q-98 0 -169.5 50t-71.5 132q0 80 73.5 147.5t178.5 112.5 h-404z" />
<glyph unicode="&#x12f;" horiz-adv-x="581" d="M45 0v66h98q25 141 25 286v197q0 145 -25 287h-98v65q197 0 393 25q-25 -188 -24 -377v-197q0 -145 24 -286h99v-66q-127 0 -199 -70q-63 -63 -64 -129q0 -63 35 -110t90.5 -47t98.5 32l39 -53q-90 -66 -205 -65q-98 0 -170 50t-72 132q0 80 74 147.5t178 112.5h-297z M168 1161v103l72 71h102l72 -71v-103l-72 -71h-102z" />
<glyph unicode="&#x130;" horiz-adv-x="716" d="M45 0v66h135q25 141 25 286v729q0 145 -25 287h-135v66h627v-66h-135q-25 -141 -25 -287v-729q0 -145 25 -286h135v-66h-627zM236 1653v102l71 72h103l71 -72v-102l-71 -72h-103z" />
<glyph unicode="&#x131;" horiz-adv-x="581" d="M45 0v66h98q25 141 25 286v197q0 145 -25 287h-98v65q197 0 393 25q-25 -188 -24 -377v-197q0 -145 24 -286h99v-66h-492z" />
<glyph unicode="&#x134;" horiz-adv-x="956" d="M23 199v108h307v-135q0 -41 2 -65.5t15 -47t40 -22.5t40 22.5t15 47t2 65.5v909q0 145 -24 287h-135v66h626v-66h-135q-25 -141 -24 -287v-774q0 -158 -99.5 -247t-265.5 -89q-156 0 -226 44.5t-138 183.5zM322 1565l153 278h246l153 -278h-210l-134 241l-133 -241h-75z " />
<glyph unicode="&#x135;" horiz-adv-x="483" d="M-145 -199h122q0 -164 76 -163q115 0 115 229v682q0 145 -25 287h-98v65h492v-65h-99q-25 -141 -24 -287v-549q0 -176 -115 -302t-283 -126q-55 0 -99 31.5t-62 83.5v114zM14 1049l154 327h246l153 -327h-202l-140 294l-139 -294h-72z" />
<glyph unicode="&#x136;" horiz-adv-x="1386" d="M45 0v66h135q25 141 25 286v729q0 145 -25 287h-135v66h627v-66h-135q-25 -141 -25 -287v-299h51q98 0 181 50.5t130 136.5q33 57 68 207q16 74 51 192h-90v66h371v-66h-68q-119 0 -186 -217q-41 -141 -88 -217q-61 -98 -158 -158q182 -18 305 -99t135 -224l17 -195 q4 -45 9 -74.5t15.5 -63.5t32 -51.5t51.5 -17.5h33v-65h-205q-143 0 -202.5 52t-71.5 191l-21 244q-12 135 -52 189.5t-154 54.5h-154v-365q0 -145 25 -286h135v-66h-627zM582 -229l65 65h90l66 -65v-90q0 -152 -96 -275l-52 41q45 70 62 168h-70l-65 66v90z" />
<glyph unicode="&#x137;" horiz-adv-x="1114" d="M45 0v66h98q25 141 25 286v729q0 145 -25 287h-98v66q197 0 393 24q-25 -188 -24 -377v-544q47 0 94 24.5t75.5 51t73.5 73.5q80 88 80 150h-98v65h381v-65h-49q-51 0 -93 -22.5t-68 -49.5t-67 -78q-84 -102 -149 -151q285 -18 311 -228q2 -23 5 -64.5t7.5 -67 t12.5 -54.5t26.5 -42t47.5 -13h65v-66h-221q-68 0 -113 54.5t-61 133.5q-8 45 -12 95q-20 188 -125 188h-123v-119q0 -145 24 -286h99v-66h-492zM446 -229l66 65h90l66 -65v-90q0 -152 -97 -275l-51 41q45 70 62 168h-70l-66 66v90z" />
<glyph unicode="&#x139;" horiz-adv-x="1142" d="M45 0v66h135q25 141 25 286v729q0 145 -25 287h-135v66h627v-66h-135q-25 -141 -25 -287v-729q0 -145 25 -286h274q98 0 159.5 87t61.5 205h66v-358h-1053zM229 1563q127 106 154 280h231v-65l-252 -215h-133z" />
<glyph unicode="&#x13a;" horiz-adv-x="581" d="M45 0v66h98q25 141 25 286v729q0 145 -25 287h-98v66q197 0 393 24q-25 -188 -24 -377v-729q0 -145 24 -286h99v-66h-492zM178 1563q127 106 154 280h231v-65l-252 -215h-133z" />
<glyph unicode="&#x13b;" horiz-adv-x="1142" d="M45 0v66h135q25 141 25 286v729q0 145 -25 287h-135v66h627v-66h-135q-25 -141 -25 -287v-729q0 -145 25 -286h274q98 0 159.5 87t61.5 205h66v-358h-1053zM461 -229l65 65h90l66 -65v-90q0 -152 -96 -275l-51 41q45 70 61 168h-70l-65 66v90z" />
<glyph unicode="&#x13c;" horiz-adv-x="581" d="M45 0v66h98q25 141 25 286v729q0 145 -25 287h-98v66q197 0 393 24q-25 -188 -24 -377v-729q0 -145 24 -286h99v-66h-492zM180 -229l66 65h90l65 -65v-90q0 -152 -96 -275l-51 41q45 70 61 168h-69l-66 66v90z" />
<glyph unicode="&#x13d;" horiz-adv-x="1142" d="M45 0v66h135q25 141 25 286v729q0 145 -25 287h-135v66h627v-66h-135q-25 -141 -25 -287v-729q0 -145 25 -286h274q98 0 159.5 87t61.5 205h66v-358h-1053zM739 1278v90l66 66h90l66 -66v-90q0 -152 -97 -274l-51 40q45 70 61 168h-69z" />
<glyph unicode="&#x13e;" horiz-adv-x="704" d="M45 0v66h98q25 141 25 286v729q0 145 -25 287h-98v66q197 0 393 24q-25 -188 -24 -377v-729q0 -145 24 -286h99v-66h-492zM483 1278v90l66 66h90l66 -66v-90q0 -152 -97 -274l-51 40q45 70 61 168h-69z" />
<glyph unicode="&#x13f;" horiz-adv-x="1142" d="M45 0v66h135q25 141 25 286v729q0 145 -25 287h-135v66h627v-66h-135q-25 -141 -25 -287v-729q0 -145 25 -286h274q98 0 159.5 87t61.5 205h66v-358h-1053zM807 745v103l72 72h102l72 -72v-103l-72 -71h-102z" />
<glyph unicode="&#x140;" horiz-adv-x="667" d="M45 0v66h98q25 141 25 286v729q0 145 -25 287h-98v66q197 0 393 24q-25 -188 -24 -377v-729q0 -145 24 -286h99v-66h-492zM524 741v103l72 71h102l72 -71v-103l-72 -71h-102z" />
<glyph unicode="&#x141;" horiz-adv-x="1220" d="M0 358q0 125 66.5 168t216.5 62v493q0 145 -25 287h-135v66h627v-66h-136q-25 -141 -24 -287v-426q154 82 153 246h185q0 -129 -95.5 -219t-242.5 -123v-207q0 -145 24 -286h275q98 0 159.5 87t61.5 205h66v-358h-1053v66h135q25 141 25 286v180q-160 -33 -160 -174h-123 z" />
<glyph unicode="&#x142;" horiz-adv-x="847" d="M23 301q0 33 13 62.5t28.5 49t51.5 44t54 35t67.5 34t63.5 31.5v524q0 145 -25 287h-98v66q197 0 393 24q-25 -188 -24 -377v-391q70 43 96.5 94.5t26.5 141.5h155q0 -51 -21.5 -94.5t-69.5 -81t-84 -59t-103 -58.5v-281q0 -145 24 -286h99v-66h-492v66h98q25 141 25 286 v150q-123 -72 -123 -201h-155z" />
<glyph unicode="&#x143;" horiz-adv-x="1382" d="M45 0v66h135q25 141 25 286v729q0 145 -25 287h-135v66h541q57 -139 143 -287l406 -690v624q0 145 -25 287h-135v66h385v-66h-135q-25 -141 -25 -287v-1081h-153l-762 1298q-14 -100 -15 -217v-729q0 -145 25 -286h135v-66h-385zM573 1563q127 106 154 280h231v-65 l-251 -215h-134z" />
<glyph unicode="&#x144;" horiz-adv-x="1187" d="M45 0v66h98q25 141 25 286v197q0 145 -25 287h-98v65q197 0 393 25l-24 -154q115 154 303 154t303 -154v-420q0 -145 24 -286h99v-66h-492v66h99q25 141 24 286v330q0 63 -25.5 108.5t-72.5 45.5q-86 0 -156.5 -48.5t-105.5 -125.5v-310q0 -145 24 -286h99v-66h-492z M465 1047q139 135 164 329h221v-61l-268 -268h-117z" />
<glyph unicode="&#x145;" horiz-adv-x="1382" d="M45 0v66h135q25 141 25 286v729q0 145 -25 287h-135v66h541q57 -139 143 -287l406 -690v624q0 145 -25 287h-135v66h385v-66h-135q-25 -141 -25 -287v-1081h-153l-762 1298q-14 -100 -15 -217v-729q0 -145 25 -286h135v-66h-385zM592 -229l65 65h91l65 -65v-90 q0 -152 -96 -275l-51 41q45 70 61 168h-70l-65 66v90z" />
<glyph unicode="&#x146;" horiz-adv-x="1187" d="M45 0v66h98q25 141 25 286v197q0 145 -25 287h-98v65q197 0 393 25l-24 -154q115 154 303 154t303 -154v-420q0 -145 24 -286h99v-66h-492v66h99q25 141 24 286v330q0 63 -25.5 108.5t-72.5 45.5q-86 0 -156.5 -48.5t-105.5 -125.5v-310q0 -145 24 -286h99v-66h-492z M483 -229l66 65h90l66 -65v-90q0 -152 -97 -275l-51 41q45 70 61 168h-69l-66 66v90z" />
<glyph unicode="&#x147;" horiz-adv-x="1382" d="M45 0v66h135q25 141 25 286v729q0 145 -25 287h-135v66h541q57 -139 143 -287l406 -690v624q0 145 -25 287h-135v66h385v-66h-135q-25 -141 -25 -287v-1081h-153l-762 1298q-14 -100 -15 -217v-729q0 -145 25 -286h135v-66h-385zM426 1843h211l133 -244l133 244h76 l-154 -278h-245z" />
<glyph unicode="&#x148;" horiz-adv-x="1187" d="M45 0v66h98q25 141 25 286v197q0 145 -25 287h-98v65q197 0 393 25l-24 -154q115 154 303 154t303 -154v-420q0 -145 24 -286h99v-66h-492v66h99q25 141 24 286v330q0 63 -25.5 108.5t-72.5 45.5q-86 0 -156.5 -48.5t-105.5 -125.5v-310q0 -145 24 -286h99v-66h-492z M317 1376h203l139 -297l140 297h71l-153 -327h-246z" />
<glyph unicode="&#x14a;" horiz-adv-x="1382" d="M45 0v66h135q25 141 25 286v729q0 145 -25 287h-135v66h541q57 -139 143 -287l406 -690v624q0 145 -25 287h-135v66h385v-66h-135q-25 -141 -25 -287v-1216q0 -158 -99.5 -247t-264.5 -89q-156 0 -226.5 44t-138.5 183v109h307v-135q0 -41 2 -65.5t15.5 -47.5t40.5 -23 q94 0 152.5 81t58.5 190v135l-762 1298q-14 -100 -15 -217v-729q0 -145 25 -286h135v-66h-385z" />
<glyph unicode="&#x14b;" horiz-adv-x="1187" d="M45 0v66h98q25 141 25 286v197q0 145 -25 287h-98v65q197 0 393 25l-24 -154q115 154 303 154t303 -154v-772q0 -176 -114.5 -302t-282.5 -126q-55 0 -99.5 31.5t-62.5 83.5v114h123q0 -164 75 -163q115 0 115 229v815q0 63 -25.5 108.5t-72.5 45.5q-86 0 -156.5 -48.5 t-105.5 -125.5v-310q0 -145 24 -286h99v-66h-492z" />
<glyph unicode="&#x14c;" horiz-adv-x="1548" d="M45 717q0 342 196.5 543.5t532.5 201.5t532.5 -201.5t196.5 -543.5t-196.5 -544t-532.5 -202t-532.5 202t-196.5 544zM369 717q0 -131 23.5 -248t69.5 -216t127 -157.5t185.5 -58.5t185 58.5t127 157.5t70 216t23.5 248t-23.5 247.5t-70 216t-127 158t-185 58.5 t-185.5 -58.5t-127 -158t-69.5 -216t-23.5 -247.5zM532 1671v66h482v-66h-482z" />
<glyph unicode="&#x14d;" horiz-adv-x="1079" d="M59 450.5q0 221.5 132.5 348.5t355.5 127t355 -127t132 -348.5t-132 -348.5t-355 -127t-355.5 127t-132.5 348.5zM305 1180v65h481v-65h-481zM317 451q0 -92 9.5 -159t33 -127.5t70.5 -92t117 -31.5q92 0 144 59.5t68.5 142.5t16.5 208q0 92 -9 158.5t-32.5 127t-71 92 t-116.5 31.5q-92 0 -144.5 -59.5t-69 -142t-16.5 -207.5z" />
<glyph unicode="&#x14e;" horiz-adv-x="1548" d="M45 717q0 342 196.5 543.5t532.5 201.5t532.5 -201.5t196.5 -543.5t-196.5 -544t-532.5 -202t-532.5 202t-196.5 544zM369 717q0 -131 23.5 -248t69.5 -216t127 -157.5t185.5 -58.5t185 58.5t127 157.5t70 216t23.5 248t-23.5 247.5t-70 216t-127 158t-185 58.5 t-185.5 -58.5t-127 -158t-69.5 -216t-23.5 -247.5zM563 1835h82q0 -53 36 -83t93 -30t93 30t36 83h82q0 -119 -54 -191.5t-156.5 -72.5t-157 72.5t-54.5 191.5z" />
<glyph unicode="&#x14f;" horiz-adv-x="1079" d="M59 450.5q0 221.5 132.5 348.5t355.5 127t355 -127t132 -348.5t-132 -348.5t-355 -127t-355.5 127t-132.5 348.5zM317 451q0 -92 9.5 -159t33 -127.5t70.5 -92t117 -31.5q92 0 144 59.5t68.5 142.5t16.5 208q0 92 -9 158.5t-32.5 127t-71 92t-116.5 31.5 q-92 0 -144.5 -59.5t-69 -142t-16.5 -207.5zM336 1360h82q0 -57 34.5 -92t94 -35t94.5 35t35 92h82q0 -135 -51.5 -216t-160 -81t-159.5 81t-51 216z" />
<glyph unicode="&#x150;" horiz-adv-x="1548" d="M45 717q0 342 196.5 543.5t532.5 201.5t532.5 -201.5t196.5 -543.5t-196.5 -544t-532.5 -202t-532.5 202t-196.5 544zM369 717q0 -131 23.5 -248t69.5 -216t127 -157.5t185.5 -58.5t185 58.5t127 157.5t70 216t23.5 248t-23.5 247.5t-70 216t-127 158t-185 58.5 t-185.5 -58.5t-127 -158t-69.5 -216t-23.5 -247.5zM473 1563q121 109 143 280h215v-65l-235 -215h-123zM864 1563q123 109 142 280h217v-65l-236 -215h-123z" />
<glyph unicode="&#x151;" horiz-adv-x="1079" d="M59 450.5q0 221.5 132.5 348.5t355.5 127t355 -127t132 -348.5t-132 -348.5t-355 -127t-355.5 127t-132.5 348.5zM258 1047q127 135 152 329h206v-61l-251 -268h-107zM317 451q0 -92 9.5 -159t33 -127.5t70.5 -92t117 -31.5q92 0 144 59.5t68.5 142.5t16.5 208 q0 92 -9 158.5t-32.5 127t-71 92t-116.5 31.5q-92 0 -144.5 -59.5t-69 -142t-16.5 -207.5zM637 1047q127 135 154 329h204v-61l-250 -268h-108z" />
<glyph unicode="&#x152;" horiz-adv-x="1863" d="M45 717q0 342 196.5 543.5t532.5 201.5q39 0 115 -14t115 -14h710v-359h-65q0 119 -61.5 206t-160.5 87h-170q-25 -141 -24 -287v-299h215q41 0 69.5 23.5t28.5 60.5v52h66v-336h-66v51q0 37 -28.5 60.5t-69.5 23.5h-215v-365q0 -145 24 -286h275q98 0 159.5 87t61.5 205 h66v-358h-789q-43 0 -128 -14.5t-128 -14.5q-336 0 -532.5 202t-196.5 544zM369 717q0 -131 23.5 -248t69.5 -216t127 -157.5t185 -58.5q152 0 152 315v729q0 315 -152 316q-104 0 -185 -58.5t-127 -158t-69.5 -216t-23.5 -247.5z" />
<glyph unicode="&#x153;" horiz-adv-x="1705" d="M59 450.5q0 221.5 132.5 348.5t355.5 127q221 0 352 -125q119 125 320 125q182 0 312 -126t130 -306q-184 25 -369 24h-258v-67q0 -170 55.5 -289t174.5 -119q121 0 199.5 40t148.5 140l49 -43q-102 -121 -192.5 -163t-249.5 -42q-201 0 -320 125q-131 -125 -352 -125 q-223 0 -355.5 127t-132.5 348.5zM317 451q0 -92 9.5 -159t33 -127.5t70.5 -92t117 -31.5q92 0 144 59.5t68.5 142.5t16.5 208q0 92 -9 158.5t-32.5 127t-71 92t-116.5 31.5q-92 0 -144.5 -59.5t-69 -142t-16.5 -207.5zM1036 584h367q0 276 -184 276q-100 0 -138.5 -71.5 t-44.5 -204.5z" />
<glyph unicode="&#x154;" horiz-adv-x="1308" d="M45 0v66h135q25 141 25 286v729q0 145 -25 287h-135v66h627q231 0 371.5 -89.5t140.5 -275.5q0 -270 -324 -340q240 -74 256 -264l19 -215q16 -199 127 -199h32v-65h-204q-127 0 -188.5 56t-72.5 183l-20 238q-10 125 -63.5 182t-167.5 57h-66v-350q0 -145 25 -286h135 v-66h-627zM461 1563q127 106 153 280h232v-65l-252 -215h-133zM512 768h131q119 0 184.5 83t65.5 218t-65.5 217t-184.5 82h-106q-25 -141 -25 -287v-313z" />
<glyph unicode="&#x155;" horiz-adv-x="866" d="M45 0v66h98q25 141 25 286v197q0 145 -25 287h-98v65q197 0 393 25q-8 -55 -16 -166q27 66 92.5 116t128.5 50q78 0 133 -54.5t55 -132.5v-63h-221q0 37 -1 57.5t-5 49t-14 42t-29 13.5q-147 0 -147 -338v-148q0 -145 24 -286h148v-66h-541zM285 1047q139 135 164 329 h221v-61l-269 -268h-116z" />
<glyph unicode="&#x156;" horiz-adv-x="1308" d="M45 0v66h135q25 141 25 286v729q0 145 -25 287h-135v66h627q231 0 371.5 -89.5t140.5 -275.5q0 -270 -324 -340q240 -74 256 -264l19 -215q16 -199 127 -199h32v-65h-204q-127 0 -188.5 56t-72.5 183l-20 238q-10 125 -63.5 182t-167.5 57h-66v-350q0 -145 25 -286h135 v-66h-627zM479 -229l66 65h90l65 -65v-90q0 -152 -96 -275l-51 41q45 70 61 168h-69l-66 66v90zM512 768h131q119 0 184.5 83t65.5 218t-65.5 217t-184.5 82h-106q-25 -141 -25 -287v-313z" />
<glyph unicode="&#x157;" horiz-adv-x="866" d="M45 0v66h98q25 141 25 286v197q0 145 -25 287h-98v65q197 0 393 25q-8 -55 -16 -166q27 66 92.5 116t128.5 50q78 0 133 -54.5t55 -132.5v-63h-221q0 37 -1 57.5t-5 49t-14 42t-29 13.5q-147 0 -147 -338v-148q0 -145 24 -286h148v-66h-541zM205 -229l65 65h90l66 -65 v-90q0 -152 -96 -275l-51 41q45 70 61 168h-70l-65 66v90z" />
<glyph unicode="&#x158;" horiz-adv-x="1308" d="M45 0v66h135q25 141 25 286v729q0 145 -25 287h-135v66h627q231 0 371.5 -89.5t140.5 -275.5q0 -270 -324 -340q240 -74 256 -264l19 -215q16 -199 127 -199h32v-65h-204q-127 0 -188.5 56t-72.5 183l-20 238q-10 125 -63.5 182t-167.5 57h-66v-350q0 -145 25 -286h135 v-66h-627zM313 1843h211l133 -244l134 244h75l-153 -278h-246zM512 768h131q119 0 184.5 83t65.5 218t-65.5 217t-184.5 82h-106q-25 -141 -25 -287v-313z" />
<glyph unicode="&#x159;" horiz-adv-x="866" d="M45 0v66h98q25 141 25 286v197q0 145 -25 287h-98v65q197 0 393 25q-8 -55 -16 -166q27 66 92.5 116t128.5 50q78 0 133 -54.5t55 -132.5v-63h-221q0 37 -1 57.5t-5 49t-14 42t-29 13.5q-147 0 -147 -338v-148q0 -145 24 -286h148v-66h-541zM137 1376h203l139 -297 l139 297h72l-153 -327h-246z" />
<glyph unicode="&#x15a;" horiz-adv-x="1148" d="M45 72v286h66q0 -147 134 -234t318 -87q129 0 225.5 76.5t96.5 193.5q0 59 -30 105.5t-84 79t-110.5 55t-125.5 47.5l-21 6q-184 61 -305 183t-121 282q0 176 151.5 286.5t356.5 110.5q217 0 414 -100v-287h-66q0 135 -103.5 228.5t-244.5 93.5q-127 0 -220 -59.5 t-93 -159.5q0 -106 90 -171t239 -116q84 -29 148.5 -55.5t135.5 -67.5t117 -86t76.5 -106.5t30.5 -133.5q0 -203 -166 -337t-391 -134q-268 1 -518 101zM467 1563q127 106 154 280h231v-65l-252 -215h-133z" />
<glyph unicode="&#x15b;" horiz-adv-x="841" d="M45 41v254h66q0 -109 90 -181.5t213 -72.5q106 0 182 38t76 116q0 25 -8.5 44t-27 32.5t-34.5 22.5t-48 16l-50 11l-58 9q-39 6 -53 8q-135 23 -230 103.5t-95 195.5q0 125 102 207t244 82q160 0 303 -66v-190h-66q0 84 -70.5 137t-166.5 53q-86 0 -149.5 -39t-63.5 -106 q0 -35 18.5 -59.5t59 -39t70.5 -20.5t85 -14q158 -27 265.5 -106t107.5 -204q0 -133 -117 -215t-276 -82q-189 0 -369 66zM285 1047q139 135 164 329h221v-61l-269 -268h-116z" />
<glyph unicode="&#x15c;" horiz-adv-x="1148" d="M45 72v286h66q0 -147 134 -234t318 -87q129 0 225.5 76.5t96.5 193.5q0 59 -30 105.5t-84 79t-110.5 55t-125.5 47.5l-21 6q-184 61 -305 183t-121 282q0 176 151.5 286.5t356.5 110.5q217 0 414 -100v-287h-66q0 135 -103.5 228.5t-244.5 93.5q-127 0 -220 -59.5 t-93 -159.5q0 -106 90 -171t239 -116q84 -29 148.5 -55.5t135.5 -67.5t117 -86t76.5 -106.5t30.5 -133.5q0 -203 -166 -337t-391 -134q-268 1 -518 101zM319 1565l154 278h246l153 -278h-210l-134 241l-133 -241h-76z" />
<glyph unicode="&#x15d;" horiz-adv-x="841" d="M45 41v254h66q0 -109 90 -181.5t213 -72.5q106 0 182 38t76 116q0 25 -8.5 44t-27 32.5t-34.5 22.5t-48 16l-50 11l-58 9q-39 6 -53 8q-135 23 -230 103.5t-95 195.5q0 125 102 207t244 82q160 0 303 -66v-190h-66q0 84 -70.5 137t-166.5 53q-86 0 -149.5 -39t-63.5 -106 q0 -35 18.5 -59.5t59 -39t70.5 -20.5t85 -14q158 -27 265.5 -106t107.5 -204q0 -133 -117 -215t-276 -82q-189 0 -369 66zM137 1049l154 327h246l153 -327h-203l-139 294l-139 -294h-72z" />
<glyph unicode="&#x15e;" horiz-adv-x="1148" d="M45 72v286h66q0 -147 134 -234t318 -87q129 0 225.5 76.5t96.5 193.5q0 59 -30 105.5t-84 79t-110.5 55t-125.5 47.5l-21 6q-184 61 -305 183t-121 282q0 176 151.5 286.5t356.5 110.5q217 0 414 -100v-287h-66q0 135 -103.5 228.5t-244.5 93.5q-127 0 -220 -59.5 t-93 -159.5q0 -106 90 -171t239 -116q84 -29 148.5 -55.5t135.5 -67.5t117 -86t76.5 -106.5t30.5 -133.5q0 -197 -156.5 -329.5t-375.5 -141.5l-33 -100q49 12 102 12q57 0 93 -48t36 -114q0 -76 -66.5 -119.5t-156.5 -43.5q-117 0 -221 57l31 57q86 -49 190 -49 q27 0 43.5 25.5t16.5 60.5q0 86 -48 86q-27 0 -47 -12l-63 20l53 168q-250 11 -473 101z" />
<glyph unicode="&#x15f;" horiz-adv-x="841" d="M45 41v254h66q0 -109 90 -181.5t213 -72.5q106 0 182 38t76 116q0 25 -8.5 44t-27 32.5t-34.5 22.5t-48 16l-50 11l-58 9q-39 6 -53 8q-135 23 -230 103.5t-95 195.5q0 125 102 207t244 82q160 0 303 -66v-190h-66q0 84 -70.5 137t-166.5 53q-86 0 -149.5 -39t-63.5 -106 q0 -35 18.5 -59.5t59 -39t70.5 -20.5t85 -14q158 -27 265.5 -106t107.5 -204q0 -129 -108.5 -209.5t-262.5 -87.5l-33 -104q49 12 103 12q57 0 93 -48t36 -114q0 -76 -66.5 -119.5t-156.5 -43.5q-117 0 -222 57l31 57q86 -49 191 -49q27 0 43 25.5t16 60.5q0 86 -47 86 q-27 0 -47 -12l-64 20l56 172q-164 9 -324 66z" />
<glyph unicode="&#x160;" horiz-adv-x="1148" d="M45 72v286h66q0 -147 134 -234t318 -87q129 0 225.5 76.5t96.5 193.5q0 59 -30 105.5t-84 79t-110.5 55t-125.5 47.5l-21 6q-184 61 -305 183t-121 282q0 176 151.5 286.5t356.5 110.5q217 0 414 -100v-287h-66q0 135 -103.5 228.5t-244.5 93.5q-127 0 -220 -59.5 t-93 -159.5q0 -106 90 -171t239 -116q84 -29 148.5 -55.5t135.5 -67.5t117 -86t76.5 -106.5t30.5 -133.5q0 -203 -166 -337t-391 -134q-268 1 -518 101zM319 1843h211l134 -244l133 244h75l-153 -278h-246z" />
<glyph unicode="&#x161;" horiz-adv-x="841" d="M45 41v254h66q0 -109 90 -181.5t213 -72.5q106 0 182 38t76 116q0 25 -8.5 44t-27 32.5t-34.5 22.5t-48 16l-50 11l-58 9q-39 6 -53 8q-135 23 -230 103.5t-95 195.5q0 125 102 207t244 82q160 0 303 -66v-190h-66q0 84 -70.5 137t-166.5 53q-86 0 -149.5 -39t-63.5 -106 q0 -35 18.5 -59.5t59 -39t70.5 -20.5t85 -14q158 -27 265.5 -106t107.5 -204q0 -133 -117 -215t-276 -82q-189 0 -369 66zM137 1376h203l139 -297l139 297h72l-153 -327h-246z" />
<glyph unicode="&#x162;" horiz-adv-x="1355" d="M45 1075v359h1266v-359h-66q0 119 -61.5 206t-159.5 87h-168q-25 -141 -25 -287v-729q0 -145 25 -286h135v-66h-280l-41 -129q49 12 102 12q57 0 93 -48t36 -114q0 -76 -66.5 -119.5t-156.5 -43.5q-117 0 -221 57l30 57q86 -49 191 -49q27 0 43 25.5t16 60.5q0 86 -47 86 q-27 0 -47 -12l-63 20l61 197h-276v66h135q25 141 24 286v729q0 145 -24 287h-168q-98 0 -159.5 -87t-61.5 -206h-66z" />
<glyph unicode="&#x163;" horiz-adv-x="602" d="M45 836v65h98v123q29 0 99.5 48t81.5 75h65v-246h168v-65h-168v-607q0 -37 2 -59.5t7 -50t20.5 -40.5t38.5 -13q18 0 39.5 15t27.5 34h33v-66q-76 -63 -182 -74l-33 -104q49 12 102 12q57 0 93 -48t36 -114q0 -76 -66.5 -119.5t-156.5 -43.5q-117 0 -221 57l31 57 q86 -49 190 -49q27 0 43.5 25.5t16.5 60.5q0 86 -48 86q-27 0 -47 -12l-63 20l55 174q-76 10 -120 51.5t-44 110.5v697h-98z" />
<glyph unicode="&#x164;" horiz-adv-x="1355" d="M45 1075v359h1266v-359h-66q0 119 -61.5 206t-159.5 87h-168q-25 -141 -25 -287v-729q0 -145 25 -286h135v-66h-626v66h135q25 141 24 286v729q0 145 -24 287h-168q-98 0 -159.5 -87t-61.5 -206h-66zM401 1843h211l133 -244l134 244h75l-153 -278h-246z" />
<glyph unicode="&#x165;" horiz-adv-x="677" d="M45 836v65h98v123q29 0 99.5 48t81.5 75h65v-246h168v-65h-168v-607q0 -37 2 -59.5t7 -50t20.5 -40.5t38.5 -13q18 0 39.5 15t27.5 34h33v-66q-90 -74 -205 -74q-94 0 -151.5 42t-57.5 122v697h-98zM434 1221v90l66 65h90l65 -65v-90q0 -152 -96 -275l-51 41 q45 70 61 168h-69z" />
<glyph unicode="&#x168;" horiz-adv-x="1363" d="M23 1368v66h626v-66h-135q-25 -141 -25 -287v-729q0 -127 78 -219t193 -92q180 0 268 72.5t88 238.5v729q0 145 -24 287h-136v66h385v-66h-135q-25 -141 -24 -287v-729q0 -211 -123 -294t-377 -83q-225 0 -362.5 95.5t-137.5 281.5v729q0 145 -24 287h-135zM489 1624 q168 199 213 199q29 0 74 -37t74 -37q51 0 108 74l48 -41q-168 -199 -213 -199q-29 0 -74 37t-74 37q-51 0 -108 -74z" />
<glyph unicode="&#x169;" horiz-adv-x="1157" d="M14 836v65q197 0 394 25q-25 -188 -25 -377v-330q0 -63 25.5 -108t72.5 -45q86 0 157 48t105 126v309q0 145 -24 287h-98v65q197 0 393 25q-25 -188 -25 -377v-197q0 -145 25 -286h98v-66q-197 0 -393 -25l24 154q-115 -154 -303 -154t-303 154v420q0 145 -24 287h-99z M305 1133q168 199 213 198q29 0 74 -37t74 -37q51 0 108 74l47 -41q-168 -199 -213 -198q-29 0 -74 36.5t-73 36.5q-51 0 -109 -73z" />
<glyph unicode="&#x16a;" horiz-adv-x="1363" d="M23 1368v66h626v-66h-135q-25 -141 -25 -287v-729q0 -127 78 -219t193 -92q180 0 268 72.5t88 238.5v729q0 145 -24 287h-136v66h385v-66h-135q-25 -141 -24 -287v-729q0 -211 -123 -294t-377 -83q-225 0 -362.5 95.5t-137.5 281.5v729q0 145 -24 287h-135zM506 1671v66 h481v-66h-481z" />
<glyph unicode="&#x16b;" horiz-adv-x="1157" d="M14 836v65q197 0 394 25q-25 -188 -25 -377v-330q0 -63 25.5 -108t72.5 -45q86 0 157 48t105 126v309q0 145 -24 287h-98v65q197 0 393 25q-25 -188 -25 -377v-197q0 -145 25 -286h98v-66q-197 0 -393 -25l24 154q-115 -154 -303 -154t-303 154v420q0 145 -24 287h-99z M322 1180v65h481v-65h-481z" />
<glyph unicode="&#x16c;" horiz-adv-x="1363" d="M23 1368v66h626v-66h-135q-25 -141 -25 -287v-729q0 -127 78 -219t193 -92q180 0 268 72.5t88 238.5v729q0 145 -24 287h-136v66h385v-66h-135q-25 -141 -24 -287v-729q0 -211 -123 -294t-377 -83q-225 0 -362.5 95.5t-137.5 281.5v729q0 145 -24 287h-135zM537 1835h81 q0 -53 36 -83t93.5 -30t93.5 30t36 83h81q0 -119 -54 -191.5t-156.5 -72.5t-156.5 72.5t-54 191.5z" />
<glyph unicode="&#x16d;" horiz-adv-x="1157" d="M14 836v65q197 0 394 25q-25 -188 -25 -377v-330q0 -63 25.5 -108t72.5 -45q86 0 157 48t105 126v309q0 145 -24 287h-98v65q197 0 393 25q-25 -188 -25 -377v-197q0 -145 25 -286h98v-66q-197 0 -393 -25l24 154q-115 -154 -303 -154t-303 154v420q0 145 -24 287h-99z M352 1360h82q0 -57 35 -92t94.5 -35t94 35t34.5 92h82q0 -135 -51 -216t-159.5 -81t-160 81t-51.5 216z" />
<glyph unicode="&#x16e;" horiz-adv-x="1363" d="M23 1368v66h626v-66h-135q-25 -141 -25 -287v-729q0 -127 78 -219t193 -92q180 0 268 72.5t88 238.5v729q0 145 -24 287h-136v66h385v-66h-135q-25 -141 -24 -287v-729q0 -211 -123 -294t-377 -83q-225 0 -362.5 95.5t-137.5 281.5v729q0 145 -24 287h-135zM559 1626v156 l111 110h155l111 -110v-156l-111 -110h-155zM625 1653l71 -72h103l71 72v102l-71 72h-103l-71 -72v-102z" />
<glyph unicode="&#x16f;" horiz-adv-x="1157" d="M14 836v65q197 0 394 25q-25 -188 -25 -377v-330q0 -63 25.5 -108t72.5 -45q86 0 157 48t105 126v309q0 145 -24 287h-98v65q197 0 393 25q-25 -188 -25 -377v-197q0 -145 25 -286h98v-66q-197 0 -393 -25l24 154q-115 -154 -303 -154t-303 154v420q0 145 -24 287h-99z M375 1135v155l110 111h156l111 -111v-155l-111 -111h-156zM440 1161l72 -71h102l72 71v103l-72 71h-102l-72 -71v-103z" />
<glyph unicode="&#x170;" horiz-adv-x="1363" d="M23 1368v66h626v-66h-135q-25 -141 -25 -287v-729q0 -127 78 -219t193 -92q180 0 268 72.5t88 238.5v729q0 145 -24 287h-136v66h385v-66h-135q-25 -141 -24 -287v-729q0 -211 -123 -294t-377 -83q-225 0 -362.5 95.5t-137.5 281.5v729q0 145 -24 287h-135zM446 1563 q121 109 144 280h215v-65l-236 -215h-123zM838 1563q123 109 141 280h217v-65l-235 -215h-123z" />
<glyph unicode="&#x171;" horiz-adv-x="1157" d="M14 836v65q197 0 394 25q-25 -188 -25 -377v-330q0 -63 25.5 -108t72.5 -45q86 0 157 48t105 126v309q0 145 -24 287h-98v65q197 0 393 25q-25 -188 -25 -377v-197q0 -145 25 -286h98v-66q-197 0 -393 -25l24 154q-115 -154 -303 -154t-303 154v420q0 145 -24 287h-99z M274 1047q127 135 152 329h207v-61l-252 -268h-107zM653 1047q127 135 154 329h205v-61l-250 -268h-109z" />
<glyph unicode="&#x172;" horiz-adv-x="1363" d="M23 1368v66h626v-66h-135q-25 -141 -25 -287v-729q0 -127 78 -219t193 -92q180 0 268 72.5t88 238.5v729q0 145 -24 287h-136v66h385v-66h-135q-25 -141 -24 -287v-729q0 -285 -250 -350q-51 -14 -109 -72q-63 -59 -63 -129q0 -63 34.5 -110t90 -47t98.5 32l39 -53 q-90 -66 -205 -65q-98 0 -170 50t-72 132q0 135 205 237q-31 -2 -98 -2q-225 0 -362.5 95.5t-137.5 281.5v729q0 145 -24 287h-135z" />
<glyph unicode="&#x173;" horiz-adv-x="1157" d="M14 836v65q197 0 394 25q-25 -188 -25 -377v-330q0 -63 25.5 -108t72.5 -45q86 0 157 48t105 126v309q0 145 -24 287h-98v65q197 0 393 25q-25 -188 -25 -377v-197q0 -145 25 -286h98v-66q-127 0 -199 -70q-63 -63 -63 -129q0 -63 35 -110t90 -47t98 32l39 -53 q-90 -66 -205 -65q-98 0 -169.5 50t-71.5 132q0 76 68.5 141.5t166.5 112.5q-88 -6 -182 -19l24 154q-115 -154 -303 -154t-303 154v420q0 145 -24 287h-99z" />
<glyph unicode="&#x174;" horiz-adv-x="2127" d="M14 1368v66h531v-66h-78q25 -143 74 -287l235 -686l236 686l16 52q-49 127 -104 235h-80v66h532v-66h-80q27 -143 74 -287l236 -686l235 686q49 143 74 287h-78v66h277v-66h-80q-70 -135 -123 -287l-250 -729q-61 -178 -107 -381h-151q-45 203 -107 381l-233 678 l-234 -678q-70 -213 -104 -381h-152q-45 203 -106 381l-252 729q-49 150 -123 287h-78zM834 1565l153 278h246l153 -278h-210l-134 241l-133 -241h-75z" />
<glyph unicode="&#x175;" horiz-adv-x="1626" d="M45 836v65q197 0 393 25q-25 -188 -24 -377v-330q0 -61 25.5 -107t72.5 -46q86 0 157.5 48t106.5 126v309q0 145 -24 287h-99v65q197 0 394 25q-25 -188 -25 -377v-309q0 -82 32.5 -140.5t94.5 -58.5q150 0 215.5 153.5t36.5 354.5q-20 156 -117 287h-98v65h395v-65h-49 q-53 -139 -31 -287q33 -223 -67.5 -398.5t-284.5 -175.5q-66 0 -127 25h-246v129q-115 -154 -305 -154q-188 0 -303 154v420q0 145 -25 287h-98zM623 1049l153 327h246l154 -327h-203l-139 294l-140 -294h-71z" />
<glyph unicode="&#x176;" horiz-adv-x="1349" d="M14 1368v66h705v-66h-135q2 -111 57 -209q86 -158 133 -319l25 -99q23 96 69 209q47 109 121 224q86 125 86 194h-149v66h407v-66h-100q-195 -195 -305 -444q-100 -231 -101 -447v-125q0 -145 25 -286h135v-66h-627v66h136q25 141 24 286v125q0 262 -149 535 q-109 199 -267 356h-90zM397 1565l154 278h246l153 -278h-211l-133 241l-133 -241h-76z" />
<glyph unicode="&#x177;" horiz-adv-x="1091" d="M45 836v65q197 0 393 25q-25 -188 -24 -377v-330q0 -63 22.5 -108t67.5 -45q86 0 156.5 48t101.5 128v307q0 145 -25 287h-98v65q197 0 393 25q-25 -188 -24 -377v-369q0 -276 -184.5 -474t-448.5 -198q-129 0 -223.5 59.5t-94.5 162.5q0 168 248 282q-84 41 -137 117 v420q0 145 -25 287h-98zM205 -270q0 -66 50 -111t120 -45q141 0 262 68q39 20 64.5 55t38 66.5t18.5 87t7 87t-1 98t-2 93.5q-109 -154 -297 -154q-39 0 -86 11q-78 -31 -126 -100.5t-48 -155.5zM311 1049l154 327h246l153 -327h-202l-140 294l-139 -294h-72z" />
<glyph unicode="&#x178;" horiz-adv-x="1349" d="M14 1368v66h705v-66h-135q2 -111 57 -209q86 -158 133 -319l25 -99q23 96 69 209q47 109 121 224q86 125 86 194h-149v66h407v-66h-100q-195 -195 -305 -444q-100 -231 -101 -447v-125q0 -145 25 -286h135v-66h-627v66h136q25 141 24 286v125q0 262 -149 535 q-109 199 -267 356h-90zM356 1659v90l66 66h90l66 -66v-90l-66 -66h-90zM770 1659v90l66 66h90l65 -66v-90l-65 -66h-90z" />
<glyph unicode="&#x179;" horiz-adv-x="1236" d="M45 0v88q182 86 264 270l373 842q41 90 119 168h-412q-98 0 -159.5 -87t-61.5 -206h-66v359h1057v-88q-129 -117 -196 -271l-373 -842q-39 -88 -117 -167h432q98 0 159.5 87t61.5 205h66v-358h-1147zM489 1563q127 106 154 280h231v-65l-251 -215h-134z" />
<glyph unicode="&#x17a;" horiz-adv-x="892" d="M45 0v82q102 39 145 133l281 578q8 20 27 43h-154q-123 0 -172 -49.5t-49 -172.5h-66v287h758v-82q-82 -47 -123 -133l-280 -577q-8 -20 -27 -43h176q123 0 172 49t49 172h66v-287h-803zM307 1047q139 135 164 329h221v-61l-268 -268h-117z" />
<glyph unicode="&#x17b;" horiz-adv-x="1236" d="M45 0v88q182 86 264 270l373 842q41 90 119 168h-412q-98 0 -159.5 -87t-61.5 -206h-66v359h1057v-88q-129 -117 -196 -271l-373 -842q-39 -88 -117 -167h432q98 0 159.5 87t61.5 205h66v-358h-1147zM496 1653v102l71 72h103l71 -72v-102l-71 -72h-103z" />
<glyph unicode="&#x17c;" horiz-adv-x="892" d="M45 0v82q102 39 145 133l281 578q8 20 27 43h-154q-123 0 -172 -49.5t-49 -172.5h-66v287h758v-82q-82 -47 -123 -133l-280 -577q-8 -20 -27 -43h176q123 0 172 49t49 172h66v-287h-803zM313 1161v103l72 71h102l72 -71v-103l-72 -71h-102z" />
<glyph unicode="&#x17d;" horiz-adv-x="1236" d="M45 0v88q182 86 264 270l373 842q41 90 119 168h-412q-98 0 -159.5 -87t-61.5 -206h-66v359h1057v-88q-129 -117 -196 -271l-373 -842q-39 -88 -117 -167h432q98 0 159.5 87t61.5 205h66v-358h-1147zM342 1843h211l133 -244l133 244h76l-154 -278h-245z" />
<glyph unicode="&#x17e;" horiz-adv-x="892" d="M45 0v82q102 39 145 133l281 578q8 20 27 43h-154q-123 0 -172 -49.5t-49 -172.5h-66v287h758v-82q-82 -47 -123 -133l-280 -577q-8 -20 -27 -43h176q123 0 172 49t49 172h66v-287h-803zM160 1376h202l140 -297l139 297h72l-154 -327h-246z" />
<glyph unicode="&#x17f;" horiz-adv-x="643" d="M45 0v66h123q25 141 25 286v484h-148v65h148v131q0 66 10 129.5t38.5 136t90 116.5t151.5 44t135.5 -14t118.5 -66v-123h-205v21v21v21q0 13 -1 20.5t-4 17.5t-6 15t-8 11.5t-12 8.5t-18 2q-72 0 -71 -138q0 -74 14 -178q12 -115 12 -176v-549q0 -145 25 -286h135v-66 h-553z" />
<glyph unicode="&#x18e;" horiz-adv-x="1142" d="M45 0v358h66q0 -119 61 -205.5t160 -86.5h274q25 141 25 286v365h-215q-41 0 -70 -23.5t-29 -60.5v-51h-65v336h65v-52q0 -37 29 -60.5t70 -23.5h215v299q0 145 -25 287h-170q-98 0 -159.5 -87t-61.5 -206h-65v359h948v-66h-135q-25 -141 -25 -287v-729q0 -145 25 -286 h135v-66h-1053z" />
<glyph unicode="&#x192;" horiz-adv-x="643" d="M45 0v66h123q25 141 25 286v484h-148v65h148v131q0 66 10 129.5t38.5 136t90 116.5t151.5 44t135.5 -14t118.5 -66v-123h-205v21v21v21q0 13 -1 20.5t-4 17.5t-6 15t-8 11.5t-12 8.5t-18 2q-72 0 -71 -138q0 -74 14 -178q12 -115 12 -176h160v-65h-160v-484 q0 -145 25 -286h135v-66h-553z" />
<glyph unicode="&#x1a0;" horiz-adv-x="1591" d="M45 717q0 342 196.5 543.5t532.5 201.5q360 0 559 -231q72 92 72 256h164q0 -113 -46 -207t-128 -135q109 -176 108 -428q0 -342 -196.5 -544t-532.5 -202t-532.5 202t-196.5 544zM369 717q0 -131 23.5 -248t69.5 -216t127 -157.5t185.5 -58.5t185 58.5t127 157.5t70 216 t23.5 248t-23.5 247.5t-70 216t-127 158t-185 58.5t-185.5 -58.5t-127 -158t-69.5 -216t-23.5 -247.5z" />
<glyph unicode="&#x1a1;" horiz-adv-x="1181" d="M59 450.5q0 221.5 132.5 348.5t355.5 127q281 0 409 -193q45 78 45 217h164q0 -104 -42 -195t-113 -137q25 -78 24 -167q0 -221 -132 -348.5t-355 -127.5t-355.5 127t-132.5 348.5zM317 451q0 -92 9.5 -159t33 -127.5t70.5 -92t117 -31.5q92 0 144 59.5t68.5 142.5 t16.5 208q0 92 -9 158.5t-32.5 127t-71 92t-116.5 31.5q-92 0 -144.5 -59.5t-69 -142t-16.5 -207.5z" />
<glyph unicode="&#x1af;" horiz-adv-x="1363" d="M23 1368v66h626v-66h-135q-25 -141 -25 -287v-729q0 -127 78 -219t193 -92q180 0 268 72.5t88 238.5v729q0 145 -24 287h-136v66h250l-18 -252q53 59 71.5 118.5t18.5 157.5h164q0 -143 -72 -249.5t-188 -114.5v-13v-729q0 -211 -123 -294t-377 -83q-225 0 -362.5 95.5 t-137.5 281.5v729q0 145 -24 287h-135z" />
<glyph unicode="&#x1b0;" horiz-adv-x="1263" d="M14 836v65q197 0 394 25q-25 -188 -25 -377v-330q0 -63 25.5 -108t72.5 -45q86 0 157 48t105 126v309q0 145 -24 287h-98v65q197 0 393 25q-16 -137 -23 -246q49 55 66.5 114.5t17.5 155.5h164q0 -139 -68.5 -245.5t-181.5 -118.5v-37v-197q0 -145 25 -286h98v-66 q-197 0 -393 -25l24 154q-115 -154 -303 -154t-303 154v420q0 145 -24 287h-99z" />
<glyph unicode="&#x1cd;" horiz-adv-x="1329" d="M14 0v66h109q68 131 119 286l264 795q51 152 80 315h102q39 -166 92 -315l293 -795q51 -137 131 -286h109v-66h-561v66h108q-23 123 -80 286l-53 142h-369l-47 -142q-51 -154 -69 -286h106v-66h-334zM360 1843h211l134 -244l133 244h75l-153 -278h-246zM381 559h321 l-170 461z" />
<glyph unicode="&#x1ce;" horiz-adv-x="1009" d="M45 268.5q0 139.5 94 216t250 76.5q131 0 229 -86v221q0 74 -34.5 119t-98.5 45q-82 0 -132 -43t-50 -121h-197q0 115 112 172.5t267 57.5q170 0 274.5 -75t104.5 -220v-488q0 -47 30 -62t93 -15v-66h-147q-143 0 -199 80q-115 -104 -252 -105q-156 0 -250 77t-94 216.5z M209 1376h203l139 -297l139 297h72l-154 -327h-246zM291 268q0 -92 38 -159.5t109 -67.5q51 0 103.5 31.5t76.5 77.5v260q-68 86 -180 86q-72 0 -109.5 -68t-37.5 -160z" />
<glyph unicode="&#x1cf;" horiz-adv-x="716" d="M45 0v66h135q25 141 25 286v729q0 145 -25 287h-135v66h627v-66h-135q-25 -141 -25 -287v-729q0 -145 25 -286h135v-66h-627zM82 1843h211l133 -244l133 244h76l-154 -278h-245z" />
<glyph unicode="&#x1d0;" horiz-adv-x="581" d="M14 1376h203l139 -297l140 297h71l-153 -327h-246zM45 0v66h98q25 141 25 286v197q0 145 -25 287h-98v65q197 0 393 25q-25 -188 -24 -377v-197q0 -145 24 -286h99v-66h-492z" />
<glyph unicode="&#x1d1;" horiz-adv-x="1548" d="M45 717q0 342 196.5 543.5t532.5 201.5t532.5 -201.5t196.5 -543.5t-196.5 -544t-532.5 -202t-532.5 202t-196.5 544zM369 717q0 -131 23.5 -248t69.5 -216t127 -157.5t185.5 -58.5t185 58.5t127 157.5t70 216t23.5 248t-23.5 247.5t-70 216t-127 158t-185 58.5 t-185.5 -58.5t-127 -158t-69.5 -216t-23.5 -247.5zM498 1843h211l133 -244l133 244h76l-154 -278h-246z" />
<glyph unicode="&#x1d2;" horiz-adv-x="1079" d="M59 450.5q0 221.5 132.5 348.5t355.5 127t355 -127t132 -348.5t-132 -348.5t-355 -127t-355.5 127t-132.5 348.5zM270 1376h203l139 -297l140 297h71l-153 -327h-246zM317 451q0 -92 9.5 -159t33 -127.5t70.5 -92t117 -31.5q92 0 144 59.5t68.5 142.5t16.5 208 q0 92 -9 158.5t-32.5 127t-71 92t-116.5 31.5q-92 0 -144.5 -59.5t-69 -142t-16.5 -207.5z" />
<glyph unicode="&#x1d3;" horiz-adv-x="1363" d="M23 1368v66h626v-66h-135q-25 -141 -25 -287v-729q0 -127 78 -219t193 -92q180 0 268 72.5t88 238.5v729q0 145 -24 287h-136v66h385v-66h-135q-25 -141 -24 -287v-729q0 -211 -123 -294t-377 -83q-225 0 -362.5 95.5t-137.5 281.5v729q0 145 -24 287h-135zM471 1843h211 l133 -244l133 244h76l-154 -278h-245z" />
<glyph unicode="&#x1d4;" horiz-adv-x="1157" d="M14 836v65q197 0 394 25q-25 -188 -25 -377v-330q0 -63 25.5 -108t72.5 -45q86 0 157 48t105 126v309q0 145 -24 287h-98v65q197 0 393 25q-25 -188 -25 -377v-197q0 -145 25 -286h98v-66q-197 0 -393 -25l24 154q-115 -154 -303 -154t-303 154v420q0 145 -24 287h-99z M287 1376h202l140 -297l139 297h72l-154 -327h-246z" />
<glyph unicode="&#x1d7;" horiz-adv-x="1363" d="M23 1368v66h626v-66h-135q-25 -141 -25 -287v-729q0 -127 78 -219t193 -92q180 0 268 72.5t88 238.5v729q0 145 -24 287h-136v66h385v-66h-135q-25 -141 -24 -287v-729q0 -211 -123 -294t-377 -83q-225 0 -362.5 95.5t-137.5 281.5v729q0 145 -24 287h-135zM430 1659v90 l66 66h90l65 -66v-90l-65 -66h-90zM651 1880q127 109 154 281h231v-64l-252 -217h-133zM844 1659v90l65 66h90l66 -66v-90l-66 -66h-90z" />
<glyph unicode="&#x1d8;" horiz-adv-x="1157" d="M14 836v65q197 0 394 25q-25 -188 -25 -377v-330q0 -63 25.5 -108t72.5 -45q86 0 157 48t105 126v309q0 145 -24 287h-98v65q197 0 393 25q-25 -188 -25 -377v-197q0 -145 25 -286h98v-66q-197 0 -393 -25l24 154q-115 -154 -303 -154t-303 154v420q0 145 -24 287h-99z M246 1126v91l65 65h90l66 -65v-91l-66 -65h-90zM467 1348q127 109 154 280h231v-63l-252 -217h-133zM659 1126v91l66 65h90l66 -65v-91l-66 -65h-90z" />
<glyph unicode="&#x1d9;" horiz-adv-x="1363" d="M23 1368v66h626v-66h-135q-25 -141 -25 -287v-729q0 -127 78 -219t193 -92q180 0 268 72.5t88 238.5v729q0 145 -24 287h-136v66h385v-66h-135q-25 -141 -24 -287v-729q0 -211 -123 -294t-377 -83q-225 0 -362.5 95.5t-137.5 281.5v729q0 145 -24 287h-135zM430 1659v90 l66 66h90l65 -66v-90l-65 -66h-90zM471 2159h211l133 -244l133 244h76l-154 -279h-245zM844 1659v90l65 66h90l66 -66v-90l-66 -66h-90z" />
<glyph unicode="&#x1da;" horiz-adv-x="1157" d="M14 836v65q197 0 394 25q-25 -188 -25 -377v-330q0 -63 25.5 -108t72.5 -45q86 0 157 48t105 126v309q0 145 -24 287h-98v65q197 0 393 25q-25 -188 -25 -377v-197q0 -145 25 -286h98v-66q-197 0 -393 -25l24 154q-115 -154 -303 -154t-303 154v420q0 145 -24 287h-99z M246 1126v91l65 65h90l66 -65v-91l-66 -65h-90zM287 1626h211l133 -244l133 244h76l-154 -278h-246zM659 1126v91l66 65h90l66 -65v-91l-66 -65h-90z" />
<glyph unicode="&#x1db;" horiz-adv-x="1363" d="M23 1368v66h626v-66h-135q-25 -141 -25 -287v-729q0 -127 78 -219t193 -92q180 0 268 72.5t88 238.5v729q0 145 -24 287h-136v66h385v-66h-135q-25 -141 -24 -287v-729q0 -211 -123 -294t-377 -83q-225 0 -362.5 95.5t-137.5 281.5v729q0 145 -24 287h-135zM430 1659v90 l66 66h90l65 -66v-90l-65 -66h-90zM459 2097v64h231q27 -172 154 -281h-133zM844 1659v90l65 66h90l66 -66v-90l-66 -66h-90z" />
<glyph unicode="&#x1dc;" horiz-adv-x="1157" d="M14 836v65q197 0 394 25q-25 -188 -25 -377v-330q0 -63 25.5 -108t72.5 -45q86 0 157 48t105 126v309q0 145 -24 287h-98v65q197 0 393 25q-25 -188 -25 -377v-197q0 -145 25 -286h98v-66q-197 0 -393 -25l24 154q-115 -154 -303 -154t-303 154v420q0 145 -24 287h-99z M246 1126v91l65 65h90l66 -65v-91l-66 -65h-90zM274 1565v63h232q27 -172 153 -280h-133zM659 1126v91l66 65h90l66 -65v-91l-66 -65h-90z" />
<glyph unicode="&#x1dd;" horiz-adv-x="989" d="M59 408q184 -25 369 -25h258v68q0 170 -55.5 288.5t-173.5 118.5q-121 0 -200 -40t-148 -140l-50 43q102 121 192.5 163t250.5 42q207 0 324.5 -129t117.5 -346.5t-117.5 -346.5t-324.5 -129q-182 0 -312.5 126.5t-130.5 306.5zM317 317q0 -276 185 -276q100 0 138 71.5 t44 204.5h-367z" />
<glyph unicode="&#x1e6;" horiz-adv-x="1538" d="M45 717q0 348 218 546.5t583 198.5q233 0 446 -100v-287h-65q0 137 -114 229.5t-267 92.5q-147 0 -259 -99.5t-165 -252t-53 -328.5t53 -328.5t164.5 -252t259.5 -99.5q111 0 203 57v142q0 145 -25 286h-135v66h627v-66h-136q-25 -141 -24 -286v-123q-205 -141 -510 -142 q-365 0 -583 199t-218 547zM569 1843h211l133 -244l134 244h75l-153 -278h-246z" />
<glyph unicode="&#x1e7;" horiz-adv-x="1046" d="M59 -123h293v-65h-73q-25 -37 -25 -86q0 -127 276 -127q111 0 193 50t82 138q0 98 -75 143t-200 45q-229 0 -350 122t-121 354q0 227 103.5 351t310.5 124q92 0 166 -25h362v-108h-32q-78 59 -178 59h-52q150 -104 150 -311q0 -180 -113.5 -282.5t-302.5 -102.5 q-66 0 -121 36.5t-78 100.5q0 -131 61.5 -191.5t194.5 -60.5q106 0 182 -9t147 -35t106.5 -78t35.5 -132q0 -70 -40.5 -122t-110.5 -79.5t-148.5 -40t-171.5 -12.5q-258 0 -364.5 60.5t-106.5 259.5v24zM197 1376h202l140 -297l139 297h72l-154 -327h-246zM305 540.5 q0 -153.5 34 -236.5t134 -83t135 84t35 235.5t-35 235.5t-135 84t-134 -83t-34 -236.5z" />
<glyph unicode="&#x1ea;" horiz-adv-x="1548" d="M45 717q0 342 196.5 543.5t532.5 201.5t532.5 -201.5t196.5 -543.5q0 -281 -136 -471.5t-378 -249.5q-66 -14 -119 -66q-63 -63 -63 -129q0 -63 35 -110t90 -47t98 32l39 -53q-90 -66 -205 -65q-98 0 -169.5 50t-71.5 132q0 129 192 231h-41q-336 0 -532.5 202 t-196.5 544zM369 717q0 -131 23.5 -248t69.5 -216t127 -157.5t185.5 -58.5t185 58.5t127 157.5t70 216t23.5 248t-23.5 247.5t-70 216t-127 158t-185 58.5t-185.5 -58.5t-127 -158t-69.5 -216t-23.5 -247.5z" />
<glyph unicode="&#x1eb;" horiz-adv-x="1079" d="M59 450.5q0 221.5 132.5 348.5t355.5 127t355 -127t132 -348q0 -164 -74.5 -279t-211.5 -164q-92 -35 -138 -78q-63 -63 -63 -129q0 -63 34.5 -110t90 -47t98.5 32l39 -53q-90 -66 -205 -65q-98 0 -170 50t-72 132q0 133 199 235h-14q-223 0 -355.5 127t-132.5 348.5z M317 451q0 -92 9.5 -159t33 -127.5t70.5 -92t117 -31.5q92 0 144 59.5t68.5 142.5t16.5 208q0 92 -9 158.5t-32.5 127t-71 92t-116.5 31.5q-92 0 -144.5 -59.5t-69 -142t-16.5 -207.5z" />
<glyph unicode="&#x1f0;" horiz-adv-x="483" d="M-145 -199h122q0 -164 76 -163q115 0 115 229v682q0 145 -25 287h-98v65h492v-65h-99q-25 -141 -24 -287v-549q0 -176 -115 -302t-283 -126q-55 0 -99 31.5t-62 83.5v114zM14 1376h203l139 -297l140 297h71l-153 -327h-246z" />
<glyph unicode="&#x1f4;" horiz-adv-x="1538" d="M45 717q0 348 218 546.5t583 198.5q233 0 446 -100v-287h-65q0 137 -114 229.5t-267 92.5q-147 0 -259 -99.5t-165 -252t-53 -328.5t53 -328.5t164.5 -252t259.5 -99.5q111 0 203 57v142q0 145 -25 286h-135v66h627v-66h-136q-25 -141 -24 -286v-123q-205 -141 -510 -142 q-365 0 -583 199t-218 547zM717 1563q127 106 153 280h232v-65l-252 -215h-133z" />
<glyph unicode="&#x1f5;" horiz-adv-x="1046" d="M59 -123h293v-65h-73q-25 -37 -25 -86q0 -127 276 -127q111 0 193 50t82 138q0 98 -75 143t-200 45q-229 0 -350 122t-121 354q0 227 103.5 351t310.5 124q92 0 166 -25h362v-108h-32q-78 59 -178 59h-52q150 -104 150 -311q0 -180 -113.5 -282.5t-302.5 -102.5 q-66 0 -121 36.5t-78 100.5q0 -131 61.5 -191.5t194.5 -60.5q106 0 182 -9t147 -35t106.5 -78t35.5 -132q0 -70 -40.5 -122t-110.5 -79.5t-148.5 -40t-171.5 -12.5q-258 0 -364.5 60.5t-106.5 259.5v24zM305 540.5q0 -153.5 34 -236.5t134 -83t135 84t35 235.5t-35 235.5 t-135 84t-134 -83t-34 -236.5zM344 1047q139 135 164 329h221v-61l-268 -268h-117z" />
<glyph unicode="&#x1fa;" horiz-adv-x="1329" d="M14 0v66h109q68 131 119 286l264 795q51 152 80 315h102q39 -166 92 -315l293 -795q51 -137 131 -286h109v-66h-561v66h108q-23 123 -80 286l-53 142h-369l-47 -142q-51 -154 -69 -286h106v-66h-334zM381 559h321l-170 461zM442 1942q127 106 154 280h231v-65l-252 -215 h-133zM449 1626v156l110 110h156l110 -110v-156l-110 -110h-156zM514 1653l72 -72h102l72 72v102l-72 72h-102l-72 -72v-102z" />
<glyph unicode="&#x1fb;" horiz-adv-x="1009" d="M45 268.5q0 139.5 94 216t250 76.5q131 0 229 -86v221q0 74 -34.5 119t-98.5 45q-82 0 -132 -43t-50 -121h-197q0 115 112 172.5t267 57.5q170 0 274.5 -75t104.5 -220v-488q0 -47 30 -62t93 -15v-66h-147q-143 0 -199 80q-115 -104 -252 -105q-156 0 -250 77t-94 216.5z M291 268q0 -92 38 -159.5t109 -67.5q51 0 103.5 31.5t76.5 77.5v260q-68 86 -180 86q-72 0 -109.5 -68t-37.5 -160zM291 1409q127 106 153 281h232v-66l-252 -215h-133zM297 1094v155l111 111h155l111 -111v-155l-111 -111h-155zM362 1120l72 -71h103l71 71v103l-71 71h-103 l-72 -71v-103z" />
<glyph unicode="&#x1fc;" horiz-adv-x="1978" d="M14 0v66h136q94 147 161 286l379 795q51 106 92 221h-114v66h1161v-359h-66q0 119 -61.5 206t-159.5 87h-170q-25 -141 -24 -287v-299h215q39 0 68.5 23.5t29.5 60.5v52h65v-336h-65v51q0 37 -29.5 60.5t-68.5 23.5h-215v-365q0 -145 24 -286h275q98 0 159.5 87t61.5 205 h65v-358h-1052v66h135q25 141 24 286v191h-565l-92 -191q-70 -150 -113 -286h136v-66h-392zM506 608h534v473q0 145 -24 287h-84q-111 -98 -168 -221zM973 1563q127 106 153 280h232v-65l-252 -215h-133z" />
<glyph unicode="&#x1fd;" horiz-adv-x="1511" d="M45 268.5q0 139.5 94 216t250 76.5q131 0 229 -86v221q0 74 -34.5 119t-98.5 45q-82 0 -132 -43t-50 -121h-197q0 115 112 172.5t267 57.5q174 0 277 -76q106 76 262 76q182 0 312 -126t130 -306q-184 25 -368 24h-258v-67q0 -170 55 -289t174 -119q121 0 200 40t148 140 l49 -43q-102 -121 -192 -163t-250 -42q-207 0 -326 131q-127 -131 -309 -131q-156 0 -250 77t-94 216.5zM291 268q0 -92 38 -159.5t109 -67.5q51 0 103.5 31.5t76.5 77.5v260q-68 86 -180 86q-72 0 -109.5 -68t-37.5 -160zM600 1047q139 135 164 329h221v-61l-268 -268h-117 zM842 584h366q0 276 -184 276q-100 0 -138 -71.5t-44 -204.5z" />
<glyph unicode="&#x1fe;" horiz-adv-x="1548" d="M23 0q0 170 110 322q-88 170 -88 395q0 342 196.5 543.5t532.5 201.5q358 0 557 -227q41 92 41 199h154q0 -172 -113 -322q90 -168 90 -395q0 -342 -196.5 -544t-532.5 -202q-362 0 -557 230q-41 -94 -41 -201h-153zM369 717q0 -80 10 -172q123 84 366 198 q258 119 406 252q-41 182 -135 292t-242 110q-104 0 -185 -58.5t-127 -158t-69.5 -216t-23.5 -247.5zM397 442q39 -182 133.5 -293.5t243.5 -111.5q104 0 185 58.5t127.5 157.5t70 216t23.5 248q0 92 -13 178q-127 -84 -393 -211q-242 -117 -377 -242zM645 1563 q127 106 154 280h231v-65l-252 -215h-133z" />
<glyph unicode="&#x1ff;" horiz-adv-x="1064" d="M45 -25q0 113 68 209q-68 117 -68 267q0 221 132 348t355 127q215 0 345 -117q20 61 20 117h123q0 -109 -68 -207q68 -117 68 -268q0 -221 -132 -348.5t-356 -127.5q-215 0 -344 117q-20 -61 -20 -117h-123zM303 451q0 -59 2 -89q98 63 197 113q154 80 248 162 q-41 223 -218 223q-92 0 -144 -59.5t-68.5 -142t-16.5 -207.5zM315 270q39 -229 217 -229q92 0 144.5 59.5t69 142.5t16.5 208q0 66 -2 96q-53 -35 -228 -129q-129 -68 -217 -148zM403 1047q139 135 164 329h221v-61l-268 -268h-117z" />
<glyph unicode="&#x200;" horiz-adv-x="1329" d="M14 0v66h109q68 131 119 286l264 795q51 152 80 315h102q39 -166 92 -315l293 -795q51 -137 131 -286h109v-66h-561v66h108q-23 123 -80 286l-53 142h-369l-47 -142q-51 -154 -69 -286h106v-66h-334zM172 1778v65h209q18 -172 137 -280h-119zM381 559h321l-170 461z M555 1778v65h209q23 -172 137 -280h-119z" />
<glyph unicode="&#x201;" horiz-adv-x="1009" d="M18 1315v61h199q27 -195 148 -329h-105zM45 268.5q0 139.5 94 216t250 76.5q131 0 229 -86v221q0 74 -34.5 119t-98.5 45q-82 0 -132 -43t-50 -121h-197q0 115 112 172.5t267 57.5q170 0 274.5 -75t104.5 -220v-488q0 -47 30 -62t93 -15v-66h-147q-143 0 -199 80 q-115 -104 -252 -105q-156 0 -250 77t-94 216.5zM291 268q0 -92 38 -159.5t109 -67.5q51 0 103.5 31.5t76.5 77.5v260q-68 86 -180 86q-72 0 -109.5 -68t-37.5 -160zM393 1315v61h199q23 -190 147 -329h-104z" />
<glyph unicode="&#x204;" horiz-adv-x="1142" d="M45 0v66h135q25 141 25 286v729q0 145 -25 287h-135v66h948v-359h-65q0 119 -61.5 206t-159.5 87h-170q-25 -141 -25 -287v-299h215q41 0 69.5 23.5t28.5 60.5v52h66v-336h-66v51q0 37 -28.5 60.5t-69.5 23.5h-215v-365q0 -145 25 -286h274q98 0 159.5 87t61.5 205h66 v-358h-1053zM88 1778v65h209q18 -172 137 -280h-119zM471 1778v65h209q23 -172 137 -280h-119z" />
<glyph unicode="&#x205;" horiz-adv-x="989" d="M35 1315v61h198q27 -195 148 -329h-105zM59 450.5q0 217.5 118 346.5t325 129q182 0 312 -126t130 -306q-184 25 -369 24h-258v-67q0 -170 55.5 -289t174.5 -119q121 0 199.5 40t148.5 140l49 -43q-102 -121 -192 -163t-250 -42q-207 0 -325 129t-118 346.5zM319 584h367 q0 276 -184 276q-100 0 -138.5 -71.5t-44.5 -204.5zM410 1315v61h198q23 -190 148 -329h-105z" />
<glyph unicode="&#x208;" horiz-adv-x="716" d="M-106 1778v65h208q18 -172 138 -280h-119zM45 0v66h135q25 141 25 286v729q0 145 -25 287h-135v66h627v-66h-135q-25 -141 -25 -287v-729q0 -145 25 -286h135v-66h-627zM276 1778v65h209q23 -172 138 -280h-119z" />
<glyph unicode="&#x209;" horiz-adv-x="581" d="M-176 1315v61h199q27 -195 147 -329h-104zM45 0v66h98q25 141 25 286v197q0 145 -25 287h-98v65q197 0 393 25q-25 -188 -24 -377v-197q0 -145 24 -286h99v-66h-492zM199 1315v61h198q23 -190 148 -329h-105z" />
<glyph unicode="&#x20c;" horiz-adv-x="1548" d="M45 717q0 342 196.5 543.5t532.5 201.5t532.5 -201.5t196.5 -543.5t-196.5 -544t-532.5 -202t-532.5 202t-196.5 544zM309 1778v65h209q18 -172 137 -280h-118zM369 717q0 -131 23.5 -248t69.5 -216t127 -157.5t185.5 -58.5t185 58.5t127 157.5t70 216t23.5 248 t-23.5 247.5t-70 216t-127 158t-185 58.5t-185.5 -58.5t-127 -158t-69.5 -216t-23.5 -247.5zM692 1778v65h209q23 -172 137 -280h-118z" />
<glyph unicode="&#x20d;" horiz-adv-x="1079" d="M59 450.5q0 221.5 132.5 348.5t355.5 127t355 -127t132 -348.5t-132 -348.5t-355 -127t-355.5 127t-132.5 348.5zM80 1315v61h199q27 -195 147 -329h-104zM317 451q0 -92 9.5 -159t33 -127.5t70.5 -92t117 -31.5q92 0 144 59.5t68.5 142.5t16.5 208q0 92 -9 158.5 t-32.5 127t-71 92t-116.5 31.5q-92 0 -144.5 -59.5t-69 -142t-16.5 -207.5zM455 1315v61h198q23 -190 148 -329h-105z" />
<glyph unicode="&#x210;" horiz-adv-x="1308" d="M45 0v66h135q25 141 25 286v729q0 145 -25 287h-135v66h627q231 0 371.5 -89.5t140.5 -275.5q0 -270 -324 -340q240 -74 256 -264l19 -215q16 -199 127 -199h32v-65h-204q-127 0 -188.5 56t-72.5 183l-20 238q-10 125 -63.5 182t-167.5 57h-66v-350q0 -145 25 -286h135 v-66h-627zM125 1778v65h209q18 -172 137 -280h-119zM508 1778v65h209q23 -172 137 -280h-119zM512 768h131q119 0 184.5 83t65.5 218t-65.5 217t-184.5 82h-106q-25 -141 -25 -287v-313z" />
<glyph unicode="&#x211;" horiz-adv-x="866" d="M-53 1315v61h198q27 -195 148 -329h-105zM45 0v66h98q25 141 25 286v197q0 145 -25 287h-98v65q197 0 393 25q-8 -55 -16 -166q27 66 92.5 116t128.5 50q78 0 133 -54.5t55 -132.5v-63h-221q0 37 -1 57.5t-5 49t-14 42t-29 13.5q-147 0 -147 -338v-148q0 -145 24 -286 h148v-66h-541zM322 1315v61h198q23 -190 148 -329h-105z" />
<glyph unicode="&#x214;" horiz-adv-x="1363" d="M23 1368v66h626v-66h-135q-25 -141 -25 -287v-729q0 -127 78 -219t193 -92q180 0 268 72.5t88 238.5v729q0 145 -24 287h-136v66h385v-66h-135q-25 -141 -24 -287v-729q0 -211 -123 -294t-377 -83q-225 0 -362.5 95.5t-137.5 281.5v729q0 145 -24 287h-135zM283 1778v65 h209q18 -172 137 -280h-119zM666 1778v65h208q23 -172 138 -280h-119z" />
<glyph unicode="&#x215;" horiz-adv-x="1157" d="M14 836v65q197 0 394 25q-25 -188 -25 -377v-330q0 -63 25.5 -108t72.5 -45q86 0 157 48t105 126v309q0 145 -24 287h-98v65q197 0 393 25q-25 -188 -25 -377v-197q0 -145 25 -286h98v-66q-197 0 -393 -25l24 154q-115 -154 -303 -154t-303 154v420q0 145 -24 287h-99z M96 1315v61h199q27 -195 147 -329h-104zM471 1315v61h199q23 -190 147 -329h-104z" />
<glyph unicode="&#x218;" horiz-adv-x="1148" d="M45 72v286h66q0 -147 134 -234t318 -87q129 0 225.5 76.5t96.5 193.5q0 59 -30 105.5t-84 79t-110.5 55t-125.5 47.5l-21 6q-184 61 -305 183t-121 282q0 176 151.5 286.5t356.5 110.5q217 0 414 -100v-287h-66q0 135 -103.5 228.5t-244.5 93.5q-127 0 -220 -59.5 t-93 -159.5q0 -106 90 -171t239 -116q84 -29 148.5 -55.5t135.5 -67.5t117 -86t76.5 -106.5t30.5 -133.5q0 -203 -166 -337t-391 -134q-268 1 -518 101zM485 -229l66 65h90l66 -65v-90q0 -152 -97 -275l-51 41q45 70 62 168h-70l-66 66v90z" />
<glyph unicode="&#x219;" horiz-adv-x="841" d="M45 41v254h66q0 -109 90 -181.5t213 -72.5q106 0 182 38t76 116q0 25 -8.5 44t-27 32.5t-34.5 22.5t-48 16l-50 11l-58 9q-39 6 -53 8q-135 23 -230 103.5t-95 195.5q0 125 102 207t244 82q160 0 303 -66v-190h-66q0 84 -70.5 137t-166.5 53q-86 0 -149.5 -39t-63.5 -106 q0 -35 18.5 -59.5t59 -39t70.5 -20.5t85 -14q158 -27 265.5 -106t107.5 -204q0 -133 -117 -215t-276 -82q-189 0 -369 66zM303 -229l66 65h90l65 -65v-90q0 -152 -96 -275l-51 41q45 70 61 168h-69l-66 66v90z" />
<glyph unicode="&#x21a;" horiz-adv-x="1355" d="M45 1075v359h1266v-359h-66q0 119 -61.5 206t-159.5 87h-168q-25 -141 -25 -287v-729q0 -145 25 -286h135v-66h-626v66h135q25 141 24 286v729q0 145 -24 287h-168q-98 0 -159.5 -87t-61.5 -206h-66zM567 -229l66 65h90l65 -65v-90q0 -152 -96 -275l-51 41q45 70 61 168 h-69l-66 66v90z" />
<glyph unicode="&#x21b;" horiz-adv-x="602" d="M45 836v65h98v123q29 0 99.5 48t81.5 75h65v-246h168v-65h-168v-607q0 -37 2 -59.5t7 -50t20.5 -40.5t38.5 -13q18 0 39.5 15t27.5 34h33v-66q-90 -74 -205 -74q-94 0 -151.5 42t-57.5 122v697h-98zM209 -229l65 65h91l65 -65v-90q0 -152 -96 -275l-51 41q45 70 61 168 h-70l-65 66v90z" />
<glyph unicode="&#x237;" horiz-adv-x="483" d="M-145 -199h122q0 -164 76 -163q115 0 115 229v682q0 145 -25 287h-98v65h492v-65h-99q-25 -141 -24 -287v-549q0 -176 -115 -302t-283 -126q-55 0 -99 31.5t-62 83.5v114z" />
<glyph unicode="&#x258;" horiz-adv-x="989" d="M59 180l50 43q70 -100 148.5 -140t199.5 -40q119 0 174 119t55 289v67h-258q-184 0 -369 -24q0 180 130 306t313 126q207 0 324.5 -129t117.5 -346.5t-117.5 -346.5t-324.5 -129q-160 0 -250.5 42t-192.5 163zM317 584h367q-6 133 -44 204.5t-138 71.5q-185 0 -185 -276z " />
<glyph unicode="&#x259;" horiz-adv-x="989" d="M59 408q184 -25 369 -25h258v68q0 170 -55.5 288.5t-173.5 118.5q-121 0 -200 -40t-148 -140l-50 43q102 121 192.5 163t250.5 42q207 0 324.5 -129t117.5 -346.5t-117.5 -346.5t-324.5 -129q-182 0 -312.5 126.5t-130.5 306.5zM317 317q0 -276 185 -276q100 0 138 71.5 t44 204.5h-367z" />
<glyph unicode="&#x2be;" horiz-adv-x="712" d="M45 1202v119q119 106 281 106q158 0 250 -89t92 -242.5t-92.5 -243.5t-249.5 -90q-129 0 -248 49v156h117q-8 -55 31.5 -92t99.5 -37q43 0 71.5 20.5t42 58t18.5 79.5t5 100q0 121 -27.5 188.5t-109.5 67.5q-88 0 -150.5 -40t-52.5 -110h-78z" />
<glyph unicode="&#x2bf;" horiz-adv-x="712" d="M45 1093.5q0 153.5 92 243.5t250 90q129 0 248 -49v-155h-117q8 55 -32 92t-99 37q-43 0 -71.5 -20.5t-42 -58.5t-18.5 -80t-5 -99q0 -121 27.5 -188.5t109.5 -67.5q88 0 150.5 40t52.5 109h78v-119q-119 -106 -281 -106q-158 0 -250 89t-92 242.5z" />
<glyph unicode="&#x2c6;" d="M236 1049l153 327h246l153 -327h-202l-140 294l-139 -294h-71z" />
<glyph unicode="&#x2c7;" d="M236 1376h202l140 -297l139 297h71l-153 -327h-246z" />
<glyph unicode="&#x2d8;" d="M301 1360h82q0 -57 35 -92t94 -35t94 35t35 92h82q0 -135 -51 -216t-160 -81t-160 81t-51 216z" />
<glyph unicode="&#x2d9;" d="M389 1161v103l72 71h102l72 -71v-103l-72 -71h-102z" />
<glyph unicode="&#x2da;" d="M324 1135v155l110 111h156l110 -111v-155l-110 -111h-156zM389 1161l72 -71h102l72 71v103l-72 71h-102l-72 -71v-103z" />
<glyph unicode="&#x2db;" d="M293 -260q0 86 85 158.5t197 113.5h99q-76 -27 -136.5 -86t-60.5 -125q0 -63 35 -110t90 -47t98 32l39 -53q-90 -66 -204 -65q-98 0 -170 50t-72 132z" />
<glyph unicode="&#x2dc;" d="M254 1133q168 199 213 198q29 0 74 -37t73 -37q51 0 109 74l47 -41q-168 -199 -213 -198q-29 0 -74 36.5t-73 36.5q-51 0 -109 -73z" />
<glyph unicode="&#x2dd;" d="M207 1047q127 135 151 329h207v-61l-252 -268h-106zM586 1047q127 135 153 329h205v-61l-250 -268h-108z" />
<glyph unicode="&#x300;" horiz-adv-x="0" d="M-760 1315v61h221q25 -195 164 -329h-117z" />
<glyph unicode="&#x301;" horiz-adv-x="0" d="M-633 1047q139 135 164 329h221v-61l-268 -268h-117z" />
<glyph unicode="&#x302;" horiz-adv-x="0" d="M-780 1049l153 327h246l154 -327h-203l-139 294l-140 -294h-71z" />
<glyph unicode="&#x303;" horiz-adv-x="0" d="M-762 1133q168 199 213 198q29 0 74 -37t74 -37q51 0 108 74l47 -41q-168 -199 -213 -198q-29 0 -74 36.5t-73 36.5q-51 0 -109 -73z" />
<glyph unicode="&#x304;" horiz-adv-x="0" d="M-745 1180v65h481v-65h-481z" />
<glyph unicode="&#x306;" horiz-adv-x="0" d="M-715 1360h82q0 -57 35 -92t94.5 -35t94 35t34.5 92h82q0 -135 -51 -216t-159.5 -81t-160 81t-51.5 216z" />
<glyph unicode="&#x307;" horiz-adv-x="0" d="M-627 1161v103l72 71h102l72 -71v-103l-72 -71h-102z" />
<glyph unicode="&#x308;" horiz-adv-x="0" d="M-846 1167v90l66 66h90l65 -66v-90l-65 -65h-90zM-432 1167v90l65 66h91l65 -66v-90l-65 -65h-91z" />
<glyph unicode="&#x309;" horiz-adv-x="0" d="M-694 1264q0 59 56 93t134 34t134.5 -34t56.5 -93q0 -45 -105 -125l-17 -12q-11 -7 -18 -13q-25 -25 -24 -49h-53q0 49 36 90q6 4 16.5 16.5t18.5 18.5q23 18 23 74q0 29 -19.5 49t-48 20t-48 -20.5t-19.5 -48.5h-123z" />
<glyph unicode="&#x30a;" horiz-adv-x="0" d="M-692 1135v155l110 111h156l111 -111v-155l-111 -111h-156zM-627 1161l72 -71h102l72 71v103l-72 71h-102l-72 -71v-103z" />
<glyph unicode="&#x30b;" horiz-adv-x="0" d="M-809 1047q127 135 152 329h206v-61l-251 -268h-107zM-430 1047q127 135 154 329h204v-61l-250 -268h-108z" />
<glyph unicode="&#x30c;" horiz-adv-x="0" d="M-780 1376h202l140 -297l139 297h72l-154 -327h-246z" />
<glyph unicode="&#x30f;" horiz-adv-x="0" d="M-928 1315v61h199q27 -195 147 -329h-104zM-553 1315v61h199q23 -190 147 -329h-104z" />
<glyph unicode="&#x311;" horiz-adv-x="0" d="M-715 1087q0 135 51.5 216t160 81t159.5 -80.5t51 -216.5h-82q0 57 -34.5 92t-94 35t-94.5 -34.5t-35 -92.5h-82z" />
<glyph unicode="&#x323;" horiz-adv-x="0" d="M-627 -221l72 71h102l72 -71v-103l-72 -71h-102l-72 71v103z" />
<glyph unicode="&#x326;" horiz-adv-x="0" d="M-614 -229l65 65h90l66 -65v-90q0 -152 -96 -275l-52 41q45 70 62 168h-70l-65 66v90z" />
<glyph unicode="&#x32e;" horiz-adv-x="0" d="M-715 -141h82q0 -53 36 -83t93.5 -30t93 29.5t35.5 83.5h82q0 -119 -54 -192t-156.5 -73t-157 73t-54.5 192z" />
<glyph unicode="&#x32f;" horiz-adv-x="0" d="M-715 -430q0 119 54.5 191.5t157 72.5t156.5 -72.5t54 -191.5h-82q0 53 -35.5 83t-93 30t-93.5 -30t-36 -83h-82z" />
<glyph unicode="&#x330;" horiz-adv-x="0" d="M-762 -352q168 199 213 198q29 0 74 -36.5t74 -36.5q51 0 108 73l47 -41q-168 -199 -213 -198q-29 0 -74 37t-73 37q-51 0 -109 -74z" />
<glyph unicode="&#x331;" horiz-adv-x="0" d="M-745 -242h481v-65h-481v65z" />
<glyph unicode="&#x332;" horiz-adv-x="0" d="M-745 -242h481v-65h-481v65z" />
<glyph unicode="&#x391;" horiz-adv-x="1329" d="M14 0v66h109q68 131 119 286l264 795q51 152 80 315h102q39 -166 92 -315l293 -795q51 -137 131 -286h109v-66h-561v66h108q-23 123 -80 286l-53 142h-369l-47 -142q-51 -154 -69 -286h106v-66h-334zM381 559h321l-170 461z" />
<glyph unicode="&#x392;" horiz-adv-x="1286" d="M45 0v66h135q25 141 25 286v729q0 145 -25 287h-135v66h653q201 0 325 -88.5t124 -258.5q0 -246 -250 -319q160 -33 252 -127t92 -250q0 -193 -139 -292t-369 -99h-688zM512 352q0 -145 25 -286h106q145 0 228 88t83 237.5t-83 237.5t-228 88h-131v-365zM512 782h127 q119 0 184.5 80t65.5 213t-65.5 213t-184.5 80h-102q-25 -141 -25 -287v-299z" />
<glyph unicode="&#x393;" horiz-adv-x="1081" d="M45 0v66h135q25 141 25 286v729q0 145 -25 287h-135v66h991v-359h-65q0 119 -61.5 206t-159.5 87h-213q-25 -141 -25 -287v-729q0 -145 25 -286h135v-66h-627z" />
<glyph unicode="&#x394;" horiz-adv-x="1519" d="M45 0l715 1434l715 -1434h-1430zM242 246h768l-385 770z" />
<glyph unicode="&#x395;" horiz-adv-x="1142" d="M45 0v66h135q25 141 25 286v729q0 145 -25 287h-135v66h948v-359h-65q0 119 -61.5 206t-159.5 87h-170q-25 -141 -25 -287v-299h215q41 0 69.5 23.5t28.5 60.5v52h66v-336h-66v51q0 37 -28.5 60.5t-69.5 23.5h-215v-365q0 -145 25 -286h274q98 0 159.5 87t61.5 205h66 v-358h-1053z" />
<glyph unicode="&#x396;" horiz-adv-x="1236" d="M45 0v88q182 86 264 270l373 842q41 90 119 168h-412q-98 0 -159.5 -87t-61.5 -206h-66v359h1057v-88q-129 -117 -196 -271l-373 -842q-39 -88 -117 -167h432q98 0 159.5 87t61.5 205h66v-358h-1147z" />
<glyph unicode="&#x397;" horiz-adv-x="1613" d="M45 0v66h135q25 141 25 286v729q0 145 -25 287h-135v66h627v-66h-135q-25 -141 -25 -287v-299h590v299q0 145 -25 287h-135v66h627v-66h-135q-25 -141 -25 -287v-729q0 -145 25 -286h135v-66h-627v66h135q25 141 25 286v365h-590v-365q0 -145 25 -286h135v-66h-627z" />
<glyph unicode="&#x398;" horiz-adv-x="1548" d="M45 717q0 342 196.5 543.5t532.5 201.5t532.5 -201.5t196.5 -543.5t-196.5 -544t-532.5 -202t-532.5 202t-196.5 544zM352 717q0 -176 42 -325.5t141.5 -252t238.5 -102.5t238.5 102.5t141.5 252t42 325.5t-42 325.5t-141.5 252t-238.5 102.5t-238.5 -102.5t-141.5 -252 t-42 -325.5zM453 428v578h65q0 -53 2 -81t17.5 -56.5t46.5 -28.5h381q31 0 46 28.5t17 56t2 81.5h66v-578h-66q0 53 -2 81t-17.5 56.5t-45.5 28.5h-381q-31 0 -46.5 -28.5t-17.5 -56.5t-2 -81h-65z" />
<glyph unicode="&#x399;" horiz-adv-x="716" d="M45 0v66h135q25 141 25 286v729q0 145 -25 287h-135v66h627v-66h-135q-25 -141 -25 -287v-729q0 -145 25 -286h135v-66h-627z" />
<glyph unicode="&#x39a;" horiz-adv-x="1386" d="M45 0v66h135q25 141 25 286v729q0 145 -25 287h-135v66h627v-66h-135q-25 -141 -25 -287v-299h51q98 0 181 50.5t130 136.5q33 57 68 207q16 74 51 192h-90v66h371v-66h-68q-119 0 -186 -217q-41 -141 -88 -217q-61 -98 -158 -158q182 -18 305 -99t135 -224l17 -195 q4 -45 9 -74.5t15.5 -63.5t32 -51.5t51.5 -17.5h33v-65h-205q-143 0 -202.5 52t-71.5 191l-21 244q-12 135 -52 189.5t-154 54.5h-154v-365q0 -145 25 -286h135v-66h-627z" />
<glyph unicode="&#x39b;" horiz-adv-x="1388" d="M45 0v66h121q72 141 121 286l264 795q49 150 80 315h102q31 -164 86 -315l279 -795q47 -139 125 -286h120v-66h-585v66h123q-25 127 -76 286l-232 658l-217 -658q-45 -131 -71 -286h123v-66h-363z" />
<glyph unicode="&#x39c;" horiz-adv-x="1646" d="M45 0v66h135q25 141 25 286v729q0 145 -25 287h-135v66h510q23 -137 72 -287l204 -596l205 596q49 143 74 287h492v-66h-136q-25 -141 -24 -287v-729q0 -145 24 -286h136v-66h-627v66h135q25 141 25 286v729q0 68 -7 136l-319 -930q-49 -143 -74 -287h-65 q-25 143 -74 287l-320 938q-6 -74 -6 -144v-729q0 -145 25 -286h135v-66h-385z" />
<glyph unicode="&#x39d;" horiz-adv-x="1382" d="M45 0v66h135q25 141 25 286v729q0 145 -25 287h-135v66h541q57 -139 143 -287l406 -690v624q0 145 -25 287h-135v66h385v-66h-135q-25 -141 -25 -287v-1081h-153l-762 1298q-14 -100 -15 -217v-729q0 -145 25 -286h135v-66h-385z" />
<glyph unicode="&#x39e;" horiz-adv-x="1212" d="M45 0v461h66q0 -88 34.5 -151.5t100.5 -63.5h721q66 0 100.5 63.5t34.5 151.5h65v-461h-1122zM111 973v461h991v-461h-66q0 88 -34.5 151.5t-100.5 63.5h-590q-66 0 -100.5 -63.5t-34.5 -151.5h-65zM270 428v578h66q0 -53 2 -81t17.5 -56.5t45.5 -28.5h410q31 0 46 28.5 t17.5 56t2.5 81.5h65v-578h-65q0 53 -2.5 81t-17.5 56.5t-46 28.5h-410q-31 0 -46 -28.5t-17 -56.5t-2 -81h-66z" />
<glyph unicode="&#x39f;" horiz-adv-x="1548" d="M45 717q0 342 196.5 543.5t532.5 201.5t532.5 -201.5t196.5 -543.5t-196.5 -544t-532.5 -202t-532.5 202t-196.5 544zM369 717q0 -131 23.5 -248t69.5 -216t127 -157.5t185.5 -58.5t185 58.5t127 157.5t70 216t23.5 248t-23.5 247.5t-70 216t-127 158t-185 58.5 t-185.5 -58.5t-127 -158t-69.5 -216t-23.5 -247.5z" />
<glyph unicode="&#x3a0;" horiz-adv-x="1613" d="M45 0v66h135q25 141 25 286v729q0 145 -25 287h-135v66h1524v-66h-135q-25 -141 -25 -287v-729q0 -145 25 -286h135v-66h-627v66h135q25 141 25 286v729q0 145 -25 287h-540q-25 -141 -25 -287v-729q0 -145 25 -286h135v-66h-627z" />
<glyph unicode="&#x3a1;" horiz-adv-x="1228" d="M45 0v66h135q25 141 25 286v729q0 145 -25 287h-135v66h627q231 0 371.5 -107.5t140.5 -308.5t-140.5 -308.5t-371.5 -107.5h-160v-250q0 -145 25 -286h135v-66h-627zM512 668h131q127 0 188.5 96t61.5 254t-61.5 254t-188.5 96h-106q-25 -141 -25 -287v-413z" />
<glyph unicode="&#x3a3;" horiz-adv-x="1142" d="M45 0l580 645l-580 723v66h1053v-359h-66q0 119 -61.5 206t-159.5 87h-319l409 -512l-547 -610h457q221 0 221 112h66v-358h-1053z" />
<glyph unicode="&#x3a4;" horiz-adv-x="1355" d="M45 1075v359h1266v-359h-66q0 119 -61.5 206t-159.5 87h-168q-25 -141 -25 -287v-729q0 -145 25 -286h135v-66h-626v66h135q25 141 24 286v729q0 145 -24 287h-168q-98 0 -159.5 -87t-61.5 -206h-66z" />
<glyph unicode="&#x3a5;" horiz-adv-x="1409" d="M45 1229v205q125 29 246 28q174 0 281.5 -136t148.5 -355q74 492 397 491q121 0 246 -28v-205q-111 29 -221 28q-68 0 -117 -26.5t-80 -81.5t-49 -111.5t-26.5 -146.5t-10.5 -153.5t-2 -164.5v-221q0 -145 25 -286h135v-66h-627v66h135q25 141 25 286v221q0 100 -2 164 t-10.5 154t-26.5 146.5t-49 111.5t-80 81.5t-117 26.5q-110 1 -221 -28z" />
<glyph unicode="&#x3a6;" horiz-adv-x="1613" d="M45 716.5q0 237.5 162 363.5t440 155q-6 63 -18 133h-135v66h626v-66h-135q-12 -70 -18 -133q279 -29 440.5 -155t161.5 -363.5t-162 -363.5t-440 -154q6 -63 18 -133h135v-66h-626v66h135q12 70 18 133q-279 29 -440.5 154.5t-161.5 363zM352 716.5q0 -147.5 83 -265 t216 -166.5l2 67v729l-2 68q-133 -49 -216 -167t-83 -265.5zM961 352l2 -67q133 49 216 166.5t83 265t-83 265.5t-216 167l-2 -68v-729z" />
<glyph unicode="&#x3a7;" horiz-adv-x="1363" d="M23 0v66h135q125 152 213 286l182 279l-227 450q-78 156 -168 287h-135v66h663v-66h-135q45 -137 119 -287l78 -153l100 153q92 141 164 287h-135v66h397v-66h-135q-125 -152 -213 -287l-144 -221l256 -508q78 -156 168 -286h135v-66h-663v66h135q-45 137 -119 286 l-106 211l-139 -211q-92 -141 -164 -286h135v-66h-397z" />
<glyph unicode="&#x3a8;" horiz-adv-x="1769" d="M45 1393v65q104 0 194.5 -14t170 -46t126 -91.5t46.5 -139.5v-364q0 -102 37.5 -176t111.5 -76v530q0 145 -24 287h-136v66h627v-66h-135q-25 -141 -25 -287v-530q74 2 112 75.5t38 176.5v364q0 80 46 139.5t126 91.5t170 46t194 14v-65q-96 0 -162.5 -65.5t-66.5 -160.5 v-364q0 -147 -135 -231.5t-322 -86.5v-133q0 -145 25 -286h135v-66h-627v66h136q25 141 24 286v133q-186 2 -321.5 86t-135.5 232v364q0 94 -66.5 160t-162.5 66z" />
<glyph unicode="&#x3a9;" horiz-adv-x="1548" d="M45 0v358h66q0 -113 221 -112h18q-236 262 -235 614q0 254 194.5 426t464.5 172t465 -172t195 -426q0 -352 -236 -614h19q221 0 221 112h65v-358h-598v66q197 334 197 722q0 117 -16.5 219.5t-52.5 191.5t-102.5 141.5t-156.5 52.5t-156.5 -52.5t-102.5 -141.5 t-52.5 -191.5t-16.5 -219.5q0 -389 197 -722v-66h-598z" />
<glyph unicode="&#x3b1;" horiz-adv-x="1146" d="M45 432q0 203 132 348.5t323 145.5q209 0 317 -260q29 119 35 235h246q-121 -193 -230 -412l9 -57q8 -63 69 -246q20 -63 60 -63q68 0 75 6l41 -51q-133 -98 -241 -98q-82 0 -131 135q-14 47 -27 116l-70 -100q-113 -156 -237 -156q-162 0 -266.5 136.5t-104.5 320.5z M291 432q0 -59 1 -92t4 -87t11 -85t20.5 -63.5t35 -48t53.5 -15.5q92 0 184 129q23 27 100 201l-8 61q-10 84 -20 133t-30.5 112.5t-55.5 94.5t-86 31q-109 0 -159 -108.5t-50 -262.5z" />
<glyph unicode="&#x3b2;" horiz-adv-x="1069" d="M90 -164v1120q0 203 124 352.5t310 149.5q154 0 265.5 -98t111.5 -242q0 -98 -53 -178t-141 -123q139 -41 228 -138t89 -228q0 -197 -136 -336.5t-331 -139.5q-123 0 -221 72v-211q0 -113 72 -303l-291 49q-27 76 -27 254zM336 135q88 -94 221 -94q117 0 169 119t52 291 q0 109 -69.5 188.5t-169.5 79.5l2 127q39 0 63.5 22.5t34.5 68.5t13 83t3 98q0 274 -131 275q-63 0 -103 -37t-57.5 -107.5t-22.5 -134t-5 -158.5v-821z" />
<glyph unicode="&#x3b3;" horiz-adv-x="1032" d="M45 836v65q156 0 299 37q242 -317 297 -733q178 190 178 516q0 72 -102 162l213 37q61 -53 61 -199q0 -176 -92 -332t-250 -272q4 -39 4 -117l-2 -420l-250 -45q31 389 31 465q0 385 -201 725q-65 111 -186 111z" />
<glyph unicode="&#x3b4;" horiz-adv-x="1077" d="M45 451q0 170 117 294.5t297 167.5q-125 84 -195.5 168t-70.5 191q0 82 70.5 134t166.5 52q350 0 502 -196l-129 -101q-178 231 -373 232q-37 0 -57.5 -36t-20.5 -85q0 -29 37 -71t116 -99l128 -91l141 -96q119 -78 188.5 -201.5t69.5 -262.5q0 -199 -145.5 -337.5 t-348 -138.5t-348 138.5t-145.5 337.5zM291 451q0 -170 62.5 -290t185.5 -120t185 120t62 290q0 231 -247 409q-113 -31 -180.5 -147.5t-67.5 -261.5z" />
<glyph unicode="&#x3b5;" horiz-adv-x="815" d="M45 225q0 195 270 252q-233 39 -233 199q0 111 97 180.5t229 69.5q84 0 129 -3t110.5 -20.5t106.5 -54.5l-113 -127q-158 139 -233 139q-59 0 -94 -55t-35 -129q0 -147 311 -148v-90q-121 0 -210 -57t-89 -156q0 -43 34.5 -72.5t82.5 -29.5q82 0 128 2t110.5 17.5 t103.5 43.5l41 -53q-80 -61 -124 -90t-118 -60.5t-141 -31.5q-147 0 -255 75.5t-108 198.5z" />
<glyph unicode="&#x3b6;" horiz-adv-x="937" d="M86 287q0 463 367 854q-43 -6 -88 -6q-180 0 -222 26v250q162 -104 222 -104q186 0 317 36q72 55 170 113l57 -129q-154 -102 -295 -149q-283 -336 -282 -891q0 -125 217 -197q297 -102 297 -287q0 -125 -116 -192.5t-259 -36.5l14 66q51 -12 83 39t32 124q0 35 -217 107 q-129 45 -213 146.5t-84 230.5z" />
<glyph unicode="&#x3b7;" horiz-adv-x="1122" d="M45 836v65q190 0 363 21q29 -84 45 -181q80 184 239 185q139 0 239.5 -91.5t100.5 -224.5v-733q0 -156 -20 -297l-254 -45q29 176 28 342v733q0 193 -94 193q-104 0 -161.5 -94.5t-67.5 -237.5v-448l-246 -46v633q0 61 -10 138q-15 88 -162 88z" />
<glyph unicode="&#x3b8;" horiz-adv-x="1060" d="M45 716.5q0 194.5 51 360.5t164 277.5t270.5 111.5t270 -111.5t164 -277.5t51.5 -360.5t-51.5 -360.5t-164 -277.5t-270 -111.5t-270.5 111.5t-164 277.5t-51 360.5zM291 684q0 -94 2 -155.5t8 -146.5t22.5 -139.5t42 -106.5t67.5 -77.5t97.5 -25.5t97.5 25.5t67.5 77.5 t42 106.5t22.5 139.5t8 146.5t2 155.5h-479zM291 750h479q0 94 -2 155.5t-8 146.5t-22.5 139t-42 106.5t-67.5 78t-97.5 25.5t-97.5 -25.5t-67.5 -78t-42 -106.5t-22.5 -139t-8 -146.5t-2 -155.5z" />
<glyph unicode="&#x3b9;" horiz-adv-x="552" d="M90 225v676h246v-676q0 -127 53 -127q78 0 92 19l54 -37q-72 -104 -146 -105q-121 0 -210 70.5t-89 179.5z" />
<glyph unicode="&#x3ba;" horiz-adv-x="1040" d="M45 836v65q197 0 393 25q-25 -188 -24 -377v-41q84 170 228 285.5t329 148.5v-197q-272 -47 -443 -253q33 -121 97 -242q39 -70 110.5 -110t153.5 -40q53 0 86 25l41 -53q-147 -106 -307 -106.5t-295 220.5v-163l-246 -46v572q0 145 -25 287h-98z" />
<glyph unicode="&#x3bb;" horiz-adv-x="1073" d="M49 1276q82 158 213 158q160 0 263.5 -136.5t152.5 -339.5l178 -727q29 -131 102 -131q31 0 48 17l45 -45q-102 -106 -248 -107q-55 0 -96 43t-59.5 92.5t-37.5 126.5l-88 359l-149 -586h-246l330 858l-23 96q-18 76 -31.5 123t-36 109.5t-48 93.5t-56.5 31 q-121 0 -156 -64z" />
<glyph unicode="&#x3bc;" horiz-adv-x="1089" d="M90 -418v1319h246v-600q0 -74 31.5 -126t89.5 -52q84 0 149 53q-6 25 -6 49v676h246v-676q0 -127 53 -127q78 0 92 19l53 -37q-72 -104 -145 -105q-137 0 -229 88q-88 -104 -213 -104t-226 72q35 -248 129 -473z" />
<glyph unicode="&#x3bd;" horiz-adv-x="1015" d="M45 836v65q168 0 317 21q119 -158 175 -351q39 -133 41 -266l186 379q10 20 9 42t-6 39t-22.5 41.5t-28.5 38t-34 38.5l217 37q72 -76 -16 -252l-338 -668h-105q0 240 -112 567q-27 76 -158 215q-53 54 -125 54z" />
<glyph unicode="&#x3be;" horiz-adv-x="946" d="M45 1159v221q160 -63 184 -67q336 -45 521 100l65 -82q-197 -156 -389 -194q-59 -88 -59 -205q0 -33 15 -58.5t48 -40t62.5 -23.5t85 -12t87 -4t93.5 -1v-123q-211 0 -299 -64q-143 -98 -144 -305q0 -86 75 -138t188 -73q147 -29 245.5 -100.5t98.5 -186.5 q0 -102 -88.5 -165.5t-206.5 -63.5v66q49 0 73.5 48t24.5 115q0 47 -311 107q-147 31 -245.5 139.5t-98.5 251.5q0 180 204 324q57 41 109 67q-111 20 -186.5 83t-75.5 157q0 115 112 196h-4q-164 21 -184 31z" />
<glyph unicode="&#x3bf;" horiz-adv-x="1030" d="M59 450.5q0 217.5 124 346.5t339 129t339 -129t124 -346.5t-124 -346.5t-339 -129t-339 129t-124 346.5zM305 450.5q0 -124.5 13.5 -206.5t63.5 -142.5t140 -60.5t140.5 60.5t63.5 142.5t13 206.5t-13 206.5t-63.5 142.5t-140.5 60.5t-140 -60.5t-63.5 -142.5 t-13.5 -206.5z" />
<glyph unicode="&#x3c0;" horiz-adv-x="1298" d="M63 688q90 213 224 213h966v-221q-104 14 -231 20l18 -475q2 -35 3 -47t5.5 -36.5t15.5 -34t30 -9.5q78 0 92 19l53 -37q-72 -104 -145 -105q-123 0 -213 72t-86 178l18 480h-289l-16 -705l-246 -25l117 730h-92q-145 0 -162 -41z" />
<glyph unicode="&#x3c1;" horiz-adv-x="1036" d="M90 -164v754q0 147 124 241.5t294 94.5q201 0 342 -140.5t141 -339.5q0 -193 -131 -332t-319 -139q-109 0 -205 60v-199q0 -145 29 -301l-254 45q-21 121 -21 256zM336 117q88 -76 205 -76q205 0 204 405q0 172 -57 293t-180 121q-84 0 -128 -80t-44 -190v-473z" />
<glyph unicode="&#x3c2;" horiz-adv-x="798" d="M45 492q0 178 114.5 306t282.5 128q236 0 314 -60l-94 -125q-158 119 -220 119q-53 0 -85.5 -30.5t-46 -93t-16.5 -112t-3 -132.5q0 -184 88 -230l299 -151q37 -18 55.5 -61.5t20.5 -77t2 -95.5q0 -76 -73 -116t-173 -40v66q37 0 61.5 26.5t24.5 63.5q0 41 -123 103 l-297 151q-82 41 -106.5 132.5t-24.5 228.5z" />
<glyph unicode="&#x3c3;" horiz-adv-x="966" d="M45 450.5q0 217.5 117 346.5t321 129q33 0 47 -2q156 2 262.5 25.5t180.5 97.5l94 -95q-78 -76 -342 -90q197 -121 197 -411q0 -217 -117 -346.5t-321.5 -129.5t-321.5 129t-117 346.5zM303 370q0 -22 2 -73t6 -71.5t12.5 -58.5t21.5 -54.5t31.5 -37t45.5 -27.5t61.5 -7 t61 7t45 27.5t32 37t21.5 54.5t12 58.5t6.5 71.5t2.5 73v81v80q0 22 -2.5 73t-6.5 71.5t-12 58.5t-21.5 54.5t-32 37t-45 27.5t-61 7t-61.5 -7t-45.5 -27.5t-31.5 -37t-21.5 -54.5t-12.5 -58.5t-6 -71.5t-2 -73v-80v-81z" />
<glyph unicode="&#x3c4;" horiz-adv-x="1011" d="M63 686q78 215 213 215h691v-221q-172 25 -346 25h-23l18 -480q2 -35 3.5 -47t5.5 -36.5t15 -34t30 -9.5q78 0 92 19l53 -37q-72 -104 -145 -105q-123 0 -213 72t-86 178l18 480h-113q-137 0 -151 -39z" />
<glyph unicode="&#x3c5;" horiz-adv-x="966" d="M45 836v65q197 0 393 25q-25 -188 -24 -377v-248q0 -109 40 -184.5t117 -75.5q141 0 215 138t74 333q0 119 -81 215t-206 156l205 37q104 -49 154.5 -161t50.5 -247q0 -217 -113.5 -377t-298.5 -160q-164 0 -283.5 91.5t-119.5 234.5v248q0 145 -25 287h-98z" />
<glyph unicode="&#x3c6;" horiz-adv-x="1261" d="M45 450.5q0 186.5 145.5 316.5t356.5 155q-6 205 -39 440l246 -25q-29 -197 -39 -415q211 -25 356.5 -155t145.5 -316.5t-144.5 -315.5t-353.5 -153q10 -211 31 -424l-238 24q20 201 31 400q-209 25 -353.5 153.5t-144.5 315zM291 451q0 -139 70.5 -252t183.5 -146l4 203 v532v60q-115 -33 -186.5 -144.5t-71.5 -252.5zM713 256l4 -203q113 33 183.5 145.5t70.5 252.5q0 141 -72 252.5t-186 144.5v-60v-532z" />
<glyph unicode="&#x3c7;" horiz-adv-x="1073" d="M45 836v65q158 0 301 39q90 -176 193 -430q61 170 120 391h271q-184 -262 -324 -549l21 -53l229 -541q35 -84 102 -84q31 0 48 17l45 -45q-102 -106 -248 -107q-49 0 -89 37t-57.5 72t-46.5 102l-125 338q-96 -236 -170 -506h-245q211 313 360 656l-22 55 q-57 139 -228 483q-31 60 -135 60z" />
<glyph unicode="&#x3c8;" horiz-adv-x="1245" d="M45 836v65q197 0 393 25q-25 -188 -24 -377v-248q0 -82 49 -146.5t129 -93.5l2 195v358q0 317 -41 605h246q-41 -309 -41 -605v-358l4 -209q141 25 228 159t87 306q0 100 -56 187t-155 184l217 37q117 -115 117 -408q0 -203 -125 -355.5t-313 -176.5l20 -398l-237 -24 q31 213 43 424q-182 20 -301 100t-119 219v248q0 145 -25 287h-98z" />
<glyph unicode="&#x3c9;" horiz-adv-x="1286" d="M45 455q0 82 47 173t94 147t133 149l50 -45q-37 -39 -55.5 -120t-20.5 -140.5t-2 -163.5q0 -63 1 -96t3 -91.5t10 -90.5t19.5 -67.5t32 -52t49.5 -16.5q27 0 48 24.5t32.5 78t19.5 102.5t10 134t3 134t1 139l246 45q0 -299 -64 -477q45 -180 179 -180q29 0 49 16.5 t31.5 52t19.5 67.5t10 90.5t3 91t1 96.5q0 104 -2 163.5t-20.5 140.5t-54.5 120l49 45q86 -92 133 -148.5t94 -147.5t47 -173q0 -195 -99.5 -337.5t-260.5 -142.5q-154 0 -217 162q-88 -162 -258 -162q-162 0 -261.5 142.5t-99.5 337.5z" />
<glyph unicode="&#x3d1;" horiz-adv-x="1015" d="M45 475v66q197 0 393 24q-25 -188 -24 -377q0 -61 41 -104t100 -43q57 0 94 51t52.5 153.5t19.5 185.5t4 216q-180 12 -318.5 55t-234.5 139.5t-96 233.5q0 158 113.5 270.5t271.5 112.5q166 0 284.5 -116.5t172 -289.5t53.5 -376q0 -135 -23.5 -256t-72 -222.5 t-130 -162t-190.5 -60.5q-102 0 -185 18.5t-142.5 69t-59.5 125.5q0 145 -25 287h-98zM322 1075q0 -143 114.5 -236.5t288.5 -119.5q0 84 -1 139t-7 133t-16.5 129t-30 107.5t-47 89.5t-68.5 54.5t-94 21.5q-45 0 -75 -27t-43 -78t-17 -98t-4 -115z" />
<glyph unicode="&#x3d5;" horiz-adv-x="1261" d="M45 451q0 279 387 460v-86q-86 -43 -113.5 -138t-27.5 -236q0 -127 59.5 -232.5t157.5 -150.5v653q0 96 92 150.5t219 54.5q170 0 284 -141.5t114 -333.5q0 -178 -132.5 -305.5t-330.5 -159.5v-451l-246 45v406q-199 33 -331 160t-132 305zM754 68q98 45 157.5 150.5 t59.5 232.5q0 63 -1 97t-5 91t-13.5 89t-26 66.5t-43 50t-63.5 15.5q-66 0 -65 -139v-653z" />
<glyph unicode="&#x3d6;" horiz-adv-x="1376" d="M45 455q0 70 23.5 134t74 127.5t91 105.5t110.5 104l45 -49q-45 -41 -68.5 -121t-26.5 -138.5t-3 -162.5q0 -63 1 -97t4 -92.5t12 -90.5t23.5 -66.5t39 -51t57.5 -16.5t57.5 24.5t39 77t23.5 101.5t12 134t4 134t1 141l246 45q0 -283 -66 -456q45 -201 203 -201 q33 0 57.5 16.5t39 51t23.5 66.5t12 90.5t4 92t1 97.5q0 256 -194 438q-164 152 -383 151q-109 0 -205 -38l-24 61q145 57 303 57q315 0 546 -215q203 -190 203 -454q0 -195 -107.5 -337.5t-275.5 -142.5q-166 0 -237 187q-98 -186 -283 -187q-168 0 -275.5 142.5 t-107.5 337.5z" />
<glyph unicode="&#x3f1;" horiz-adv-x="966" d="M45 451q0 217 117 346t321.5 129t321.5 -129t117 -346.5t-117 -346.5t-322 -129q-246 0 -360 183q37 -305 235 -340q41 -6 127 2t127 -2q98 -20 153.5 -108.5t57.5 -201.5h-65q0 51 -43 85t-107 49q-41 10 -127 1.5t-127 -1.5q-57 10 -102 33.5t-77 66.5t-54.5 85 t-36.5 109.5t-22.5 116.5t-11.5 133t-4 130.5t-1 134.5zM291 450.5q0 -67.5 1 -107.5t7 -94t18.5 -86t33 -62.5t54 -45t78.5 -14.5t79 14.5t54.5 45t33 62.5t18.5 86t7 94t1 107.5t-1 107.5t-7 94.5t-18.5 86t-33 62t-54.5 45t-79 14.5t-78.5 -14.5t-54 -45t-33 -62 t-18.5 -86t-7 -94.5t-1 -107.5z" />
<glyph unicode="&#x3f5;" horiz-adv-x="821" d="M45 477q0 201 175 325t415 124h119v-66h-119q-137 0 -234.5 -102.5t-107.5 -247.5h342v-66h-344q6 -147 63.5 -246.5t163.5 -99.5q160 0 217 41l37 -55q-158 -109 -254 -109q-199 0 -336 147.5t-137 354.5z" />
<glyph unicode="&#x413;" horiz-adv-x="1081" d="M45 0v66h135q25 141 25 286v729q0 145 -25 287h-135v66h991v-359h-65q0 119 -61.5 206t-159.5 87h-213q-25 -141 -25 -287v-729q0 -145 25 -286h135v-66h-627z" />
<glyph unicode="&#x424;" horiz-adv-x="1613" d="M45 716.5q0 237.5 162 363.5t440 155q-6 63 -18 133h-135v66h626v-66h-135q-12 -70 -18 -133q279 -29 440.5 -155t161.5 -363.5t-162 -363.5t-440 -154q6 -63 18 -133h135v-66h-626v66h135q12 70 18 133q-279 29 -440.5 154.5t-161.5 363zM352 716.5q0 -147.5 83 -265 t216 -166.5l2 67v729l-2 68q-133 -49 -216 -167t-83 -265.5zM961 352l2 -67q133 49 216 166.5t83 265t-83 265.5t-216 167l-2 -68v-729z" />
<glyph unicode="&#xe3f;" horiz-adv-x="1286" d="M45 0v66h135q25 141 25 286v729q0 145 -25 287h-135v66h633v122h65v-124q182 -8 293 -95.5t111 -249.5q0 -246 -250 -319q160 -33 252 -127t92 -250q0 -190 -137 -289.5t-361 -101.5v-123h-65v123h-633zM512 352q0 -145 25 -286h106q23 0 35 2v647q-12 2 -35 2h-131v-365 zM512 782h127q27 0 39 2v582q-12 2 -39 2h-102q-25 -141 -25 -287v-299zM743 78q100 27 155.5 109.5t55.5 203.5t-55 204t-156 110v-627zM743 803q145 63 145.5 272t-145.5 273v-545z" />
<glyph unicode="&#x1e0c;" horiz-adv-x="1581" d="M45 0v66h135q25 141 25 286v729q0 145 -25 287h-135v66h746q342 0 543.5 -191.5t201.5 -525.5t-201.5 -525.5t-543.5 -191.5h-746zM512 352q0 -145 25 -286h188q219 0 353 193.5t134 457.5t-134 457.5t-353 193.5h-188q-25 -141 -25 -287v-729zM602 -221l72 71h102 l72 -71v-103l-72 -71h-102l-72 71v103z" />
<glyph unicode="&#x1e0d;" horiz-adv-x="1165" d="M59 450.5q0 217.5 122 346.5t333 129q139 0 238 -99v254q0 145 -25 287h-98v66q197 0 393 24q-25 -188 -25 -377v-729q0 -145 25 -286h98v-66q-190 0 -381 -25l13 105q-94 -104 -238 -105q-211 0 -333 129t-122 346.5zM317 451q0 -410 246 -410q80 0 134.5 63.5 t54.5 149.5v504q-80 102 -213 102q-70 0 -115 -31.5t-67.5 -92t-31 -127t-8.5 -158.5zM461 -221l71 71h103l72 -71v-103l-72 -71h-103l-71 71v103z" />
<glyph unicode="&#x1e0e;" horiz-adv-x="1581" d="M45 0v66h135q25 141 25 286v729q0 145 -25 287h-135v66h746q342 0 543.5 -191.5t201.5 -525.5t-201.5 -525.5t-543.5 -191.5h-746zM483 -242h482v-65h-482v65zM512 352q0 -145 25 -286h188q219 0 353 193.5t134 457.5t-134 457.5t-353 193.5h-188q-25 -141 -25 -287v-729 z" />
<glyph unicode="&#x1e0f;" horiz-adv-x="1165" d="M59 450.5q0 217.5 122 346.5t333 129q139 0 238 -99v254q0 145 -25 287h-98v66q197 0 393 24q-25 -188 -25 -377v-729q0 -145 25 -286h98v-66q-190 0 -381 -25l13 105q-94 -104 -238 -105q-211 0 -333 129t-122 346.5zM317 451q0 -410 246 -410q80 0 134.5 63.5 t54.5 149.5v504q-80 102 -213 102q-70 0 -115 -31.5t-67.5 -92t-31 -127t-8.5 -158.5zM342 -242h481v-65h-481v65z" />
<glyph unicode="&#x1e24;" horiz-adv-x="1613" d="M45 0v66h135q25 141 25 286v729q0 145 -25 287h-135v66h627v-66h-135q-25 -141 -25 -287v-299h590v299q0 145 -25 287h-135v66h627v-66h-135q-25 -141 -25 -287v-729q0 -145 25 -286h135v-66h-627v66h135q25 141 25 286v365h-590v-365q0 -145 25 -286h135v-66h-627z M684 -221l72 71h102l72 -71v-103l-72 -71h-102l-72 71v103z" />
<glyph unicode="&#x1e25;" horiz-adv-x="1187" d="M45 0v66h98q25 141 25 286v729q0 145 -25 287h-98v66q197 0 393 24q-25 -188 -24 -377v-309q115 154 303 154t303 -154v-420q0 -145 24 -286h99v-66h-492v66h99q25 141 24 286v330q0 63 -25.5 108.5t-72.5 45.5q-86 0 -156.5 -48.5t-105.5 -125.5v-310q0 -145 24 -286h99 v-66h-492zM471 -221l72 71h102l72 -71v-103l-72 -71h-102l-72 71v103z" />
<glyph unicode="&#x1e26;" horiz-adv-x="1613" d="M45 0v66h135q25 141 25 286v729q0 145 -25 287h-135v66h627v-66h-135q-25 -141 -25 -287v-299h590v299q0 145 -25 287h-135v66h627v-66h-135q-25 -141 -25 -287v-729q0 -145 25 -286h135v-66h-627v66h135q25 141 25 286v365h-590v-365q0 -145 25 -286h135v-66h-627z M489 1659v90l66 66h90l66 -66v-90l-66 -66h-90zM903 1659v90l66 66h90l65 -66v-90l-65 -66h-90z" />
<glyph unicode="&#x1e27;" horiz-adv-x="1187" d="M45 0v66h98q25 141 25 286v729q0 145 -25 287h-98v66q197 0 393 24q-25 -188 -24 -377v-309q115 154 303 154t303 -154v-420q0 -145 24 -286h99v-66h-492v66h99q25 141 24 286v330q0 63 -25.5 108.5t-72.5 45.5q-86 0 -156.5 -48.5t-105.5 -125.5v-310q0 -145 24 -286h99 v-66h-492zM231 1659v90l66 66h90l66 -66v-90l-66 -66h-90zM645 1659v90l66 66h90l65 -66v-90l-65 -66h-90z" />
<glyph unicode="&#x1e2a;" horiz-adv-x="1613" d="M45 0v66h135q25 141 25 286v729q0 145 -25 287h-135v66h627v-66h-135q-25 -141 -25 -287v-299h590v299q0 145 -25 287h-135v66h627v-66h-135q-25 -141 -25 -287v-729q0 -145 25 -286h135v-66h-627v66h135q25 141 25 286v365h-590v-365q0 -145 25 -286h135v-66h-627z M596 -141h82q0 -53 36 -83t93 -30t93 29.5t36 83.5h82q0 -119 -54.5 -192t-156.5 -73t-156.5 73t-54.5 192z" />
<glyph unicode="&#x1e2b;" horiz-adv-x="1187" d="M45 0v66h98q25 141 25 286v729q0 145 -25 287h-98v66q197 0 393 24q-25 -188 -24 -377v-309q115 154 303 154t303 -154v-420q0 -145 24 -286h99v-66h-492v66h99q25 141 24 286v330q0 63 -25.5 108.5t-72.5 45.5q-86 0 -156.5 -48.5t-105.5 -125.5v-310q0 -145 24 -286h99 v-66h-492zM383 -141h82q0 -53 36 -83t93 -30t93 29.5t36 83.5h82q0 -119 -54.5 -192t-156.5 -73t-156.5 73t-54.5 192z" />
<glyph unicode="&#x1e2e;" horiz-adv-x="716" d="M41 1659v90l65 66h91l65 -66v-90l-65 -66h-91zM45 0v66h135q25 141 25 286v729q0 145 -25 287h-135v66h627v-66h-135q-25 -141 -25 -287v-729q0 -145 25 -286h135v-66h-627zM262 1880q127 109 154 281h231v-64l-252 -217h-133zM455 1659v90l65 66h90l66 -66v-90l-66 -66 h-90z" />
<glyph unicode="&#x1e2f;" horiz-adv-x="581" d="M-27 1126v91l66 65h90l66 -65v-91l-66 -65h-90zM45 0v66h98q25 141 25 286v197q0 145 -25 287h-98v65q197 0 393 25q-25 -188 -24 -377v-197q0 -145 24 -286h99v-66h-492zM195 1348q127 109 153 280h232v-63l-252 -217h-133zM387 1126v91l66 65h90l65 -65v-91l-65 -65 h-90z" />
<glyph unicode="&#x1e36;" horiz-adv-x="1142" d="M45 0v66h135q25 141 25 286v729q0 145 -25 287h-135v66h627v-66h-135q-25 -141 -25 -287v-729q0 -145 25 -286h274q98 0 159.5 87t61.5 205h66v-358h-1053zM403 -221l72 71h103l71 -71v-103l-71 -71h-103l-72 71v103z" />
<glyph unicode="&#x1e37;" horiz-adv-x="581" d="M45 0v66h98q25 141 25 286v729q0 145 -25 287h-98v66q197 0 393 24q-25 -188 -24 -377v-729q0 -145 24 -286h99v-66h-492zM168 -221l72 71h102l72 -71v-103l-72 -71h-102l-72 71v103z" />
<glyph unicode="&#x1e38;" horiz-adv-x="1142" d="M45 0v66h135q25 141 25 286v729q0 145 -25 287h-135v66h627v-66h-135q-25 -141 -25 -287v-729q0 -145 25 -286h274q98 0 159.5 87t61.5 205h66v-358h-1053zM117 1671v66h481v-66h-481zM403 -221l72 71h103l71 -71v-103l-71 -71h-103l-72 71v103z" />
<glyph unicode="&#x1e39;" horiz-adv-x="581" d="M45 0v66h98q25 141 25 286v729q0 145 -25 287h-98v66q197 0 393 24q-25 -188 -24 -377v-729q0 -145 24 -286h99v-66h-492zM49 1696v65h481v-65h-481zM168 -221l72 71h102l72 -71v-103l-72 -71h-102l-72 71v103z" />
<glyph unicode="&#x1e42;" horiz-adv-x="1646" d="M45 0v66h135q25 141 25 286v729q0 145 -25 287h-135v66h510q23 -137 72 -287l204 -596l205 596q49 143 74 287h492v-66h-136q-25 -141 -24 -287v-729q0 -145 24 -286h136v-66h-627v66h135q25 141 25 286v729q0 68 -7 136l-319 -930q-49 -143 -74 -287h-65 q-25 143 -74 287l-320 938q-6 -74 -6 -144v-729q0 -145 25 -286h135v-66h-385zM700 -221l72 71h102l72 -71v-103l-72 -71h-102l-72 71v103z" />
<glyph unicode="&#x1e43;" horiz-adv-x="1794" d="M45 0v66h98q25 141 25 286v197q0 145 -25 287h-98v65q197 0 393 25l-24 -154q115 154 303 154t303 -154q115 154 303 154t303 -154v-420q0 -145 25 -286h98v-66h-492v66h99q25 141 24 286v330q0 63 -25.5 108.5t-72.5 45.5q-86 0 -156.5 -48.5t-105.5 -125.5v-310 q0 -145 24 -286h99v-66h-492v66h99q25 141 24 286v330q0 63 -25.5 108.5t-72.5 45.5q-86 0 -156.5 -48.5t-105.5 -125.5v-310q0 -145 24 -286h99v-66h-492zM774 -221l72 71h102l72 -71v-103l-72 -71h-102l-72 71v103z" />
<glyph unicode="&#x1e44;" horiz-adv-x="1382" d="M45 0v66h135q25 141 25 286v729q0 145 -25 287h-135v66h541q57 -139 143 -287l406 -690v624q0 145 -25 287h-135v66h385v-66h-135q-25 -141 -25 -287v-1081h-153l-762 1298q-14 -100 -15 -217v-729q0 -145 25 -286h135v-66h-385zM580 1653v102l71 72h103l71 -72v-102 l-71 -72h-103z" />
<glyph unicode="&#x1e45;" horiz-adv-x="1187" d="M45 0v66h98q25 141 25 286v197q0 145 -25 287h-98v65q197 0 393 25l-24 -154q115 154 303 154t303 -154v-420q0 -145 24 -286h99v-66h-492v66h99q25 141 24 286v330q0 63 -25.5 108.5t-72.5 45.5q-86 0 -156.5 -48.5t-105.5 -125.5v-310q0 -145 24 -286h99v-66h-492z M471 1161v103l72 71h102l72 -71v-103l-72 -71h-102z" />
<glyph unicode="&#x1e46;" horiz-adv-x="1382" d="M45 0v66h135q25 141 25 286v729q0 145 -25 287h-135v66h541q57 -139 143 -287l406 -690v624q0 145 -25 287h-135v66h385v-66h-135q-25 -141 -25 -287v-1081h-153l-762 1298q-14 -100 -15 -217v-729q0 -145 25 -286h135v-66h-385zM580 -221l71 71h103l71 -71v-103l-71 -71 h-103l-71 71v103z" />
<glyph unicode="&#x1e47;" horiz-adv-x="1187" d="M45 0v66h98q25 141 25 286v197q0 145 -25 287h-98v65q197 0 393 25l-24 -154q115 154 303 154t303 -154v-420q0 -145 24 -286h99v-66h-492v66h99q25 141 24 286v330q0 63 -25.5 108.5t-72.5 45.5q-86 0 -156.5 -48.5t-105.5 -125.5v-310q0 -145 24 -286h99v-66h-492z M471 -221l72 71h102l72 -71v-103l-72 -71h-102l-72 71v103z" />
<glyph unicode="&#x1e58;" horiz-adv-x="1308" d="M45 0v66h135q25 141 25 286v729q0 145 -25 287h-135v66h627q231 0 371.5 -89.5t140.5 -275.5q0 -270 -324 -340q240 -74 256 -264l19 -215q16 -199 127 -199h32v-65h-204q-127 0 -188.5 56t-72.5 183l-20 238q-10 125 -63.5 182t-167.5 57h-66v-350q0 -145 25 -286h135 v-66h-627zM467 1653v102l72 72h102l72 -72v-102l-72 -72h-102zM512 768h131q119 0 184.5 83t65.5 218t-65.5 217t-184.5 82h-106q-25 -141 -25 -287v-313z" />
<glyph unicode="&#x1e59;" horiz-adv-x="866" d="M45 0v66h98q25 141 25 286v197q0 145 -25 287h-98v65q197 0 393 25q-8 -55 -16 -166q27 66 92.5 116t128.5 50q78 0 133 -54.5t55 -132.5v-63h-221q0 37 -1 57.5t-5 49t-14 42t-29 13.5q-147 0 -147 -338v-148q0 -145 24 -286h148v-66h-541zM291 1161v103l71 71h103 l72 -71v-103l-72 -71h-103z" />
<glyph unicode="&#x1e5a;" horiz-adv-x="1308" d="M45 0v66h135q25 141 25 286v729q0 145 -25 287h-135v66h627q231 0 371.5 -89.5t140.5 -275.5q0 -270 -324 -340q240 -74 256 -264l19 -215q16 -199 127 -199h32v-65h-204q-127 0 -188.5 56t-72.5 183l-20 238q-10 125 -63.5 182t-167.5 57h-66v-350q0 -145 25 -286h135 v-66h-627zM467 -221l72 71h102l72 -71v-103l-72 -71h-102l-72 71v103zM512 768h131q119 0 184.5 83t65.5 218t-65.5 217t-184.5 82h-106q-25 -141 -25 -287v-313z" />
<glyph unicode="&#x1e5b;" horiz-adv-x="866" d="M45 0v66h98q25 141 25 286v197q0 145 -25 287h-98v65q197 0 393 25q-8 -55 -16 -166q27 66 92.5 116t128.5 50q78 0 133 -54.5t55 -132.5v-63h-221q0 37 -1 57.5t-5 49t-14 42t-29 13.5q-147 0 -147 -338v-148q0 -145 24 -286h148v-66h-541zM193 -221l71 71h103l71 -71 v-103l-71 -71h-103l-71 71v103z" />
<glyph unicode="&#x1e5c;" horiz-adv-x="1308" d="M45 0v66h135q25 141 25 286v729q0 145 -25 287h-135v66h627q231 0 371.5 -89.5t140.5 -275.5q0 -270 -324 -340q240 -74 256 -264l19 -215q16 -199 127 -199h32v-65h-204q-127 0 -188.5 56t-72.5 183l-20 238q-10 125 -63.5 182t-167.5 57h-66v-350q0 -145 25 -286h135 v-66h-627zM348 1671v66h481v-66h-481zM467 -221l72 71h102l72 -71v-103l-72 -71h-102l-72 71v103zM512 768h131q119 0 184.5 83t65.5 218t-65.5 217t-184.5 82h-106q-25 -141 -25 -287v-313z" />
<glyph unicode="&#x1e5d;" horiz-adv-x="866" d="M45 0v66h98q25 141 25 286v197q0 145 -25 287h-98v65q197 0 393 25q-8 -55 -16 -166q27 66 92.5 116t128.5 50q78 0 133 -54.5t55 -132.5v-63h-221q0 37 -1 57.5t-5 49t-14 42t-29 13.5q-147 0 -147 -338v-148q0 -145 24 -286h148v-66h-541zM172 1204v66h481v-66h-481z M193 -221l71 71h103l71 -71v-103l-71 -71h-103l-71 71v103z" />
<glyph unicode="&#x1e62;" horiz-adv-x="1148" d="M45 72v286h66q0 -147 134 -234t318 -87q129 0 225.5 76.5t96.5 193.5q0 59 -30 105.5t-84 79t-110.5 55t-125.5 47.5l-21 6q-184 61 -305 183t-121 282q0 176 151.5 286.5t356.5 110.5q217 0 414 -100v-287h-66q0 135 -103.5 228.5t-244.5 93.5q-127 0 -220 -59.5 t-93 -159.5q0 -106 90 -171t239 -116q84 -29 148.5 -55.5t135.5 -67.5t117 -86t76.5 -106.5t30.5 -133.5q0 -203 -166 -337t-391 -134q-268 1 -518 101zM473 -221l72 71h102l72 -71v-103l-72 -71h-102l-72 71v103z" />
<glyph unicode="&#x1e63;" horiz-adv-x="841" d="M45 41v254h66q0 -109 90 -181.5t213 -72.5q106 0 182 38t76 116q0 25 -8.5 44t-27 32.5t-34.5 22.5t-48 16l-50 11l-58 9q-39 6 -53 8q-135 23 -230 103.5t-95 195.5q0 125 102 207t244 82q160 0 303 -66v-190h-66q0 84 -70.5 137t-166.5 53q-86 0 -149.5 -39t-63.5 -106 q0 -35 18.5 -59.5t59 -39t70.5 -20.5t85 -14q158 -27 265.5 -106t107.5 -204q0 -133 -117 -215t-276 -82q-189 0 -369 66zM291 -221l71 71h103l72 -71v-103l-72 -71h-103l-71 71v103z" />
<glyph unicode="&#x1e6c;" horiz-adv-x="1355" d="M45 1075v359h1266v-359h-66q0 119 -61.5 206t-159.5 87h-168q-25 -141 -25 -287v-729q0 -145 25 -286h135v-66h-626v66h135q25 141 24 286v729q0 145 -24 287h-168q-98 0 -159.5 -87t-61.5 -206h-66zM555 -221l72 71h102l72 -71v-103l-72 -71h-102l-72 71v103z" />
<glyph unicode="&#x1e6d;" horiz-adv-x="602" d="M45 836v65h98v123q29 0 99.5 48t81.5 75h65v-246h168v-65h-168v-607q0 -37 2 -59.5t7 -50t20.5 -40.5t38.5 -13q18 0 39.5 15t27.5 34h33v-66q-90 -74 -205 -74q-94 0 -151.5 42t-57.5 122v697h-98zM197 -221l71 71h103l71 -71v-103l-71 -71h-103l-71 71v103z" />
<glyph unicode="&#x1e6e;" horiz-adv-x="1355" d="M45 1075v359h1266v-359h-66q0 119 -61.5 206t-159.5 87h-168q-25 -141 -25 -287v-729q0 -145 25 -286h135v-66h-626v66h135q25 141 24 286v729q0 145 -24 287h-168q-98 0 -159.5 -87t-61.5 -206h-66zM436 -242h482v-65h-482v65z" />
<glyph unicode="&#x1e6f;" horiz-adv-x="602" d="M45 836v65h98v123q29 0 99.5 48t81.5 75h65v-246h168v-65h-168v-607q0 -37 2 -59.5t7 -50t20.5 -40.5t38.5 -13q18 0 39.5 15t27.5 34h33v-66q-90 -74 -205 -74q-94 0 -151.5 42t-57.5 122v697h-98zM78 -242h481v-65h-481v65z" />
<glyph unicode="&#x1e80;" horiz-adv-x="2127" d="M14 1368v66h531v-66h-78q25 -143 74 -287l235 -686l236 686l16 52q-49 127 -104 235h-80v66h532v-66h-80q27 -143 74 -287l236 -686l235 686q49 143 74 287h-78v66h277v-66h-80q-70 -135 -123 -287l-250 -729q-61 -178 -107 -381h-151q-45 203 -107 381l-233 678 l-234 -678q-70 -213 -104 -381h-152q-45 203 -106 381l-252 729q-49 150 -123 287h-78zM854 1778v65h231q27 -174 154 -280h-133z" />
<glyph unicode="&#x1e81;" horiz-adv-x="1626" d="M45 836v65q197 0 393 25q-25 -188 -24 -377v-330q0 -61 25.5 -107t72.5 -46q86 0 157.5 48t106.5 126v309q0 145 -24 287h-99v65q197 0 394 25q-25 -188 -25 -377v-309q0 -82 32.5 -140.5t94.5 -58.5q150 0 215.5 153.5t36.5 354.5q-20 156 -117 287h-98v65h395v-65h-49 q-53 -139 -31 -287q33 -223 -67.5 -398.5t-284.5 -175.5q-66 0 -127 25h-246v129q-115 -154 -305 -154q-188 0 -303 154v420q0 145 -25 287h-98zM643 1315v61h221q25 -195 164 -329h-117z" />
<glyph unicode="&#x1e82;" horiz-adv-x="2127" d="M14 1368v66h531v-66h-78q25 -143 74 -287l235 -686l236 686l16 52q-49 127 -104 235h-80v66h532v-66h-80q27 -143 74 -287l236 -686l235 686q49 143 74 287h-78v66h277v-66h-80q-70 -135 -123 -287l-250 -729q-61 -178 -107 -381h-151q-45 203 -107 381l-233 678 l-234 -678q-70 -213 -104 -381h-152q-45 203 -106 381l-252 729q-49 150 -123 287h-78zM981 1563q127 106 154 280h231v-65l-252 -215h-133z" />
<glyph unicode="&#x1e83;" horiz-adv-x="1626" d="M45 836v65q197 0 393 25q-25 -188 -24 -377v-330q0 -61 25.5 -107t72.5 -46q86 0 157.5 48t106.5 126v309q0 145 -24 287h-99v65q197 0 394 25q-25 -188 -25 -377v-309q0 -82 32.5 -140.5t94.5 -58.5q150 0 215.5 153.5t36.5 354.5q-20 156 -117 287h-98v65h395v-65h-49 q-53 -139 -31 -287q33 -223 -67.5 -398.5t-284.5 -175.5q-66 0 -127 25h-246v129q-115 -154 -305 -154q-188 0 -303 154v420q0 145 -25 287h-98zM770 1047q139 135 164 329h221v-61l-268 -268h-117z" />
<glyph unicode="&#x1e84;" horiz-adv-x="2127" d="M14 1368v66h531v-66h-78q25 -143 74 -287l235 -686l236 686l16 52q-49 127 -104 235h-80v66h532v-66h-80q27 -143 74 -287l236 -686l235 686q49 143 74 287h-78v66h277v-66h-80q-70 -135 -123 -287l-250 -729q-61 -178 -107 -381h-151q-45 203 -107 381l-233 678 l-234 -678q-70 -213 -104 -381h-152q-45 203 -106 381l-252 729q-49 150 -123 287h-78zM793 1659v90l65 66h90l66 -66v-90l-66 -66h-90zM1206 1659v90l66 66h90l65 -66v-90l-65 -66h-90z" />
<glyph unicode="&#x1e85;" horiz-adv-x="1626" d="M45 836v65q197 0 393 25q-25 -188 -24 -377v-330q0 -61 25.5 -107t72.5 -46q86 0 157.5 48t106.5 126v309q0 145 -24 287h-99v65q197 0 394 25q-25 -188 -25 -377v-309q0 -82 32.5 -140.5t94.5 -58.5q150 0 215.5 153.5t36.5 354.5q-20 156 -117 287h-98v65h395v-65h-49 q-53 -139 -31 -287q33 -223 -67.5 -398.5t-284.5 -175.5q-66 0 -127 25h-246v129q-115 -154 -305 -154q-188 0 -303 154v420q0 145 -25 287h-98zM582 1167v90l65 66h90l66 -66v-90l-66 -65h-90zM995 1167v90l66 66h90l66 -66v-90l-66 -65h-90z" />
<glyph unicode="&#x1e92;" horiz-adv-x="1236" d="M45 0v88q182 86 264 270l373 842q41 90 119 168h-412q-98 0 -159.5 -87t-61.5 -206h-66v359h1057v-88q-129 -117 -196 -271l-373 -842q-39 -88 -117 -167h432q98 0 159.5 87t61.5 205h66v-358h-1147zM496 -221l71 71h103l71 -71v-103l-71 -71h-103l-71 71v103z" />
<glyph unicode="&#x1e93;" horiz-adv-x="892" d="M45 0v82q102 39 145 133l281 578q8 20 27 43h-154q-123 0 -172 -49.5t-49 -172.5h-66v287h758v-82q-82 -47 -123 -133l-280 -577q-8 -20 -27 -43h176q123 0 172 49t49 172h66v-287h-803zM313 -221l72 71h102l72 -71v-103l-72 -71h-102l-72 71v103z" />
<glyph unicode="&#x1e97;" horiz-adv-x="602" d="M-51 1372v90l65 66h90l66 -66v-90l-66 -65h-90zM45 836v65h98v123q29 0 99.5 48t81.5 75h65v-246h168v-65h-168v-607q0 -37 2 -59.5t7 -50t20.5 -40.5t38.5 -13q18 0 39.5 15t27.5 34h33v-66q-90 -74 -205 -74q-94 0 -151.5 42t-57.5 122v697h-98zM362 1372v90l66 66h90 l66 -66v-90l-66 -65h-90z" />
<glyph unicode="&#x1ea0;" horiz-adv-x="1329" d="M14 0v66h109q68 131 119 286l264 795q51 152 80 315h102q39 -166 92 -315l293 -795q51 -137 131 -286h109v-66h-561v66h108q-23 123 -80 286l-53 142h-369l-47 -142q-51 -154 -69 -286h106v-66h-334zM381 559h321l-170 461zM514 -221l72 71h102l72 -71v-103l-72 -71h-102 l-72 71v103z" />
<glyph unicode="&#x1ea1;" horiz-adv-x="1009" d="M45 268.5q0 139.5 94 216t250 76.5q131 0 229 -86v221q0 74 -34.5 119t-98.5 45q-82 0 -132 -43t-50 -121h-197q0 115 112 172.5t267 57.5q170 0 274.5 -75t104.5 -220v-488q0 -47 30 -62t93 -15v-66h-147q-143 0 -199 80q-115 -104 -252 -105q-156 0 -250 77t-94 216.5z M291 268q0 -92 38 -159.5t109 -67.5q51 0 103.5 31.5t76.5 77.5v260q-68 86 -180 86q-72 0 -109.5 -68t-37.5 -160zM362 -221l72 71h103l71 -71v-103l-71 -71h-103l-72 71v103z" />
<glyph unicode="&#x1ea2;" horiz-adv-x="1329" d="M14 0v66h109q68 131 119 286l264 795q51 152 80 315h102q39 -166 92 -315l293 -795q51 -137 131 -286h109v-66h-561v66h108q-23 123 -80 286l-53 142h-369l-47 -142q-51 -154 -69 -286h106v-66h-334zM381 559h321l-170 461zM446 1796q0 59 56.5 93t134.5 34t134 -34 t56 -93q0 -45 -104 -125l-17 -11q-11 -7 -18 -13q-25 -25 -24 -50h-54q0 49 37 91q6 4 16.5 16t18.5 18q23 18 23 74q0 29 -19.5 49.5t-48.5 20.5t-48.5 -20.5t-19.5 -49.5h-123z" />
<glyph unicode="&#x1ea3;" horiz-adv-x="1009" d="M45 268.5q0 139.5 94 216t250 76.5q131 0 229 -86v221q0 74 -34.5 119t-98.5 45q-82 0 -132 -43t-50 -121h-197q0 115 112 172.5t267 57.5q170 0 274.5 -75t104.5 -220v-488q0 -47 30 -62t93 -15v-66h-147q-143 0 -199 80q-115 -104 -252 -105q-156 0 -250 77t-94 216.5z M291 268q0 -92 38 -159.5t109 -67.5q51 0 103.5 31.5t76.5 77.5v260q-68 86 -180 86q-72 0 -109.5 -68t-37.5 -160zM295 1264q0 59 56.5 93t134 34t134 -34t56.5 -93q0 -45 -105 -125l-17 -12q-11 -7 -17 -13q-25 -25 -25 -49h-53q0 49 37 90q6 4 16 16.5t18 18.5 q23 18 23 74q0 29 -19.5 49t-48 20t-48 -20.5t-19.5 -48.5h-123z" />
<glyph unicode="&#x1ea4;" horiz-adv-x="1329" d="M14 0v66h109q68 131 119 286l264 795q51 152 80 315h102q39 -166 92 -315l293 -795q51 -137 131 -286h109v-66h-561v66h108q-23 123 -80 286l-53 142h-369l-47 -142q-51 -154 -69 -286h106v-66h-334zM360 1565l154 278h246l153 -278h-211l-133 241l-133 -241h-76z M381 559h321l-170 461zM410 1909q127 109 153 280h232v-63l-252 -217h-133z" />
<glyph unicode="&#x1ea5;" horiz-adv-x="1009" d="M45 268.5q0 139.5 94 216t250 76.5q131 0 229 -86v221q0 74 -34.5 119t-98.5 45q-82 0 -132 -43t-50 -121h-197q0 115 112 172.5t267 57.5q170 0 274.5 -75t104.5 -220v-488q0 -47 30 -62t93 -15v-66h-147q-143 0 -199 80q-115 -104 -252 -105q-156 0 -250 77t-94 216.5z M209 1032l153 279h246l154 -279h-211l-133 242l-133 -242h-76zM258 1376q127 109 154 281h231v-64l-252 -217h-133zM291 268q0 -92 38 -159.5t109 -67.5q51 0 103.5 31.5t76.5 77.5v260q-68 86 -180 86q-72 0 -109.5 -68t-37.5 -160z" />
<glyph unicode="&#x1ea6;" horiz-adv-x="1329" d="M14 0v66h109q68 131 119 286l264 795q51 152 80 315h102q39 -166 92 -315l293 -795q51 -137 131 -286h109v-66h-561v66h108q-23 123 -80 286l-53 142h-369l-47 -142q-51 -154 -69 -286h106v-66h-334zM360 1565l154 278h246l153 -278h-211l-133 241l-133 -241h-76z M381 559h321l-170 461zM479 2126v63h232q27 -172 153 -280h-133z" />
<glyph unicode="&#x1ea7;" horiz-adv-x="1009" d="M45 268.5q0 139.5 94 216t250 76.5q131 0 229 -86v221q0 74 -34.5 119t-98.5 45q-82 0 -132 -43t-50 -121h-197q0 115 112 172.5t267 57.5q170 0 274.5 -75t104.5 -220v-488q0 -47 30 -62t93 -15v-66h-147q-143 0 -199 80q-115 -104 -252 -105q-156 0 -250 77t-94 216.5z M209 1032l153 279h246l154 -279h-211l-133 242l-133 -242h-76zM291 268q0 -92 38 -159.5t109 -67.5q51 0 103.5 31.5t76.5 77.5v260q-68 86 -180 86q-72 0 -109.5 -68t-37.5 -160zM328 1593v64h231q27 -172 154 -281h-133z" />
<glyph unicode="&#x1ea8;" horiz-adv-x="1329" d="M14 0v66h109q68 131 119 286l264 795q51 152 80 315h102q39 -166 92 -315l293 -795q51 -137 131 -286h109v-66h-561v66h108q-23 123 -80 286l-53 142h-369l-47 -142q-51 -154 -69 -286h106v-66h-334zM360 1565l154 278h246l153 -278h-211l-133 241l-133 -241h-76z M381 559h321l-170 461zM446 2107q0 59 56.5 93t134.5 34t134 -33.5t56 -93.5q0 -45 -104 -125l-17 -11q-11 -7 -18 -13q-25 -25 -24 -49h-54q0 49 37 90q6 4 16.5 16.5t18.5 18.5q23 18 23 73q0 29 -19.5 49.5t-48.5 20.5t-48.5 -20.5t-19.5 -49.5h-123z" />
<glyph unicode="&#x1ea9;" horiz-adv-x="1009" d="M45 268.5q0 139.5 94 216t250 76.5q131 0 229 -86v221q0 74 -34.5 119t-98.5 45q-82 0 -132 -43t-50 -121h-197q0 115 112 172.5t267 57.5q170 0 274.5 -75t104.5 -220v-488q0 -47 30 -62t93 -15v-66h-147q-143 0 -199 80q-115 -104 -252 -105q-156 0 -250 77t-94 216.5z M209 1032l153 279h246l154 -279h-211l-133 242l-133 -242h-76zM291 268q0 -92 38 -159.5t109 -67.5q51 0 103.5 31.5t76.5 77.5v260q-68 86 -180 86q-72 0 -109.5 -68t-37.5 -160zM295 1575q0 59 56.5 93t134 34t134 -34t56.5 -93q0 -45 -105 -125l-17 -11q-11 -7 -17 -14 q-25 -25 -25 -49h-53q0 49 37 90q6 4 16 16.5t18 18.5q23 18 23 74q0 29 -19.5 49.5t-48 20.5t-48 -20.5t-19.5 -49.5h-123z" />
<glyph unicode="&#x1eaa;" horiz-adv-x="1329" d="M14 0v66h109q68 131 119 286l264 795q51 152 80 315h102q39 -166 92 -315l293 -795q51 -137 131 -286h109v-66h-561v66h108q-23 123 -80 286l-53 142h-369l-47 -142q-51 -154 -69 -286h106v-66h-334zM360 1565l154 278h246l153 -278h-211l-133 241l-133 -241h-76z M379 1982q168 199 213 199q29 0 74 -37t73 -37q51 0 109 74l47 -41q-168 -199 -213 -198q-29 0 -74 36.5t-73 36.5q-51 0 -109 -73zM381 559h321l-170 461z" />
<glyph unicode="&#x1eab;" horiz-adv-x="1009" d="M45 268.5q0 139.5 94 216t250 76.5q131 0 229 -86v221q0 74 -34.5 119t-98.5 45q-82 0 -132 -43t-50 -121h-197q0 115 112 172.5t267 57.5q170 0 274.5 -75t104.5 -220v-488q0 -47 30 -62t93 -15v-66h-147q-143 0 -199 80q-115 -104 -252 -105q-156 0 -250 77t-94 216.5z M209 1032l153 279h246l154 -279h-211l-133 242l-133 -242h-76zM227 1450q168 199 213 199q29 0 74 -37t74 -37q51 0 108 74l47 -41q-168 -199 -213 -199q-29 0 -73.5 37t-73.5 37q-51 0 -109 -74zM291 268q0 -92 38 -159.5t109 -67.5q51 0 103.5 31.5t76.5 77.5v260 q-68 86 -180 86q-72 0 -109.5 -68t-37.5 -160z" />
<glyph unicode="&#x1eac;" horiz-adv-x="1329" d="M14 0v66h109q68 131 119 286l264 795q51 152 80 315h102q39 -166 92 -315l293 -795q51 -137 131 -286h109v-66h-561v66h108q-23 123 -80 286l-53 142h-369l-47 -142q-51 -154 -69 -286h106v-66h-334zM360 1565l154 278h246l153 -278h-211l-133 241l-133 -241h-76z M381 559h321l-170 461zM514 -221l72 71h102l72 -71v-103l-72 -71h-102l-72 71v103z" />
<glyph unicode="&#x1ead;" horiz-adv-x="1009" d="M45 268.5q0 139.5 94 216t250 76.5q131 0 229 -86v221q0 74 -34.5 119t-98.5 45q-82 0 -132 -43t-50 -121h-197q0 115 112 172.5t267 57.5q170 0 274.5 -75t104.5 -220v-488q0 -47 30 -62t93 -15v-66h-147q-143 0 -199 80q-115 -104 -252 -105q-156 0 -250 77t-94 216.5z M209 1049l153 327h246l154 -327h-203l-139 294l-139 -294h-72zM291 268q0 -92 38 -159.5t109 -67.5q51 0 103.5 31.5t76.5 77.5v260q-68 86 -180 86q-72 0 -109.5 -68t-37.5 -160zM362 -221l72 71h103l71 -71v-103l-71 -71h-103l-72 71v103z" />
<glyph unicode="&#x1eae;" horiz-adv-x="1329" d="M14 0v66h109q68 131 119 286l264 795q51 152 80 315h102q39 -166 92 -315l293 -795q51 -137 131 -286h109v-66h-561v66h108q-23 123 -80 286l-53 142h-369l-47 -142q-51 -154 -69 -286h106v-66h-334zM381 559h321l-170 461zM426 1835h82q0 -53 36 -83t93 -30t93 30t36 83 h82q0 -119 -54.5 -191.5t-156.5 -72.5t-156.5 72.5t-54.5 191.5zM442 1901q127 109 154 280h231v-63l-252 -217h-133z" />
<glyph unicode="&#x1eaf;" horiz-adv-x="1009" d="M45 268.5q0 139.5 94 216t250 76.5q131 0 229 -86v221q0 74 -34.5 119t-98.5 45q-82 0 -132 -43t-50 -121h-197q0 115 112 172.5t267 57.5q170 0 274.5 -75t104.5 -220v-488q0 -47 30 -62t93 -15v-66h-147q-143 0 -199 80q-115 -104 -252 -105q-156 0 -250 77t-94 216.5z M274 1303h82q0 -53 36 -83t93.5 -30t93 29.5t35.5 83.5h82q0 -119 -54 -192t-156.5 -73t-157 73t-54.5 192zM291 268q0 -92 38 -159.5t109 -67.5q51 0 103.5 31.5t76.5 77.5v260q-68 86 -180 86q-72 0 -109.5 -68t-37.5 -160zM291 1368q127 109 153 281h232v-64l-252 -217 h-133z" />
<glyph unicode="&#x1eb0;" horiz-adv-x="1329" d="M14 0v66h109q68 131 119 286l264 795q51 152 80 315h102q39 -166 92 -315l293 -795q51 -137 131 -286h109v-66h-561v66h108q-23 123 -80 286l-53 142h-369l-47 -142q-51 -154 -69 -286h106v-66h-334zM381 559h321l-170 461zM426 1835h82q0 -53 36 -83t93 -30t93 30t36 83 h82q0 -119 -54.5 -191.5t-156.5 -72.5t-156.5 72.5t-54.5 191.5zM446 2118v63h232q27 -172 153 -280h-133z" />
<glyph unicode="&#x1eb1;" horiz-adv-x="1009" d="M45 268.5q0 139.5 94 216t250 76.5q131 0 229 -86v221q0 74 -34.5 119t-98.5 45q-82 0 -132 -43t-50 -121h-197q0 115 112 172.5t267 57.5q170 0 274.5 -75t104.5 -220v-488q0 -47 30 -62t93 -15v-66h-147q-143 0 -199 80q-115 -104 -252 -105q-156 0 -250 77t-94 216.5z M274 1303h82q0 -53 36 -83t93.5 -30t93 29.5t35.5 83.5h82q0 -119 -54 -192t-156.5 -73t-157 73t-54.5 192zM291 268q0 -92 38 -159.5t109 -67.5q51 0 103.5 31.5t76.5 77.5v260q-68 86 -180 86q-72 0 -109.5 -68t-37.5 -160zM295 1585v64h231q27 -172 154 -281h-133z" />
<glyph unicode="&#x1eb2;" horiz-adv-x="1329" d="M14 0v66h109q68 131 119 286l264 795q51 152 80 315h102q39 -166 92 -315l293 -795q51 -137 131 -286h109v-66h-561v66h108q-23 123 -80 286l-53 142h-369l-47 -142q-51 -154 -69 -286h106v-66h-334zM381 559h321l-170 461zM426 1835h82q0 -53 36 -83t93 -30t93 30t36 83 h82q0 -119 -54.5 -191.5t-156.5 -72.5t-156.5 72.5t-54.5 191.5zM446 2034q0 59 56.5 93t134.5 34t134 -34t56 -93q0 -45 -104 -125l-17 -12q-11 -7 -18 -13q-25 -25 -24 -49h-54q0 49 37 90q6 4 16.5 16.5t18.5 18.5q23 18 23 74q0 29 -19.5 49t-48.5 20t-48.5 -20.5 t-19.5 -48.5h-123z" />
<glyph unicode="&#x1eb3;" horiz-adv-x="1009" d="M45 268.5q0 139.5 94 216t250 76.5q131 0 229 -86v221q0 74 -34.5 119t-98.5 45q-82 0 -132 -43t-50 -121h-197q0 115 112 172.5t267 57.5q170 0 274.5 -75t104.5 -220v-488q0 -47 30 -62t93 -15v-66h-147q-143 0 -199 80q-115 -104 -252 -105q-156 0 -250 77t-94 216.5z M274 1303h82q0 -53 36 -83t93.5 -30t93 29.5t35.5 83.5h82q0 -119 -54 -192t-156.5 -73t-157 73t-54.5 192zM291 268q0 -92 38 -159.5t109 -67.5q51 0 103.5 31.5t76.5 77.5v260q-68 86 -180 86q-72 0 -109.5 -68t-37.5 -160zM295 1501q0 59 56.5 93t134 34t134 -33.5 t56.5 -93.5q0 -45 -105 -125l-17 -11q-11 -7 -17 -13q-25 -25 -25 -49h-53q0 49 37 90q6 4 16 16t18 18q23 18 23 74q0 29 -19.5 49.5t-48 20.5t-48 -20.5t-19.5 -49.5h-123z" />
<glyph unicode="&#x1eb4;" horiz-adv-x="1329" d="M14 0v66h109q68 131 119 286l264 795q51 152 80 315h102q39 -166 92 -315l293 -795q51 -137 131 -286h109v-66h-561v66h108q-23 123 -80 286l-53 142h-369l-47 -142q-51 -154 -69 -286h106v-66h-334zM379 1942q168 199 213 198q29 0 74 -37t73 -37q51 0 109 74l47 -41 q-168 -199 -213 -198q-29 0 -74 36.5t-73 36.5q-51 0 -109 -73zM381 559h321l-170 461zM426 1835h82q0 -53 36 -83t93 -30t93 30t36 83h82q0 -119 -54.5 -191.5t-156.5 -72.5t-156.5 72.5t-54.5 191.5z" />
<glyph unicode="&#x1eb5;" horiz-adv-x="1009" d="M45 268.5q0 139.5 94 216t250 76.5q131 0 229 -86v221q0 74 -34.5 119t-98.5 45q-82 0 -132 -43t-50 -121h-197q0 115 112 172.5t267 57.5q170 0 274.5 -75t104.5 -220v-488q0 -47 30 -62t93 -15v-66h-147q-143 0 -199 80q-115 -104 -252 -105q-156 0 -250 77t-94 216.5z M227 1409q168 199 213 199q29 0 74 -37t74 -37q51 0 108 74l47 -41q-168 -199 -213 -199q-29 0 -73.5 37t-73.5 37q-51 0 -109 -74zM274 1303h82q0 -53 36 -83t93.5 -30t93 29.5t35.5 83.5h82q0 -119 -54 -192t-156.5 -73t-157 73t-54.5 192zM291 268q0 -92 38 -159.5 t109 -67.5q51 0 103.5 31.5t76.5 77.5v260q-68 86 -180 86q-72 0 -109.5 -68t-37.5 -160z" />
<glyph unicode="&#x1eb6;" horiz-adv-x="1329" d="M14 0v66h109q68 131 119 286l264 795q51 152 80 315h102q39 -166 92 -315l293 -795q51 -137 131 -286h109v-66h-561v66h108q-23 123 -80 286l-53 142h-369l-47 -142q-51 -154 -69 -286h106v-66h-334zM381 559h321l-170 461zM426 1835h82q0 -53 36 -83t93 -30t93 30t36 83 h82q0 -119 -54.5 -191.5t-156.5 -72.5t-156.5 72.5t-54.5 191.5zM514 -221l72 71h102l72 -71v-103l-72 -71h-102l-72 71v103z" />
<glyph unicode="&#x1eb7;" horiz-adv-x="1009" d="M45 268.5q0 139.5 94 216t250 76.5q131 0 229 -86v221q0 74 -34.5 119t-98.5 45q-82 0 -132 -43t-50 -121h-197q0 115 112 172.5t267 57.5q170 0 274.5 -75t104.5 -220v-488q0 -47 30 -62t93 -15v-66h-147q-143 0 -199 80q-115 -104 -252 -105q-156 0 -250 77t-94 216.5z M274 1360h82q0 -57 35 -92t94.5 -35t94 35t34.5 92h82q0 -135 -51 -216t-159.5 -81t-160 81t-51.5 216zM291 268q0 -92 38 -159.5t109 -67.5q51 0 103.5 31.5t76.5 77.5v260q-68 86 -180 86q-72 0 -109.5 -68t-37.5 -160zM362 -221l72 71h103l71 -71v-103l-71 -71h-103 l-72 71v103z" />
<glyph unicode="&#x1eb8;" horiz-adv-x="1142" d="M45 0v66h135q25 141 25 286v729q0 145 -25 287h-135v66h948v-359h-65q0 119 -61.5 206t-159.5 87h-170q-25 -141 -25 -287v-299h215q41 0 69.5 23.5t28.5 60.5v52h66v-336h-66v51q0 37 -28.5 60.5t-69.5 23.5h-215v-365q0 -145 25 -286h274q98 0 159.5 87t61.5 205h66 v-358h-1053zM430 -221l72 71h102l72 -71v-103l-72 -71h-102l-72 71v103z" />
<glyph unicode="&#x1eb9;" horiz-adv-x="989" d="M59 450.5q0 217.5 118 346.5t325 129q182 0 312 -126t130 -306q-184 25 -369 24h-258v-67q0 -170 55.5 -289t174.5 -119q121 0 199.5 40t148.5 140l49 -43q-102 -121 -192 -163t-250 -42q-207 0 -325 129t-118 346.5zM319 584h367q0 276 -184 276q-100 0 -138.5 -71.5 t-44.5 -204.5zM379 -221l72 71h102l72 -71v-103l-72 -71h-102l-72 71v103z" />
<glyph unicode="&#x1eba;" horiz-adv-x="1142" d="M45 0v66h135q25 141 25 286v729q0 145 -25 287h-135v66h948v-359h-65q0 119 -61.5 206t-159.5 87h-170q-25 -141 -25 -287v-299h215q41 0 69.5 23.5t28.5 60.5v52h66v-336h-66v51q0 37 -28.5 60.5t-69.5 23.5h-215v-365q0 -145 25 -286h274q98 0 159.5 87t61.5 205h66 v-358h-1053zM362 1796q0 59 56.5 93t134.5 34t134 -34t56 -93q0 -45 -104 -125l-17 -11q-11 -7 -18 -13q-25 -25 -24 -50h-54q0 49 37 91q6 4 16.5 16t18.5 18q23 18 23 74q0 29 -19.5 49.5t-48.5 20.5t-48.5 -20.5t-19.5 -49.5h-123z" />
<glyph unicode="&#x1ebb;" horiz-adv-x="989" d="M59 450.5q0 217.5 118 346.5t325 129q182 0 312 -126t130 -306q-184 25 -369 24h-258v-67q0 -170 55.5 -289t174.5 -119q121 0 199.5 40t148.5 140l49 -43q-102 -121 -192 -163t-250 -42q-207 0 -325 129t-118 346.5zM311 1264q0 59 56.5 93t134.5 34t134 -34t56 -93 q0 -45 -104 -125l-18 -12q-11 -7 -17 -13q-25 -25 -25 -49h-53q0 49 37 90q6 4 16.5 16.5t18.5 18.5q23 18 22 74q0 29 -19.5 49t-48 20t-48 -20.5t-19.5 -48.5h-123zM319 584h367q0 276 -184 276q-100 0 -138.5 -71.5t-44.5 -204.5z" />
<glyph unicode="&#x1ebc;" horiz-adv-x="1142" d="M45 0v66h135q25 141 25 286v729q0 145 -25 287h-135v66h948v-359h-65q0 119 -61.5 206t-159.5 87h-170q-25 -141 -25 -287v-299h215q41 0 69.5 23.5t28.5 60.5v52h66v-336h-66v51q0 37 -28.5 60.5t-69.5 23.5h-215v-365q0 -145 25 -286h274q98 0 159.5 87t61.5 205h66 v-358h-1053zM295 1624q168 199 213 199q29 0 74 -37t73 -37q51 0 109 74l47 -41q-168 -199 -213 -199q-29 0 -74 37t-73 37q-51 0 -109 -74z" />
<glyph unicode="&#x1ebd;" horiz-adv-x="989" d="M59 450.5q0 217.5 118 346.5t325 129q182 0 312 -126t130 -306q-184 25 -369 24h-258v-67q0 -170 55.5 -289t174.5 -119q121 0 199.5 40t148.5 140l49 -43q-102 -121 -192 -163t-250 -42q-207 0 -325 129t-118 346.5zM244 1133q168 199 213 198q29 0 73.5 -37t73.5 -37 q51 0 109 74l47 -41q-168 -199 -213 -198q-29 0 -74 36.5t-74 36.5q-51 0 -108 -73zM319 584h367q0 276 -184 276q-100 0 -138.5 -71.5t-44.5 -204.5z" />
<glyph unicode="&#x1ebe;" horiz-adv-x="1142" d="M45 0v66h135q25 141 25 286v729q0 145 -25 287h-135v66h948v-359h-65q0 119 -61.5 206t-159.5 87h-170q-25 -141 -25 -287v-299h215q41 0 69.5 23.5t28.5 60.5v52h66v-336h-66v51q0 37 -28.5 60.5t-69.5 23.5h-215v-365q0 -145 25 -286h274q98 0 159.5 87t61.5 205h66 v-358h-1053zM276 1565l154 278h246l153 -278h-211l-133 241l-133 -241h-76zM326 1909q127 109 153 280h232v-63l-252 -217h-133z" />
<glyph unicode="&#x1ebf;" horiz-adv-x="989" d="M59 450.5q0 217.5 118 346.5t325 129q182 0 312 -126t130 -306q-184 25 -369 24h-258v-67q0 -170 55.5 -289t174.5 -119q121 0 199.5 40t148.5 140l49 -43q-102 -121 -192 -163t-250 -42q-207 0 -325 129t-118 346.5zM225 1032l154 279h246l153 -279h-211l-133 242 l-133 -242h-76zM274 1376q127 109 154 281h231v-64l-251 -217h-134zM319 584h367q0 276 -184 276q-100 0 -138.5 -71.5t-44.5 -204.5z" />
<glyph unicode="&#x1ec0;" horiz-adv-x="1142" d="M45 0v66h135q25 141 25 286v729q0 145 -25 287h-135v66h948v-359h-65q0 119 -61.5 206t-159.5 87h-170q-25 -141 -25 -287v-299h215q41 0 69.5 23.5t28.5 60.5v52h66v-336h-66v51q0 37 -28.5 60.5t-69.5 23.5h-215v-365q0 -145 25 -286h274q98 0 159.5 87t61.5 205h66 v-358h-1053zM276 1565l154 278h246l153 -278h-211l-133 241l-133 -241h-76zM395 2126v63h232q27 -172 153 -280h-133z" />
<glyph unicode="&#x1ec1;" horiz-adv-x="989" d="M59 450.5q0 217.5 118 346.5t325 129q182 0 312 -126t130 -306q-184 25 -369 24h-258v-67q0 -170 55.5 -289t174.5 -119q121 0 199.5 40t148.5 140l49 -43q-102 -121 -192 -163t-250 -42q-207 0 -325 129t-118 346.5zM225 1032l154 279h246l153 -279h-211l-133 242 l-133 -242h-76zM319 584h367q0 276 -184 276q-100 0 -138.5 -71.5t-44.5 -204.5zM344 1593v64h231q27 -172 154 -281h-133z" />
<glyph unicode="&#x1ec2;" horiz-adv-x="1142" d="M45 0v66h135q25 141 25 286v729q0 145 -25 287h-135v66h948v-359h-65q0 119 -61.5 206t-159.5 87h-170q-25 -141 -25 -287v-299h215q41 0 69.5 23.5t28.5 60.5v52h66v-336h-66v51q0 37 -28.5 60.5t-69.5 23.5h-215v-365q0 -145 25 -286h274q98 0 159.5 87t61.5 205h66 v-358h-1053zM276 1565l154 278h246l153 -278h-211l-133 241l-133 -241h-76zM362 2107q0 59 56.5 93t134.5 34t134 -33.5t56 -93.5q0 -45 -104 -125l-17 -11q-11 -7 -18 -13q-25 -25 -24 -49h-54q0 49 37 90q6 4 16.5 16.5t18.5 18.5q23 18 23 73q0 29 -19.5 49.5t-48.5 20.5 t-48.5 -20.5t-19.5 -49.5h-123z" />
<glyph unicode="&#x1ec3;" horiz-adv-x="989" d="M59 450.5q0 217.5 118 346.5t325 129q182 0 312 -126t130 -306q-184 25 -369 24h-258v-67q0 -170 55.5 -289t174.5 -119q121 0 199.5 40t148.5 140l49 -43q-102 -121 -192 -163t-250 -42q-207 0 -325 129t-118 346.5zM225 1032l154 279h246l153 -279h-211l-133 242 l-133 -242h-76zM311 1575q0 59 56.5 93t134.5 34t134 -34t56 -93q0 -45 -104 -125l-18 -11q-11 -7 -17 -14q-25 -25 -25 -49h-53q0 49 37 90q6 4 16.5 16.5t18.5 18.5q23 18 22 74q0 29 -19.5 49.5t-48 20.5t-48 -20.5t-19.5 -49.5h-123zM319 584h367q0 276 -184 276 q-100 0 -138.5 -71.5t-44.5 -204.5z" />
<glyph unicode="&#x1ec4;" horiz-adv-x="1142" d="M45 0v66h135q25 141 25 286v729q0 145 -25 287h-135v66h948v-359h-65q0 119 -61.5 206t-159.5 87h-170q-25 -141 -25 -287v-299h215q41 0 69.5 23.5t28.5 60.5v52h66v-336h-66v51q0 37 -28.5 60.5t-69.5 23.5h-215v-365q0 -145 25 -286h274q98 0 159.5 87t61.5 205h66 v-358h-1053zM276 1565l154 278h246l153 -278h-211l-133 241l-133 -241h-76zM295 1982q168 199 213 199q29 0 74 -37t73 -37q51 0 109 74l47 -41q-168 -199 -213 -198q-29 0 -74 36.5t-73 36.5q-51 0 -109 -73z" />
<glyph unicode="&#x1ec5;" horiz-adv-x="989" d="M59 450.5q0 217.5 118 346.5t325 129q182 0 312 -126t130 -306q-184 25 -369 24h-258v-67q0 -170 55.5 -289t174.5 -119q121 0 199.5 40t148.5 140l49 -43q-102 -121 -192 -163t-250 -42q-207 0 -325 129t-118 346.5zM225 1032l154 279h246l153 -279h-211l-133 242 l-133 -242h-76zM244 1450q168 199 213 199q29 0 73.5 -37t73.5 -37q51 0 109 74l47 -41q-168 -199 -213 -199q-29 0 -74 37t-74 37q-51 0 -108 -74zM319 584h367q0 276 -184 276q-100 0 -138.5 -71.5t-44.5 -204.5z" />
<glyph unicode="&#x1ec6;" horiz-adv-x="1142" d="M45 0v66h135q25 141 25 286v729q0 145 -25 287h-135v66h948v-359h-65q0 119 -61.5 206t-159.5 87h-170q-25 -141 -25 -287v-299h215q41 0 69.5 23.5t28.5 60.5v52h66v-336h-66v51q0 37 -28.5 60.5t-69.5 23.5h-215v-365q0 -145 25 -286h274q98 0 159.5 87t61.5 205h66 v-358h-1053zM276 1565l154 278h246l153 -278h-211l-133 241l-133 -241h-76zM430 -221l72 71h102l72 -71v-103l-72 -71h-102l-72 71v103z" />
<glyph unicode="&#x1ec7;" horiz-adv-x="989" d="M59 450.5q0 217.5 118 346.5t325 129q182 0 312 -126t130 -306q-184 25 -369 24h-258v-67q0 -170 55.5 -289t174.5 -119q121 0 199.5 40t148.5 140l49 -43q-102 -121 -192 -163t-250 -42q-207 0 -325 129t-118 346.5zM225 1049l154 327h246l153 -327h-203l-139 294 l-139 -294h-72zM319 584h367q0 276 -184 276q-100 0 -138.5 -71.5t-44.5 -204.5zM379 -221l72 71h102l72 -71v-103l-72 -71h-102l-72 71v103z" />
<glyph unicode="&#x1ec8;" horiz-adv-x="716" d="M45 0v66h135q25 141 25 286v729q0 145 -25 287h-135v66h627v-66h-135q-25 -141 -25 -287v-729q0 -145 25 -286h135v-66h-627zM168 1796q0 59 56.5 93t134 34t134 -34t56.5 -93q0 -45 -105 -125l-17 -11q-11 -7 -17 -13q-25 -25 -25 -50h-53q0 49 37 91q6 4 16 16t18 18 q23 18 23 74q0 29 -19.5 49.5t-48 20.5t-48 -20.5t-19.5 -49.5h-123z" />
<glyph unicode="&#x1ec9;" horiz-adv-x="581" d="M45 0v66h98q25 141 25 286v197q0 145 -25 287h-98v65q197 0 393 25q-25 -188 -24 -377v-197q0 -145 24 -286h99v-66h-492zM100 1264q0 59 56.5 93t134.5 34t134 -34t56 -93q0 -45 -104 -125l-18 -12q-11 -7 -17 -13q-25 -25 -25 -49h-53q0 49 37 90q6 4 16.5 16.5 t18.5 18.5q23 18 22 74q0 29 -19.5 49t-48 20t-48 -20.5t-19.5 -48.5h-123z" />
<glyph unicode="&#x1eca;" horiz-adv-x="716" d="M45 0v66h135q25 141 25 286v729q0 145 -25 287h-135v66h627v-66h-135q-25 -141 -25 -287v-729q0 -145 25 -286h135v-66h-627zM236 -221l71 71h103l71 -71v-103l-71 -71h-103l-71 71v103z" />
<glyph unicode="&#x1ecb;" horiz-adv-x="581" d="M45 0v66h98q25 141 25 286v197q0 145 -25 287h-98v65q197 0 393 25q-25 -188 -24 -377v-197q0 -145 24 -286h99v-66h-492zM168 -221l72 71h102l72 -71v-103l-72 -71h-102l-72 71v103zM168 1161v103l72 71h102l72 -71v-103l-72 -71h-102z" />
<glyph unicode="&#x1ecc;" horiz-adv-x="1548" d="M45 717q0 342 196.5 543.5t532.5 201.5t532.5 -201.5t196.5 -543.5t-196.5 -544t-532.5 -202t-532.5 202t-196.5 544zM369 717q0 -131 23.5 -248t69.5 -216t127 -157.5t185.5 -58.5t185 58.5t127 157.5t70 216t23.5 248t-23.5 247.5t-70 216t-127 158t-185 58.5 t-185.5 -58.5t-127 -158t-69.5 -216t-23.5 -247.5zM651 -221l72 71h102l72 -71v-103l-72 -71h-102l-72 71v103z" />
<glyph unicode="&#x1ecd;" horiz-adv-x="1079" d="M59 450.5q0 221.5 132.5 348.5t355.5 127t355 -127t132 -348.5t-132 -348.5t-355 -127t-355.5 127t-132.5 348.5zM317 451q0 -92 9.5 -159t33 -127.5t70.5 -92t117 -31.5q92 0 144 59.5t68.5 142.5t16.5 208q0 92 -9 158.5t-32.5 127t-71 92t-116.5 31.5 q-92 0 -144.5 -59.5t-69 -142t-16.5 -207.5zM424 -221l72 71h102l72 -71v-103l-72 -71h-102l-72 71v103z" />
<glyph unicode="&#x1ece;" horiz-adv-x="1548" d="M45 717q0 342 196.5 543.5t532.5 201.5t532.5 -201.5t196.5 -543.5t-196.5 -544t-532.5 -202t-532.5 202t-196.5 544zM369 717q0 -131 23.5 -248t69.5 -216t127 -157.5t185.5 -58.5t185 58.5t127 157.5t70 216t23.5 248t-23.5 247.5t-70 216t-127 158t-185 58.5 t-185.5 -58.5t-127 -158t-69.5 -216t-23.5 -247.5zM584 1796q0 59 56 93t134 34t134.5 -34t56.5 -93q0 -45 -105 -125l-17 -11q-11 -7 -18 -13q-25 -25 -24 -50h-53q0 49 36 91q6 4 16.5 16t18.5 18q23 18 23 74q0 29 -19.5 49.5t-48.5 20.5t-48 -20.5t-19 -49.5h-123z" />
<glyph unicode="&#x1ecf;" horiz-adv-x="1079" d="M59 450.5q0 221.5 132.5 348.5t355.5 127t355 -127t132 -348.5t-132 -348.5t-355 -127t-355.5 127t-132.5 348.5zM317 451q0 -92 9.5 -159t33 -127.5t70.5 -92t117 -31.5q92 0 144 59.5t68.5 142.5t16.5 208q0 92 -9 158.5t-32.5 127t-71 92t-116.5 31.5 q-92 0 -144.5 -59.5t-69 -142t-16.5 -207.5zM356 1264q0 59 56.5 93t134.5 34t134 -34t56 -93q0 -45 -104 -125l-18 -12q-11 -7 -17 -13q-25 -25 -25 -49h-53q0 49 37 90q6 4 16.5 16.5t18.5 18.5q23 18 22 74q0 29 -19.5 49t-48 20t-48 -20.5t-19.5 -48.5h-123z" />
<glyph unicode="&#x1ed0;" horiz-adv-x="1548" d="M45 717q0 342 196.5 543.5t532.5 201.5t532.5 -201.5t196.5 -543.5t-196.5 -544t-532.5 -202t-532.5 202t-196.5 544zM369 717q0 -131 23.5 -248t69.5 -216t127 -157.5t185.5 -58.5t185 58.5t127 157.5t70 216t23.5 248t-23.5 247.5t-70 216t-127 158t-185 58.5 t-185.5 -58.5t-127 -158t-69.5 -216t-23.5 -247.5zM498 1565l153 278h246l154 -278h-211l-133 241l-134 -241h-75zM547 1909q127 109 153 280h232v-63l-252 -217h-133z" />
<glyph unicode="&#x1ed1;" horiz-adv-x="1079" d="M59 450.5q0 221.5 132.5 348.5t355.5 127t355 -127t132 -348.5t-132 -348.5t-355 -127t-355.5 127t-132.5 348.5zM270 1032l154 279h246l153 -279h-211l-133 242l-133 -242h-76zM317 451q0 -92 9.5 -159t33 -127.5t70.5 -92t117 -31.5q92 0 144 59.5t68.5 142.5t16.5 208 q0 92 -9 158.5t-32.5 127t-71 92t-116.5 31.5q-92 0 -144.5 -59.5t-69 -142t-16.5 -207.5zM319 1376q127 109 154 281h232v-64l-252 -217h-134z" />
<glyph unicode="&#x1ed2;" horiz-adv-x="1548" d="M45 717q0 342 196.5 543.5t532.5 201.5t532.5 -201.5t196.5 -543.5t-196.5 -544t-532.5 -202t-532.5 202t-196.5 544zM369 717q0 -131 23.5 -248t69.5 -216t127 -157.5t185.5 -58.5t185 58.5t127 157.5t70 216t23.5 248t-23.5 247.5t-70 216t-127 158t-185 58.5 t-185.5 -58.5t-127 -158t-69.5 -216t-23.5 -247.5zM498 1565l153 278h246l154 -278h-211l-133 241l-134 -241h-75zM616 2126v63h232q27 -172 153 -280h-133z" />
<glyph unicode="&#x1ed3;" horiz-adv-x="1079" d="M59 450.5q0 221.5 132.5 348.5t355.5 127t355 -127t132 -348.5t-132 -348.5t-355 -127t-355.5 127t-132.5 348.5zM270 1032l154 279h246l153 -279h-211l-133 242l-133 -242h-76zM317 451q0 -92 9.5 -159t33 -127.5t70.5 -92t117 -31.5q92 0 144 59.5t68.5 142.5t16.5 208 q0 92 -9 158.5t-32.5 127t-71 92t-116.5 31.5q-92 0 -144.5 -59.5t-69 -142t-16.5 -207.5zM389 1593v64h232q27 -172 153 -281h-133z" />
<glyph unicode="&#x1ed4;" horiz-adv-x="1548" d="M45 717q0 342 196.5 543.5t532.5 201.5t532.5 -201.5t196.5 -543.5t-196.5 -544t-532.5 -202t-532.5 202t-196.5 544zM369 717q0 -131 23.5 -248t69.5 -216t127 -157.5t185.5 -58.5t185 58.5t127 157.5t70 216t23.5 248t-23.5 247.5t-70 216t-127 158t-185 58.5 t-185.5 -58.5t-127 -158t-69.5 -216t-23.5 -247.5zM498 1565l153 278h246l154 -278h-211l-133 241l-134 -241h-75zM584 2107q0 59 56 93t134 34t134.5 -33.5t56.5 -93.5q0 -45 -105 -125l-17 -11q-11 -7 -18 -13q-25 -25 -24 -49h-53q0 49 36 90q6 4 16.5 16.5t18.5 18.5 q23 18 23 73q0 29 -19.5 49.5t-48.5 20.5t-48 -20.5t-19 -49.5h-123z" />
<glyph unicode="&#x1ed5;" horiz-adv-x="1079" d="M59 450.5q0 221.5 132.5 348.5t355.5 127t355 -127t132 -348.5t-132 -348.5t-355 -127t-355.5 127t-132.5 348.5zM270 1032l154 279h246l153 -279h-211l-133 242l-133 -242h-76zM317 451q0 -92 9.5 -159t33 -127.5t70.5 -92t117 -31.5q92 0 144 59.5t68.5 142.5t16.5 208 q0 92 -9 158.5t-32.5 127t-71 92t-116.5 31.5q-92 0 -144.5 -59.5t-69 -142t-16.5 -207.5zM356 1575q0 59 56.5 93t134.5 34t134 -34t56 -93q0 -45 -104 -125l-18 -11q-11 -7 -17 -14q-25 -25 -25 -49h-53q0 49 37 90q6 4 16.5 16.5t18.5 18.5q23 18 22 74q0 29 -19.5 49.5 t-48 20.5t-48 -20.5t-19.5 -49.5h-123z" />
<glyph unicode="&#x1ed6;" horiz-adv-x="1548" d="M45 717q0 342 196.5 543.5t532.5 201.5t532.5 -201.5t196.5 -543.5t-196.5 -544t-532.5 -202t-532.5 202t-196.5 544zM369 717q0 -131 23.5 -248t69.5 -216t127 -157.5t185.5 -58.5t185 58.5t127 157.5t70 216t23.5 248t-23.5 247.5t-70 216t-127 158t-185 58.5 t-185.5 -58.5t-127 -158t-69.5 -216t-23.5 -247.5zM498 1565l153 278h246l154 -278h-211l-133 241l-134 -241h-75zM516 1982q168 199 213 199q29 0 74 -37t74 -37q51 0 108 74l47 -41q-168 -199 -213 -198q-29 0 -74 36.5t-73 36.5q-51 0 -109 -73z" />
<glyph unicode="&#x1ed7;" horiz-adv-x="1079" d="M59 450.5q0 221.5 132.5 348.5t355.5 127t355 -127t132 -348.5t-132 -348.5t-355 -127t-355.5 127t-132.5 348.5zM270 1032l154 279h246l153 -279h-211l-133 242l-133 -242h-76zM289 1450q168 199 213 199q29 0 74 -37t73 -37q51 0 109 74l47 -41q-168 -199 -213 -199 q-29 0 -74 37t-74 37q-51 0 -108 -74zM317 451q0 -92 9.5 -159t33 -127.5t70.5 -92t117 -31.5q92 0 144 59.5t68.5 142.5t16.5 208q0 92 -9 158.5t-32.5 127t-71 92t-116.5 31.5q-92 0 -144.5 -59.5t-69 -142t-16.5 -207.5z" />
<glyph unicode="&#x1ed8;" horiz-adv-x="1548" d="M45 717q0 342 196.5 543.5t532.5 201.5t532.5 -201.5t196.5 -543.5t-196.5 -544t-532.5 -202t-532.5 202t-196.5 544zM369 717q0 -131 23.5 -248t69.5 -216t127 -157.5t185.5 -58.5t185 58.5t127 157.5t70 216t23.5 248t-23.5 247.5t-70 216t-127 158t-185 58.5 t-185.5 -58.5t-127 -158t-69.5 -216t-23.5 -247.5zM498 1565l153 278h246l154 -278h-211l-133 241l-134 -241h-75zM651 -221l72 71h102l72 -71v-103l-72 -71h-102l-72 71v103z" />
<glyph unicode="&#x1ed9;" horiz-adv-x="1079" d="M59 450.5q0 221.5 132.5 348.5t355.5 127t355 -127t132 -348.5t-132 -348.5t-355 -127t-355.5 127t-132.5 348.5zM270 1049l154 327h246l153 -327h-202l-140 294l-139 -294h-72zM317 451q0 -92 9.5 -159t33 -127.5t70.5 -92t117 -31.5q92 0 144 59.5t68.5 142.5t16.5 208 q0 92 -9 158.5t-32.5 127t-71 92t-116.5 31.5q-92 0 -144.5 -59.5t-69 -142t-16.5 -207.5zM424 -221l72 71h102l72 -71v-103l-72 -71h-102l-72 71v103z" />
<glyph unicode="&#x1eda;" horiz-adv-x="1591" d="M45 717q0 342 196.5 543.5t532.5 201.5q360 0 559 -231q72 92 72 256h164q0 -113 -46 -207t-128 -135q109 -176 108 -428q0 -342 -196.5 -544t-532.5 -202t-532.5 202t-196.5 544zM369 717q0 -131 23.5 -248t69.5 -216t127 -157.5t185.5 -58.5t185 58.5t127 157.5t70 216 t23.5 248t-23.5 247.5t-70 216t-127 158t-185 58.5t-185.5 -58.5t-127 -158t-69.5 -216t-23.5 -247.5zM645 1563q127 106 154 280h231v-65l-252 -215h-133z" />
<glyph unicode="&#x1edb;" horiz-adv-x="1181" d="M59 450.5q0 221.5 132.5 348.5t355.5 127q281 0 409 -193q45 78 45 217h164q0 -104 -42 -195t-113 -137q25 -78 24 -167q0 -221 -132 -348.5t-355 -127.5t-355.5 127t-132.5 348.5zM317 451q0 -92 9.5 -159t33 -127.5t70.5 -92t117 -31.5q92 0 144 59.5t68.5 142.5 t16.5 208q0 92 -9 158.5t-32.5 127t-71 92t-116.5 31.5q-92 0 -144.5 -59.5t-69 -142t-16.5 -207.5zM418 1047q139 135 164 329h221v-61l-268 -268h-117z" />
<glyph unicode="&#x1edc;" horiz-adv-x="1591" d="M45 717q0 342 196.5 543.5t532.5 201.5q360 0 559 -231q72 92 72 256h164q0 -113 -46 -207t-128 -135q109 -176 108 -428q0 -342 -196.5 -544t-532.5 -202t-532.5 202t-196.5 544zM369 717q0 -131 23.5 -248t69.5 -216t127 -157.5t185.5 -58.5t185 58.5t127 157.5t70 216 t23.5 248t-23.5 247.5t-70 216t-127 158t-185 58.5t-185.5 -58.5t-127 -158t-69.5 -216t-23.5 -247.5zM518 1778v65h232q27 -174 153 -280h-133z" />
<glyph unicode="&#x1edd;" horiz-adv-x="1181" d="M59 450.5q0 221.5 132.5 348.5t355.5 127q281 0 409 -193q45 78 45 217h164q0 -104 -42 -195t-113 -137q25 -78 24 -167q0 -221 -132 -348.5t-355 -127.5t-355.5 127t-132.5 348.5zM291 1315v61h221q25 -195 164 -329h-117zM317 451q0 -92 9.5 -159t33 -127.5t70.5 -92 t117 -31.5q92 0 144 59.5t68.5 142.5t16.5 208q0 92 -9 158.5t-32.5 127t-71 92t-116.5 31.5q-92 0 -144.5 -59.5t-69 -142t-16.5 -207.5z" />
</font>
</defs>
</svg>
